<?xml version="1.0" standalone="no"?>
<!DOCTYPE svg PUBLIC "-//W3C//DTD SVG 1.1//EN" "http://www.w3.org/Graphics/SVG/1.1/DTD/svg11.dtd" >
<svg xmlns="http://www.w3.org/2000/svg" xmlns:xlink="http://www.w3.org/1999/xlink" version="1.1">
<metadata>
Created by FontForge 20161003 at Wed Apr 25 11:10:51 2018
 By www-data
Copyright (c) 2011-2015, Omnibus-Type (www.omnibus-type.com omnibus.type@gmail.com)
</metadata>
<defs>
<font id="AsapBoldItalic" horiz-adv-x="557" >
  <font-face 
    font-family="AsapBoldItalic"
    font-weight="700"
    font-style="italic"
    font-stretch="normal"
    units-per-em="1000"
    panose-1="2 15 8 4 3 1 2 13 2 3"
    ascent="800"
    descent="-200"
    x-height="523"
    cap-height="702"
    bbox="-330 -240 1299 1019.69"
    underline-thickness="50"
    underline-position="-150"
    slope="-6"
    unicode-range="U+000D-FB02"
  />
<missing-glyph horiz-adv-x="515" 
d="M-20 0l74 700h500l-74 -700h-500zM272 395l196 255h-340zM93 605l-54 -510l198 255zM297 350l142 -255l54 510zM65 50h340l-144 255z" />
    <glyph glyph-name="uniFB01" unicode="fi" horiz-adv-x="563" 
d="M263 760q96 0 96 -46q0 -16 -12.5 -46t-24.5 -30q-2 0 -12 2.5t-21 2.5q-36 0 -40 -43l-9 -77h60q10 0 13 -4.5t3 -15.5q0 -33 -15.5 -65t-42.5 -32h-30l-39 -376q-3 -32 -63 -32h-28q-28 0 -42.5 9t-14.5 22l39 377h-20q-26 0 -26 36q0 81 38 81h21l7 75
q7 77 49.5 119.5t113.5 42.5zM484 754q28 0 42.5 -9t14.5 -22l-9 -82q-3 -32 -63 -32h-28q-28 0 -42.5 9t-14.5 22l9 82q3 32 63 32h28zM460 525q28 0 42.5 -9t14.5 -22q-37 -342 -37 -352q0 -33 30 -33q8 0 18 3t11 3q8 0 8 -11q0 -19 -7 -60q-4 -25 -31 -38.5t-57 -13.5
q-121 0 -121 127l38 374q3 32 63 32h28z" />
    <glyph glyph-name="uniFB02" unicode="fl" horiz-adv-x="591" 
d="M263 760q96 0 96 -46q0 -16 -12.5 -46t-24.5 -30q-2 0 -12 2.5t-21 2.5q-36 0 -40 -43l-9 -77h60q10 0 13 -4.5t3 -15.5q0 -33 -15.5 -65t-42.5 -32h-30l-39 -376q-3 -32 -63 -32h-28q-28 0 -42.5 9t-14.5 22l39 377h-20q-26 0 -26 36q0 81 38 81h21l7 75
q7 77 49.5 119.5t113.5 42.5zM496 755q47 0 47 -27q-61 -582 -61 -586q0 -33 30 -33q8 0 18 3t11 3q8 0 8 -11q0 -19 -7 -60q-4 -25 -31 -38.5t-57 -13.5q-121 0 -121 127l63 606q4 30 52 30h48z" />
    <glyph glyph-name="f_f" unicode="ff" horiz-adv-x="650" 
d="M263 760q96 0 96 -46q0 -16 -12.5 -46t-24.5 -30q-2 0 -12 2.5t-21 2.5q-36 0 -40 -43l-9 -77h60q10 0 13 -4.5t3 -15.5q0 -33 -15.5 -65t-42.5 -32h-30l-39 -376q-3 -32 -63 -32h-28q-28 0 -42.5 9t-14.5 22l39 377h-20q-26 0 -26 36q0 81 38 81h21l7 75
q7 77 49.5 119.5t113.5 42.5zM588 760q96 0 96 -46q0 -16 -12.5 -46t-24.5 -30q-3 0 -12 2.5t-21 2.5q-36 0 -40 -43l-9 -77h60q10 0 13 -4.5t3 -15.5q0 -33 -15.5 -65t-42.5 -32h-30l-39 -376q-3 -32 -63 -32h-28q-28 0 -42.5 9t-14.5 22l39 377h-20q-26 0 -26 36
q0 81 38 81h21l7 75q7 77 49.5 119.5t113.5 42.5z" />
    <glyph glyph-name=".notdef" horiz-adv-x="515" 
d="M-20 0l74 700h500l-74 -700h-500zM272 395l196 255h-340zM93 605l-54 -510l198 255zM297 350l142 -255l54 510zM65 50h340l-144 255z" />
    <glyph glyph-name=".null" horiz-adv-x="0" 
 />
    <glyph glyph-name="nonmarkingreturn" horiz-adv-x="333" 
 />
    <glyph glyph-name="CR" unicode="&#xd;" horiz-adv-x="240" 
 />
    <glyph glyph-name="space" unicode=" " horiz-adv-x="240" 
 />
    <glyph glyph-name="exclam" unicode="!" horiz-adv-x="294" 
d="M233 702q58 0 58 -29q0 -8 -15.5 -77t-42.5 -184.5t-37 -157.5q-4 -17 -14.5 -24.5t-39.5 -7.5h-11q-30 0 -39 7t-9 25l44 416q3 32 63 32h43zM145 154q57 0 57 -32l-10 -92q-3 -32 -63 -32h-32q-57 0 -57 32l10 92q3 32 63 32h32z" />
    <glyph glyph-name="quotedbl" unicode="&#x22;" horiz-adv-x="319" 
d="M101 702q57 0 57 -32q0 -3 -41 -176q-7 -30 -37 -30h-15q-34 0 -34 30v176q0 32 63 32h7zM247 702q57 0 57 -32q0 -3 -41 -176q-7 -30 -37 -30h-15q-34 0 -34 30v176q0 32 63 32h7z" />
    <glyph glyph-name="numbersign" unicode="#" horiz-adv-x="534" 
d="M480 686q42 0 42 -22q0 -4 -4 -18t-16 -53.5t-23 -79.5h33q26 0 26 -34q0 -76 -37 -76h-53l-33 -110h42q26 0 26 -34q0 -76 -37 -76h-62l-45 -154q-9 -31 -59 -31h-13q-42 0 -42 23q0 7 3.5 18.5t16 51.5t26.5 92h-94l-45 -154q-9 -31 -59 -31h-13q-45 0 -43 23
q0 7 3.5 18.5t16 51.5t27.5 92h-43q-25 0 -25 33q0 77 36 77h63l33 110h-48q-26 0 -26 34q0 76 37 76h68l41 142q9 31 60 31h13q42 0 42 -22q0 -4 -4 -18t-16 -53.5t-23 -79.5h94l41 142q9 31 60 31h13zM335 403h-94l-33 -110h94z" />
    <glyph glyph-name="dollar" unicode="$" horiz-adv-x="496" 
d="M314 765q18 0 18 -20q0 -1 -1 -7.5t-2 -15.5t-1 -15q66 -3 109 -23t43 -44q0 -21 -23.5 -55t-40.5 -34q-1 0 -33 12t-69 13l-16 -156q33 -15 48 -22.5t43 -26t41 -35t24.5 -44t11.5 -59.5q0 -115 -61.5 -172t-151.5 -67l-5 -49q-3 -20 -22 -20h-17q-11 0 -14.5 4.5
t-3.5 15.5q0 8 5 48q-64 3 -118 22t-54 55q0 111 26 111q5 0 26.5 -14.5t57.5 -29t75 -14.5l18 166q-29 12 -42.5 18.5t-39.5 20t-39.5 26.5t-29 32.5t-22.5 43.5t-7 53q0 104 64 159t160 64l4 39q1 20 22 20h17zM256 571q-60 -14 -60 -61q0 -36 47 -63zM281 260l-14 -127
q50 18 50 70q0 31 -36 57z" />
    <glyph glyph-name="percent" unicode="%" horiz-adv-x="765" 
d="M232 708q134 0 134 -135q0 -59 -15.5 -101t-42.5 -62.5t-53.5 -29t-57.5 -8.5q-135 0 -135 136q0 59 16 101t43 62t54 28.5t57 8.5zM639 702q20 0 20 -12q0 -6 -6 -15l-426 -650q-17 -27 -46 -27h-44q-20 0 -20 12q0 6 6 15l426 650q17 27 46 27h44zM223 622
q-31 0 -44.5 -32t-13.5 -73q0 -63 40 -63q31 0 44.5 35.5t13.5 75.5q0 57 -40 57zM579 328q135 0 135 -137q0 -59 -16 -100.5t-43 -61.5t-54 -28.5t-57 -8.5q-134 0 -134 135q0 59 15.5 101t42 62.5t53.5 29t58 8.5zM570 242q-22 0 -35.5 -19t-18 -41.5t-4.5 -47.5
q0 -60 40 -60q30 0 44 34.5t14 73.5q0 60 -40 60z" />
    <glyph glyph-name="ampersand" unicode="&#x26;" horiz-adv-x="624" 
d="M288 708q106 0 106 -39q0 -33 -16 -59t-28 -26l-17 4q-17 3 -31 3q-42 0 -66.5 -25t-24.5 -67q0 -34 25 -53.5t70 -19.5h94l9 75q3 32 63 32h27q28 0 42.5 -9t14.5 -22l-8 -76h59q10 0 13 -4.5t3 -15.5q0 -33 -15.5 -65t-42.5 -32h-29q-17 -164 -17 -167q0 -33 30 -33
q11 0 24 3t14 3q8 0 8 -11q0 -19 -7 -60q-4 -25 -31 -38.5t-57 -13.5q-70 0 -103 40q-86 -40 -186 -40q-94 0 -149.5 49t-55.5 136q0 72 35 127t101 79v4q-36 16 -57 48.5t-21 76.5q0 89 62 142.5t162 53.5zM388 309h-103q-129 0 -129 -116q0 -40 24 -62t66 -22q60 0 124 26
z" />
    <glyph glyph-name="quotesingle" unicode="'" horiz-adv-x="183" 
d="M111 702q57 0 57 -32q0 -3 -41 -176q-7 -30 -37 -30h-15q-34 0 -34 30v176q0 32 63 32h7z" />
    <glyph glyph-name="parenleft" unicode="(" horiz-adv-x="301" 
d="M280 783q15 0 33.5 -14t18.5 -30q0 -10 -7 -22q-163 -254 -163 -527q0 -159 71 -332q3 -8 3 -14q0 -18 -21 -35t-41 -17q-15 0 -25 16q-103 173 -103 392q0 150 53 297t152 270q13 16 29 16z" />
    <glyph glyph-name="parenright" unicode=")" horiz-adv-x="301" 
d="M122 783q15 0 25 -16q104 -176 104 -389q0 -139 -48.5 -287.5t-156.5 -282.5q-13 -16 -29 -16q-15 0 -33 14t-18 30q0 10 7 21q85 137 123 262.5t38 268.5q0 159 -71 329q-4 10 -4 14q0 18 21.5 35t41.5 17z" />
    <glyph glyph-name="asterisk" unicode="*" horiz-adv-x="373" 
d="M197 708q16 0 21.5 -7t5.5 -23l-9 -82l78 25q10 2 13 2q10 0 17.5 -8.5t7.5 -22.5q0 -22 -24 -29l-79 -24l49 -79q6 -9 6 -17q0 -9 -12 -20.5t-24 -11.5q-13 0 -22 15l-50 83l-68 -83q-12 -15 -24 -15q-10 0 -20.5 9.5t-10.5 18.5q0 10 11 21l64 79l-72 24q-19 6 -19 22
q0 13 8.5 25.5t22.5 12.5q4 0 14 -2l74 -25l9 82q3 30 33 30z" />
    <glyph glyph-name="plus" unicode="+" horiz-adv-x="560" 
d="M310 473q27 0 37 -7t10 -23l-16 -154h153q26 0 26 -36q0 -71 -37 -71h-153l-16 -152q-3 -30 -53 -30h-14q-27 0 -37 7t-10 23l16 152h-151q-26 0 -26 34q0 73 37 73h151l16 154q3 30 53 30h14z" />
    <glyph glyph-name="comma" unicode="," horiz-adv-x="198" 
d="M128 154q56 0 56 -40t-31 -98t-70 -99.5t-62 -41.5q-42 0 -42 20q0 10 8 26q0 1 10 20.5t14.5 30.5t12.5 33.5t13 48.5t8 56q3 44 64 44h19z" />
    <glyph glyph-name="hyphen" unicode="-" horiz-adv-x="320" 
d="M267 319q26 0 26 -34q0 -73 -37 -73h-204q-26 0 -26 34q0 73 37 73h204z" />
    <glyph glyph-name="period" unicode="." horiz-adv-x="198" 
d="M122 154q56 0 56 -32l-9 -92q-3 -32 -64 -32h-32q-33 0 -44.5 7.5t-11.5 24.5l9 92q3 32 64 32h32z" />
    <glyph glyph-name="slash" unicode="/" horiz-adv-x="370" 
d="M391 702q40 0 40 -15q0 -5 -5 -15l-366 -721q-15 -30 -64 -30h-24q-41 0 -41 15q0 4 6 15l365 721q15 30 65 30h24z" />
    <glyph glyph-name="zero" unicode="0" horiz-adv-x="535" 
d="M304 708q97 0 150.5 -74t53.5 -208q0 -199 -78.5 -316.5t-200.5 -117.5q-97 0 -150.5 73t-53.5 206q0 201 78 319t201 118zM292 591q-49 0 -83.5 -89t-34.5 -246q0 -147 67 -147q48 0 83 88.5t35 243.5q0 150 -67 150z" />
    <glyph glyph-name="one" unicode="1" horiz-adv-x="535" 
d="M371 704q13 0 26 -7.5t13 -16.5l-59 -563h107q26 0 26 -36q0 -81 -38 -81h-388q-26 0 -26 36q0 81 38 81h133l47 449l-138 -20q-24 0 -24 59q0 18 1.5 26.5t8 16.5t20.5 10z" />
    <glyph glyph-name="two" unicode="2" horiz-adv-x="535" 
d="M288 708q93 0 149.5 -49.5t56.5 -121.5q0 -55 -26.5 -104t-99.5 -131l-172 -185h238q26 0 26 -36q0 -81 -39 -81h-387q-11 0 -19.5 29.5t-8.5 55.5q0 12 3 18l286 310q48 52 48 105q0 35 -23 53.5t-62 18.5q-42 0 -80 -21.5t-41 -21.5q-20 0 -35 21.5t-15 42.5
q0 31 35 54.5t79 33t87 9.5z" />
    <glyph glyph-name="three" unicode="3" horiz-adv-x="535" 
d="M288 708q88 0 138 -41.5t50 -112.5q0 -58 -30 -102.5t-80 -64.5v-4q98 -39 98 -152q0 -109 -70.5 -174t-178.5 -65q-26 0 -50.5 2t-55 8t-49.5 19.5t-19 33.5q0 94 24 94q3 0 21 -10t49.5 -20t68.5 -10q50 0 80 30.5t30 84.5q0 85 -107 85h-29q-26 0 -26 36q0 81 39 81
h19q53 0 83 26.5t30 69.5q0 32 -18.5 50t-54.5 18q-45 0 -82.5 -15.5t-39.5 -15.5q-14 0 -28 25.5t-14 47.5q0 37 60 56.5t142 19.5z" />
    <glyph glyph-name="four" unicode="4" horiz-adv-x="535" 
d="M434 702q57 0 57 -32l-43 -411h39q26 0 26 -36q0 -81 -39 -81h-38l-12 -112q-3 -32 -63 -32h-28q-57 0 -57 32l12 112h-262q-11 0 -19 30t-8 56q0 15 3 18l342 437q15 19 63 19h27zM320 489l-170 -230h150l24 229z" />
    <glyph glyph-name="five" unicode="5" horiz-adv-x="535" 
d="M462 700q26 0 26 -36q0 -81 -39 -81h-202l-25 -143h26q112 0 171 -42t59 -143q0 -72 -25 -125t-67.5 -82t-90 -42.5t-99.5 -13.5q-161 0 -161 63q0 94 24 94q4 0 21.5 -10t51 -20t76.5 -10q55 0 86.5 33t31.5 91q0 90 -114 90h-109q-19 0 -26.5 6t-7.5 23q0 5 51 308
q4 21 14.5 30.5t32.5 9.5h295z" />
    <glyph glyph-name="six" unicode="6" horiz-adv-x="535" 
d="M424 704q21 0 31 -26t10 -51q0 -14 -3 -19.5t-12 -7.5q-80 -24 -143.5 -76t-94.5 -121q49 25 103 25q28 0 57 -9.5t57 -29.5t45.5 -57t17.5 -86q0 -66 -24 -117t-63 -79.5t-83.5 -43t-90.5 -14.5q-88 0 -149.5 53t-61.5 164q0 108 39 198.5t93 143t115 89.5t101.5 50.5
t55.5 13.5zM260 311q-36 0 -82 -24q-8 -52 -8 -78q0 -100 74 -100q40 0 68.5 34t28.5 86q0 39 -21 60.5t-60 21.5z" />
    <glyph glyph-name="seven" unicode="7" horiz-adv-x="535" 
d="M500 700q7 0 14 -27.5t7 -52.5q0 -16 -3 -23l-319 -579q-11 -20 -60 -20h-42q-56 0 -56 19q0 8 7 19l305 547h-261q-27 0 -27 36q0 81 39 81h396z" />
    <glyph glyph-name="eight" unicode="8" horiz-adv-x="535" 
d="M313 708q89 0 139.5 -44.5t50.5 -111.5q0 -114 -104 -167q92 -43 92 -159q0 -40 -13.5 -78.5t-41.5 -74.5t-80.5 -58.5t-122.5 -22.5q-112 0 -167 51t-55 131q0 65 31.5 121.5t89.5 79.5q-60 43 -60 121q0 86 63.5 149t177.5 63zM296 591q-31 0 -54 -20.5t-23 -57.5
q0 -30 19 -48t55 -33q64 39 64 100q0 27 -17.5 43t-43.5 16zM230 326q-68 -45 -68 -133q0 -39 21.5 -61.5t59.5 -22.5q37 0 67 29t30 74q0 44 -25 67t-85 47z" />
    <glyph glyph-name="nine" unicode="9" horiz-adv-x="535" 
d="M301 708q88 0 149.5 -53t61.5 -164q0 -108 -39 -198.5t-93 -143t-115 -89.5t-101.5 -50.5t-55.5 -13.5q-21 0 -31 26t-10 51q0 14 3 19.5t12 7.5q80 24 143.5 76t94.5 121q-49 -25 -103 -25q-28 0 -57 9.5t-57 29.5t-45.5 57t-17.5 86q0 66 24 117t63 79.5t83.5 43
t90.5 14.5zM288 591q-40 0 -68.5 -34t-28.5 -86q0 -39 21 -60.5t60 -21.5q36 0 82 24q8 52 8 78q0 100 -74 100z" />
    <glyph glyph-name="colon" unicode=":" horiz-adv-x="198" 
d="M141 525q57 0 57 -32l-10 -92q-3 -32 -63 -32h-32q-57 0 -57 32l10 92q3 32 63 32h32zM102 154q57 0 57 -32l-10 -92q-3 -32 -63 -32h-32q-56 0 -56 32l9 92q3 32 63 32h32z" />
    <glyph glyph-name="semicolon" unicode=";" horiz-adv-x="198" 
d="M147 525q57 0 57 -32l-10 -92q-3 -32 -63 -32h-32q-57 0 -57 32l10 92q2 32 63 32h32zM108 154q56 0 56 -40t-31 -98t-70 -99.5t-62 -41.5q-42 0 -42 20q0 10 8 26q0 1 10 20.5t14.5 30.5t12.5 33.5t13 48.5t8 56q3 44 64 44h19z" />
    <glyph glyph-name="less" unicode="&#x3c;" horiz-adv-x="560" 
d="M520 478q16 0 16 -25q0 -77 -39 -92l-304 -116l280 -116q25 -11 25 -47q0 -71 -27 -71q-4 0 -10 3l-401 180q-24 10 -24 33q0 56 35 70l438 179q8 2 11 2z" />
    <glyph glyph-name="equal" unicode="=" horiz-adv-x="560" 
d="M504 374q26 0 26 -34q0 -73 -37 -73h-420q-26 0 -26 34q0 73 37 73h420zM485 193q26 0 26 -34q0 -73 -37 -73h-420q-26 0 -26 34q0 73 37 73h420z" />
    <glyph glyph-name="greater" unicode="&#x3e;" horiz-adv-x="560" 
d="M82 479q4 0 10 -3l401 -180q24 -11 24 -33q0 -56 -35 -70l-438 -179q-8 -2 -11 -2q-16 0 -16 25q0 77 39 92l304 116l-280 116q-25 10 -25 47q0 71 27 71z" />
    <glyph glyph-name="question" unicode="?" horiz-adv-x="445" 
d="M257 708q94 0 146.5 -41.5t52.5 -114.5q0 -48 -19.5 -87t-48.5 -65.5t-59 -49t-55.5 -48.5t-33.5 -53q-7 -16 -19 -21.5t-37 -5.5h-23q-27 0 -36.5 6.5t-9.5 22.5q0 44 25 81t71 81q33 30 45 41.5t27 33.5t15 40q0 48 -68 48q-34 0 -74 -15.5t-41 -15.5q-19 0 -37 30
t-18 50q0 28 34.5 48t77 27.5t85.5 7.5zM181 154q56 0 56 -32l-9 -92q-3 -32 -64 -32h-32q-33 0 -44.5 7.5t-11.5 24.5l9 92q3 32 64 32h32z" />
    <glyph glyph-name="at" unicode="@" horiz-adv-x="974" 
d="M534 708q151 0 242 -89t91 -236q0 -136 -67.5 -230.5t-165.5 -94.5q-87 0 -114 64q-38 -64 -113 -64q-62 0 -98.5 47t-36.5 134q0 120 51.5 194.5t133.5 74.5q57 0 102 -45q6 23 16 31.5t36 8.5h12q47 0 47 -26q0 -1 -15.5 -145t-15.5 -155q0 -36 35 -36q52 0 90.5 72
t38.5 170q0 122 -74 196.5t-195 74.5q-162 0 -274 -120t-112 -294q0 -138 72.5 -223.5t189.5 -85.5q43 0 77 7.5t51.5 15.5t20.5 8q6 0 6 -12q0 -11 -3 -26q-5 -26 -56 -36.5t-96 -10.5q-145 0 -235.5 100.5t-90.5 262.5q0 197 130 332.5t320 135.5zM519 207q5 100 21 180
q-25 23 -54 23q-42 0 -65.5 -42t-23.5 -121q0 -88 57 -88q34 0 65 48z" />
    <glyph glyph-name="A" unicode="A" horiz-adv-x="613" 
d="M371 702q50 0 55 -21l158 -643q3 -9 3 -17q0 -23 -54 -23h-44q-49 0 -54 21l-29 122h-242l-55 -122q-10 -21 -48 -21h-40q-58 0 -58 20q0 8 6 20l291 643q9 21 59 21h52zM327 515h-4q-12 -41 -22 -64l-80 -178h154l-40 178q-6 26 -8 64z" />
    <glyph glyph-name="B" unicode="B" horiz-adv-x="593" 
d="M347 700q113 0 166 -41t53 -113q0 -58 -35 -105.5t-90 -69.5v-4q54 -11 86.5 -52.5t32.5 -94.5q0 -105 -72 -162.5t-200 -57.5h-212q-20 0 -28 7t-8 25q0 4 8 83q25 234 57 545q4 40 44 40h198zM321 570h-71l-16 -149h69q47 0 74 24.5t27 61.5q0 63 -83 63zM302 290h-82
l-17 -159h98q46 0 73.5 23.5t27.5 66.5q0 69 -100 69z" />
    <glyph glyph-name="C" unicode="C" horiz-adv-x="619" 
d="M417 708q71 0 136.5 -19.5t65.5 -48.5q0 -21 -28.5 -58.5t-46.5 -37.5q-3 0 -19.5 8t-49.5 16t-75 8q-97 0 -148 -70t-51 -208q0 -175 150 -175q50 0 96.5 13.5t74 27.5t30.5 14q12 0 12 -15q0 -42 -10 -95q-8 -40 -82 -58t-135 -18q-150 0 -222.5 69.5t-72.5 214.5
q0 91 19.5 165.5t61 136t116.5 96t178 34.5z" />
    <glyph glyph-name="D" unicode="D" horiz-adv-x="695" 
d="M373 700q140 0 213.5 -74.5t73.5 -214.5q0 -196 -96.5 -303.5t-263.5 -107.5h-224q-20 0 -28 7.5t-8 25.5q0 9 65 627q4 40 44 40h224zM360 569h-109l-47 -438h109q87 0 137.5 69.5t50.5 196.5q0 172 -141 172z" />
    <glyph glyph-name="E" unicode="E" horiz-adv-x="546" 
d="M515 700q26 0 26 -40q0 -91 -38 -91h-252l-16 -145h224q26 0 26 -40q0 -91 -38 -91h-225l-18 -162h252q26 0 26 -40q0 -91 -38 -91h-368q-20 0 -28 7t-8 25l65 628q4 40 44 40h366z" />
    <glyph glyph-name="F" unicode="F" horiz-adv-x="503" 
d="M487 700q26 0 26 -40q0 -91 -38 -91h-221l-16 -146h213q26 0 26 -40q0 -91 -38 -91h-214l-28 -262q-3 -32 -63 -32h-35q-57 0 -57 31l66 631q4 40 44 40h335z" />
    <glyph glyph-name="G" unicode="G" horiz-adv-x="672" 
d="M416 708q71 0 137 -19.5t66 -48.5q0 -21 -28.5 -58.5t-46.5 -37.5q-3 0 -19.5 8t-50 16t-75.5 8q-97 0 -148 -70t-51 -208q0 -175 150 -175q40 0 78 7l14 128h-87q-26 0 -26 40q0 91 38 91h204q20 0 28.5 -7t8.5 -24q0 -3 -5.5 -52.5t-13.5 -122.5t-12 -112
q-3 -24 -30 -41t-68.5 -24.5t-75.5 -10.5t-67 -3q-150 0 -222.5 69.5t-72.5 214.5q0 215 96 323.5t279 108.5z" />
    <glyph glyph-name="H" unicode="H" horiz-adv-x="733" 
d="M632 702q57 0 57 -31l-67 -641q-3 -32 -63 -32h-35q-57 0 -57 31l27 262h-270l-27 -261q-3 -32 -63 -32h-35q-57 0 -57 31l67 641q3 32 63 32h35q57 0 57 -31l-26 -248h270l26 247q3 32 63 32h35z" />
    <glyph glyph-name="I" unicode="I" horiz-adv-x="282" 
d="M195 702q57 0 57 -31l-67 -641q-3 -32 -63 -32h-35q-57 0 -57 31l67 641q3 32 63 32h35z" />
    <glyph glyph-name="J" unicode="J" horiz-adv-x="402" 
d="M306 702q57 0 57 -31l-50 -469q-11 -99 -68.5 -154.5t-165.5 -55.5q-96 0 -96 43q0 97 20 97q2 0 9 -2.5t21 -4.5t33 -2q45 0 67 24.5t28 79.5l47 443q3 32 63 32h35z" />
    <glyph glyph-name="K" unicode="K" horiz-adv-x="576" 
d="M545 702q55 0 55 -14q0 -9 -10 -22l-224 -296l183 -336q6 -12 6 -18q0 -18 -57 -18h-58q-50 0 -59 19l-157 304l-4 -1l-30 -290q-3 -32 -63 -32h-35q-57 0 -57 32l67 640q3 32 63 32h35q57 0 57 -32l-28 -268l4 -1l203 282q14 19 62 19h47z" />
    <glyph glyph-name="L" unicode="L" horiz-adv-x="484" 
d="M201 702q57 0 57 -31l-57 -540h223q26 0 26 -40q0 -91 -38 -91h-340q-20 0 -28 7t-8 25l67 638q3 32 63 32h35z" />
    <glyph glyph-name="M" unicode="M" horiz-adv-x="843" 
d="M756 702q57 0 57 -32l-67 -640q-3 -32 -63 -32h-29q-57 0 -57 32l43 414l-4 1l-172 -259q-16 -19 -42 -19h-29q-25 0 -38 19l-118 259l-4 -1l-43 -414q-3 -32 -63 -32h-29q-57 0 -57 32l67 640q3 32 63 32h53q49 0 61 -27l143 -313l21 32l190 281q18 27 65 27h52z" />
    <glyph glyph-name="N" unicode="N" horiz-adv-x="719" 
d="M626 702q57 0 57 -32l-67 -640q-3 -32 -63 -32h-38q-49 0 -64 27l-212 387l-13 23l-42 -405q-3 -32 -63 -32h-29q-57 0 -57 32l67 640q3 32 63 32h43q49 0 64 -27l204 -375l16 -30l42 400q3 32 63 32h29z" />
    <glyph glyph-name="O" unicode="O" horiz-adv-x="731" 
d="M403 708q139 0 212.5 -75.5t73.5 -218.5q0 -204 -93 -313t-268 -109q-139 0 -213 75t-74 217q0 83 20 156.5t61.5 134.5t113.5 97t167 36zM389 576q-88 0 -138.5 -72.5t-50.5 -205.5q0 -175 142 -175q87 0 138 72.5t51 204.5q0 176 -142 176z" />
    <glyph glyph-name="P" unicode="P" horiz-adv-x="570" 
d="M361 700q29 0 55 -3.5t57 -15t53 -30.5t37 -53.5t15 -80.5q0 -64 -20.5 -113t-48.5 -75t-66 -42t-65.5 -20.5t-52.5 -4.5h-113l-24 -232q-3 -32 -63 -32h-34q-57 0 -57 32l66 630q4 40 44 40h217zM341 569h-96l-19 -175h96q39 0 68 22.5t29 79.5q0 40 -23 56.5t-55 16.5z
" />
    <glyph glyph-name="Q" unicode="Q" horiz-adv-x="731" 
d="M404 706q139 0 212 -74.5t73 -217.5q0 -141 -51.5 -240t-141.5 -143l-1 -4l142 -54q17 -7 17 -27q0 -108 -29 -108q-4 0 -62.5 24t-178 74t-192.5 80q-149 62 -151 270q0 83 20.5 156t62.5 133.5t114 95.5t166 35zM390 576q-88 0 -139 -73t-51 -206q0 -178 142 -178
q88 0 138.5 74t50.5 210q0 173 -141 173z" />
    <glyph glyph-name="R" unicode="R" horiz-adv-x="610" 
d="M340 700q231 0 231 -163q0 -66 -36.5 -114t-98.5 -70v-4q17 -7 34.5 -33.5t27.5 -58.5l65 -220q3 -12 3 -19q-3 -20 -62 -20h-41q-49 0 -56 21l-59 195q-12 33 -30 46.5t-64 13.5h-39l-26 -244q-3 -32 -63 -32h-34q-57 0 -57 32l66 630q4 40 44 40h195zM334 569h-88
l-17 -162h95q33 0 59.5 28t26.5 66q0 32 -20 50t-56 18z" />
    <glyph glyph-name="S" unicode="S" horiz-adv-x="500" 
d="M311 708q73 0 122 -21t49 -47q0 -20 -23.5 -54.5t-39.5 -34.5q-3 0 -19 6q-46 19 -91 19q-99 0 -99 -65q0 -22 15 -40t31.5 -27.5t49.5 -25.5q37 -18 57.5 -30.5t49 -37.5t42 -60.5t13.5 -81.5q0 -58 -23 -102t-60.5 -67.5t-79 -35t-85.5 -11.5q-28 0 -59 4t-62.5 13
t-52 25t-20.5 36q0 111 24 111q7 0 29 -15q66 -43 125 -43q42 0 72.5 17t30.5 58q0 20 -7.5 36t-25 30t-32 22.5t-41.5 22.5q-36 19 -55 31.5t-46 36.5t-39 55t-12 72q0 69 39.5 117t96.5 67.5t126 19.5z" />
    <glyph glyph-name="T" unicode="T" horiz-adv-x="549" 
d="M546 700q26 0 26 -40q0 -91 -38 -91h-160l-57 -539q-3 -32 -63 -32h-35q-57 0 -57 31l57 540h-159q-26 0 -26 40q0 91 38 91h474z" />
    <glyph glyph-name="U" unicode="U" horiz-adv-x="712" 
d="M622 702q56 0 56 -32l-45 -436q-12 -115 -95.5 -178.5t-220.5 -63.5q-127 0 -196.5 54.5t-69.5 154.5q0 11 47 469q3 32 64 32h34q56 0 56 -32q-45 -431 -45 -441q0 -47 34 -76.5t90 -29.5q60 0 102.5 34t47.5 87l44 426q3 32 64 32h33z" />
    <glyph glyph-name="V" unicode="V" horiz-adv-x="617" 
d="M584 702q57 0 57 -24q0 -8 -4 -16l-283 -643q-9 -21 -58 -21h-52q-49 0 -54 21q-151 653 -151 654q0 29 63 29h33q49 0 56 -29l90 -432l7 -36h4l16 37l183 431q12 29 62 29h31z" />
    <glyph glyph-name="W" unicode="W" horiz-adv-x="882" 
d="M860 702q60 0 60 -25q0 -4 -234 -658q-8 -21 -57 -21h-73q-50 0 -53 21l-43 327l-12 87l-32 -90l-113 -324q-9 -21 -57 -21h-72q-52 0 -53 21l-92 650q0 33 65 33h26q60 0 64 -31l41 -322q3 -24 8.5 -72t7.5 -72l49 144l117 332q8 21 57 21h38q50 0 53 -21l44 -332
l19 -151l49 151l112 322q10 31 70 31h11z" />
    <glyph glyph-name="X" unicode="X" horiz-adv-x="611" 
d="M560 702q59 0 59 -20q0 -10 -10 -24l-220 -295l166 -321q5 -12 5 -19q0 -25 -63 -25h-39q-49 0 -58 19l-111 215l-160 -215q-15 -19 -63 -19h-38q-59 0 -59 20q0 10 11 24l239 323l-152 293q-6 12 -6 20q0 11 10.5 16.5t22 6.5t31.5 1h41q48 0 58 -19l95 -186l139 186
q15 19 63 19h39z" />
    <glyph glyph-name="Y" unicode="Y" horiz-adv-x="559" 
d="M504 702h36q61 0 61 -20q0 -9 -11 -25l-233 -324l-32 -303q-3 -32 -63 -32h-34q-57 0 -57 32l32 306l-165 321q-6 12 -6 21q0 11 10.5 16.5t22 6.5t31.5 1h43q49 0 58 -19l100 -214l145 214q13 19 62 19z" />
    <glyph glyph-name="Z" unicode="Z" horiz-adv-x="616" 
d="M572 700q13 0 22.5 -31t9.5 -56q0 -12 -3 -15l-382 -467h305q26 0 26 -40q0 -91 -38 -91h-479q-13 0 -22.5 31t-9.5 56q0 12 3 15l381 467h-278q-26 0 -26 40q0 91 38 91h453z" />
    <glyph glyph-name="bracketleft" unicode="[" horiz-adv-x="291" 
d="M280 768q26 0 26 -30q0 -65 -37 -65h-51l-75 -716h52q26 0 26 -30q0 -65 -37 -65h-126q-20 0 -28 7t-8 25l87 834q4 40 44 40h127z" />
    <glyph glyph-name="backslash" unicode="\" horiz-adv-x="361" 
d="M106 702q51 0 56 -30l162 -664q1 -3 1 -8q0 -22 -45 -22h-24q-50 0 -56 30l-161 664q-2 6 -2 9q0 21 46 21h23z" />
    <glyph glyph-name="bracketright" unicode="]" horiz-adv-x="291" 
d="M234 768q20 0 28 -7t8 -25l-87 -834q-4 -40 -44 -40h-127q-26 0 -26 30q0 65 37 65h51l75 716h-52q-26 0 -26 30q0 65 37 65h126z" />
    <glyph glyph-name="asciicircum" unicode="^" horiz-adv-x="450" 
d="M260 686q30 0 39 -30l96 -308q3 -6 3 -15q-2 -15 -34 -15h-21q-40 0 -49 30l-64 207l-108 -207q-16 -30 -54 -30h-21q-30 0 -30 14q0 7 5 16l162 308q15 30 45 30h31z" />
    <glyph glyph-name="underscore" unicode="_" horiz-adv-x="534" 
d="M531 -36q26 0 26 -34q0 -73 -37 -73h-515q-26 0 -26 34q0 73 37 73h515z" />
    <glyph glyph-name="grave" unicode="`" horiz-adv-x="320" 
d="M122 734q69 0 82 -27q10 -21 19.5 -41t15 -31t10 -21t6.5 -15t2 -8q0 -16 -33 -16q-51 0 -72 25q-23 29 -54 65q-38 46 -38 53q0 16 62 16z" />
    <glyph glyph-name="a" unicode="a" horiz-adv-x="545" 
d="M524 115q8 0 8 -11q0 -19 -7 -60q-4 -25 -31 -38.5t-57 -13.5q-95 0 -115 76q-22 -34 -58 -55.5t-78 -21.5q-74 0 -118 56.5t-44 160.5q0 144 62 233t160 89q65 0 121 -53q9 30 19 38t46 9h12q58 0 58 -25l-18 -174q-19 -174 -19 -184q0 -32 30 -32q8 0 18 3t11 3z
M336 335q1 7 4.5 24t5.5 27q-31 27 -66 27q-51 0 -78.5 -50.5t-27.5 -145.5q0 -105 68 -105q41 0 78 58q2 18 5.5 56.5t6 68.5t4.5 40z" />
    <glyph glyph-name="b" unicode="b" horiz-adv-x="569" 
d="M191 754q28 0 42.5 -9t14.5 -22l-27 -249q49 57 121 57q83 0 132.5 -56.5t49.5 -160.5q0 -144 -67.5 -233t-174.5 -89q-67 0 -121 52q-9 -29 -19.5 -37t-45.5 -9h-12q-58 0 -58 25l74 699q3 32 63 32h28zM286 410q-40 0 -77 -56l-14 -131l-12 -88q30 -26 65 -26
q60 0 93 50.5t33 145.5q0 54 -21 79.5t-67 25.5z" />
    <glyph glyph-name="c" unicode="c" horiz-adv-x="485" 
d="M313 531q54 0 105.5 -15.5t52.5 -53.5q0 -16 -20 -46t-35 -30q-4 0 -16 7q-39 21 -82 21q-132 0 -132 -195q0 -56 22.5 -83t70.5 -27q60 0 124 32q16 8 21 8q7 0 7 -14q0 -50 -8 -77q-12 -34 -62.5 -50t-100.5 -16q-227 0 -227 212q0 69 14.5 125.5t46 103t87.5 72.5
t132 26z" />
    <glyph glyph-name="d" unicode="d" horiz-adv-x="565" 
d="M536 115q8 0 8 -11q0 -19 -7 -60q-4 -25 -31 -38.5t-57 -13.5q-95 0 -115 77q-48 -77 -136 -77q-79 0 -125.5 56.5t-46.5 160.5q0 144 64.5 233t167.5 89q57 0 107 -41l25 232q3 32 63 32h28q28 0 42.5 -9t14.5 -22q-61 -571 -61 -581q0 -33 30 -33q8 0 18 3t11 3z
M333 172l22 218q-30 24 -63 24q-55 0 -85.5 -50.5t-30.5 -145.5q0 -105 78 -105q42 0 79 59z" />
    <glyph glyph-name="e" unicode="e" horiz-adv-x="539" 
d="M502 386q0 -92 -65 -137.5t-150 -45.5q-55 0 -104 7q4 -58 30 -79.5t75 -21.5q35 0 71 11t58.5 22t25.5 11q8 0 8 -14q0 -1 -1 -17t-3 -34.5t-4 -25.5q-11 -37 -65 -53.5t-109 -16.5q-119 0 -177.5 58t-58.5 162q0 163 77 241t198 78q57 0 98 -15t60.5 -39t27.5 -46
t8 -45zM190 302h48q64 0 92 19.5t28 45.5q0 47 -60 47q-83 0 -108 -112z" />
    <glyph glyph-name="f" unicode="f" horiz-adv-x="325" 
d="M263 760q96 0 96 -46q0 -16 -12.5 -46t-24.5 -30q-2 0 -12 2.5t-21 2.5q-36 0 -40 -43l-9 -77h60q10 0 13 -4.5t3 -15.5q0 -33 -15.5 -65t-42.5 -32h-30l-39 -376q-3 -32 -63 -32h-28q-28 0 -42.5 9t-14.5 22l39 377h-20q-26 0 -26 36q0 81 38 81h21l7 75
q7 77 49.5 119.5t113.5 42.5z" />
    <glyph glyph-name="g" unicode="g" horiz-adv-x="546" 
d="M461 525q58 0 58 -25l-41 -407q-16 -154 -77.5 -229.5t-177.5 -75.5q-78 0 -131.5 20t-53.5 51q0 87 20 87q3 0 21 -10t49 -20.5t65 -10.5q57 0 90.5 33t39.5 95l3 30q-50 -59 -122 -59q-79 0 -125.5 54.5t-46.5 154.5q0 142 64.5 230t167.5 88q65 0 120 -52
q9 29 19.5 37t45.5 9h12zM351 300q9 76 12 88q-32 26 -65 26q-55 0 -85.5 -49.5t-30.5 -142.5q0 -97 78 -97q41 0 78 58z" />
    <glyph glyph-name="h" unicode="h" horiz-adv-x="565" 
d="M186 754q28 0 42.5 -9t14.5 -22l-27 -260q27 29 67 48.5t80 19.5q132 0 132 -127q0 -12 -12.5 -133t-12.5 -129q0 -33 30 -33q8 0 18 3t11 3q8 0 8 -11q0 -19 -7 -60q-4 -25 -31 -38.5t-57 -13.5q-121 0 -121 127q0 13 11.5 123.5t11.5 116.5q0 50 -54 50q-46 0 -86 -57
l-34 -322q-3 -32 -63 -32h-28q-28 0 -42.5 9t-14.5 22l73 693q3 32 63 32h28z" />
    <glyph glyph-name="i" unicode="i" horiz-adv-x="265" 
d="M182 754q28 0 42.5 -9t14.5 -22l-9 -82q-3 -32 -63 -32h-28q-28 0 -42.5 9t-14.5 22l9 82q3 32 63 32h28zM158 525q28 0 42.5 -9t14.5 -22q-37 -342 -37 -352q0 -33 30 -33q8 0 18 3t11 3q8 0 8 -11q0 -19 -7 -60q-4 -25 -31 -38.5t-57 -13.5q-121 0 -121 127l38 374
q3 32 63 32h28z" />
    <glyph glyph-name="j" unicode="j" horiz-adv-x="276" 
d="M196 754q28 0 42.5 -9t14.5 -22l-9 -82q-3 -32 -63 -32h-28q-28 0 -42.5 9t-14.5 22l9 82q3 32 63 32h28zM172 525q28 0 42.5 -9t14.5 -22l-57 -544q-8 -77 -50 -119.5t-113 -42.5q-78 0 -78 39q0 83 18 83q1 0 12 -2.5t23 -2.5q36 0 40 43l57 545q3 32 63 32h28z" />
    <glyph glyph-name="k" unicode="k" horiz-adv-x="521" 
d="M189 754q57 0 57 -32l-42 -396l4 -1l140 181q15 19 63 19h37q55 0 55 -14q0 -7 -12 -21l-159 -198l136 -258q5 -10 5 -18q0 -18 -58 -18h-42q-49 0 -58 19l-115 230l-4 -1l-23 -216q-3 -32 -63 -32h-28q-57 0 -57 32l73 692q3 32 63 32h28z" />
    <glyph glyph-name="l" unicode="l" horiz-adv-x="297" 
d="M196 755q47 0 47 -27q-61 -582 -61 -586q0 -33 30 -33q8 0 18 3t11 3q8 0 8 -11q0 -19 -7 -60q-4 -25 -31 -38.5t-57 -13.5q-121 0 -121 127l63 606q4 30 52 30h48z" />
    <glyph glyph-name="m" unicode="m" horiz-adv-x="848" 
d="M819 115q8 0 8 -11q0 -19 -7 -60q-4 -25 -31 -38.5t-57 -13.5q-121 0 -121 127q0 13 11.5 123.5t11.5 116.5q0 50 -54 50q-47 0 -86 -57l-31 -322q-3 -32 -63 -32h-28q-28 0 -42.5 9t-14.5 22q33 320 33 330q0 50 -54 50q-47 0 -86 -58l-32 -321q-3 -32 -63 -32h-28
q-28 0 -42.5 9t-14.5 22q38 371 38 399q0 13 -1 31.5t-1 24.5q0 16 33 26t83 10q29 0 33 -65q27 31 69 53.5t85 22.5q104 0 126 -77q25 31 70 54t90 23q132 0 132 -127q0 -12 -12.5 -133t-12.5 -129q0 -33 30 -33q8 0 18 3t11 3z" />
    <glyph glyph-name="n" unicode="n" 
d="M529 115q8 0 8 -11q0 -19 -7 -60q-4 -25 -31 -38.5t-57 -13.5q-121 0 -121 127q0 13 11.5 123.5t11.5 116.5q0 50 -54 50q-49 0 -88 -61l-32 -318q-3 -32 -63 -32h-28q-28 0 -42.5 9t-14.5 22q38 371 38 399q0 13 -1 31.5t-1 24.5q0 16 33 26t83 10q31 0 33 -67
q26 32 69 55t87 23q132 0 132 -127q0 -12 -12.5 -133t-12.5 -129q0 -33 30 -33q8 0 18 3t11 3z" />
    <glyph glyph-name="o" unicode="o" horiz-adv-x="569" 
d="M307 531q107 0 162 -56t55 -164q0 -152 -73 -235.5t-201 -83.5q-107 0 -162 56t-55 163q0 65 14 119.5t44 101t85.5 73t130.5 26.5zM295 414q-53 0 -82.5 -50.5t-29.5 -145.5q0 -109 79 -109q52 0 81.5 50.5t29.5 144.5q0 110 -78 110z" />
    <glyph glyph-name="p" unicode="p" horiz-adv-x="573" 
d="M348 531q81 0 129 -56.5t48 -160.5q0 -144 -66 -233t-171 -89q-56 0 -107 40l-22 -206q-3 -32 -63 -32h-28q-28 0 -42.5 9t-14.5 22l56 532q4 39 4 71q0 13 -1 31.5t-1 24.5q0 16 33 26t83 10q32 0 32 -60q50 71 131 71zM254 109q58 0 89.5 50.5t31.5 145.5
q0 105 -83 105q-43 0 -80 -61q-3 -34 -21 -217q28 -23 63 -23z" />
    <glyph glyph-name="q" unicode="q" horiz-adv-x="566" 
d="M466 525q58 0 58 -25l-71 -674q-3 -32 -63 -32h-28q-28 0 -42.5 9t-14.5 22l23 224q-49 -57 -120 -57q-81 0 -129 56.5t-48 160.5q0 144 66 233t171 89q67 0 121 -52q9 29 19.5 37t45.5 9h12zM355 300l12 88q-30 26 -65 26q-58 0 -89.5 -50.5t-31.5 -145.5
q0 -105 83 -105q40 0 77 56z" />
    <glyph glyph-name="r" unicode="r" horiz-adv-x="366" 
d="M328 531q47 0 47 -46q0 -25 -14.5 -59t-25.5 -34q-3 0 -15 4.5t-26 4.5q-49 0 -87 -51l-32 -320q-3 -32 -63 -32h-28q-28 0 -42.5 9t-14.5 22l34 328q4 39 4 71q0 13 -1 31.5t-1 24.5q0 16 33 26t83 10q29 0 33 -63q51 74 116 74z" />
    <glyph glyph-name="s" unicode="s" horiz-adv-x="413" 
d="M241 531q52 0 98.5 -14.5t46.5 -46.5q0 -16 -19.5 -45.5t-33.5 -29.5q-7 0 -20 6q-40 14 -65 14q-27 0 -40.5 -12t-13.5 -32q0 -12 10 -22.5t19.5 -16t31.5 -16.5q26 -12 41 -21t35.5 -26.5t30.5 -43.5t10 -60q0 -81 -56.5 -127t-144.5 -46q-19 0 -40 2t-48 8t-44 19
t-17 32q0 90 22 90q3 0 19 -9q50 -25 91 -25q66 0 66 44q0 15 -10.5 27t-21 18t-33.5 17q-26 13 -40 21.5t-34 26t-29.5 42t-9.5 57.5q0 79 55.5 124t143.5 45z" />
    <glyph glyph-name="t" unicode="t" horiz-adv-x="342" 
d="M198 650q28 0 42.5 -9t14.5 -22l-10 -96h59q10 0 13 -4.5t3 -15.5q0 -33 -15.5 -65t-42.5 -32h-29q-28 -261 -28 -264q0 -33 30 -33q11 0 24 3t14 3q8 0 8 -11q0 -19 -7 -60q-4 -25 -31 -38.5t-57 -13.5q-130 0 -130 133l29 281h-20q-26 0 -26 36q0 81 38 81h20l10 95
q3 32 63 32h28z" />
    <glyph glyph-name="u" unicode="u" 
d="M523 115q8 0 8 -11q0 -19 -7 -60q-4 -25 -31 -38.5t-57 -13.5q-97 0 -116 80q-29 -34 -72 -57t-88 -23q-68 0 -100 31t-32 96q0 16 9 109.5t19 179.5l9 85q3 32 63 32h28q28 0 42.5 -9t14.5 -22q-34 -318 -34 -331q0 -49 54 -49q47 0 86 54l34 325q3 32 63 32h28
q28 0 42.5 -9t14.5 -22q-37 -342 -37 -352q0 -33 30 -33q8 0 18 3t11 3z" />
    <glyph glyph-name="v" unicode="v" horiz-adv-x="485" 
d="M436 525q57 0 57 -23q0 -8 -4 -17l-208 -466q-9 -21 -58 -21h-32q-49 0 -54 21l-110 466q-2 12 -2 15q0 25 63 25h33q49 0 54 -21l40 -185q3 -13 8 -58.5t7 -62.5h4q25 83 41 121l78 185q9 21 58 21h25z" />
    <glyph glyph-name="w" unicode="w" horiz-adv-x="747" 
d="M685 525q59 0 59 -24q0 -7 -3 -17l-167 -465q-8 -21 -57 -21h-49q-48 0 -53 21l-42 281l-98 -281q-7 -21 -57 -21h-49q-50 0 -53 21q-78 469 -78 480q3 26 65 26h24q50 0 53 -21l47 -308l108 308q7 21 57 21h24q50 0 53 -21l42 -308l113 308q8 21 61 21z" />
    <glyph glyph-name="x" unicode="x" horiz-adv-x="485" 
d="M434 525q60 0 60 -19q0 -9 -12 -24l-169 -216l124 -224q7 -13 7 -22q0 -14 -15.5 -18t-47.5 -4h-32q-49 0 -59 19l-68 131l-97 -131q-14 -19 -63 -19h-30q-60 0 -60 20q0 8 12 23l175 224l-119 216q-8 13 -8 24q0 20 64 20h32q50 0 59 -19l63 -123l92 123q14 19 63 19h29
z" />
    <glyph glyph-name="y" unicode="y" horiz-adv-x="481" 
d="M437 525q58 0 58 -21q0 -7 -5 -19l-300 -670q-9 -21 -58 -21h-17q-58 0 -58 20q0 8 6 19l81 167q-117 494 -117 499q0 26 64 26h32q49 0 54 -21l39 -185q4 -19 16 -121h4q27 89 40 121l79 185q9 21 58 21h24z" />
    <glyph glyph-name="z" unicode="z" horiz-adv-x="489" 
d="M448 523q9 0 16.5 -25.5t7.5 -47.5q0 -15 -4 -19l-261 -314h207q26 0 26 -36q0 -81 -38 -81h-371q-9 0 -16.5 25.5t-7.5 47.5q0 15 4 19l261 314h-188q-26 0 -26 36q0 81 38 81h352z" />
    <glyph glyph-name="braceleft" unicode="{" horiz-adv-x="274" 
d="M279 768q27 0 27 -29q0 -64 -36 -65h-1q-24 0 -27 -36l-17 -170q-12 -110 -84 -153q53 -32 53 -120q0 -22 -10 -109t-10 -104q0 -26 20 -26h1q25 0 25 -29q0 -65 -36 -65h-39q-40 0 -64 27.5t-24 71.5q0 17 10.5 101t10.5 120q0 53 -36 81l-13.5 10.5t-8.5 11.5t-4 18
q0 28 7.5 42.5t28.5 25.5q27 14 40.5 38.5t18.5 74.5l18 168q5 52 35 84t76 32h39z" />
    <glyph glyph-name="bar" unicode="|" horiz-adv-x="250" 
d="M133 768q50 0 50 -30v-846q0 -30 -50 -30h-15q-50 0 -50 30v846q0 30 50 30h15z" />
    <glyph glyph-name="braceright" unicode="}" horiz-adv-x="274" 
d="M134 768q40 0 64 -27.5t24 -71.5q0 -17 -10.5 -101t-10.5 -120q0 -52 31 -77q2 -2 8.5 -6.5t9 -7t6.5 -7.5t5.5 -10.5t1.5 -12.5q0 -29 -7.5 -43.5t-28.5 -24.5q-27 -14 -40.5 -39.5t-18.5 -73.5l-18 -168q-5 -52 -35 -84t-76 -32h-39q-27 0 -27 29q0 65 37 65h1
q22 0 26 36l17 170q11 111 84 153q-53 32 -53 120q0 22 10 109t10 104q0 26 -19 26h-1q-26 0 -26 29q0 65 36 65h39z" />
    <glyph glyph-name="asciitilde" unicode="~" horiz-adv-x="547" 
d="M252 329q21 0 84.5 -14t81.5 -15q23 0 39 16q20 22 48 15l13 -3q38 -9 24 -41q-13 -29 -47.5 -49.5t-81.5 -20.5q-21 0 -85 14t-82 15q-22 0 -39 -16q-20 -22 -48 -15l-13 3q-19 5 -24.5 18t1.5 23q13 29 47 49.5t82 20.5z" />
    <glyph glyph-name="uni00A0" unicode="&#xa0;" horiz-adv-x="240" 
 />
    <glyph glyph-name="exclamdown" unicode="&#xa1;" horiz-adv-x="294" 
d="M206 525q57 0 57 -32l-10 -92q-3 -32 -63 -32h-32q-57 0 -57 32l10 92q3 32 63 32h32zM172 301q30 0 39 -7t9 -25l-44 -416q-3 -32 -63 -32h-43q-58 0 -58 29q0 11 15.5 80t42.5 182.5t37 156.5q4 17 14.5 24.5t39.5 7.5h11z" />
    <glyph glyph-name="cent" unicode="&#xa2;" horiz-adv-x="486" 
d="M335 591q18 0 18 -20q0 -7 -5 -42q120 -12 120 -67q0 -16 -20 -46t-35 -30q-3 0 -26 12t-51 15l-32 -303q28 3 54.5 13t42 18t19.5 8q8 0 8 -14q0 -51 -8 -77q-16 -53 -128 -64l-5 -49q-3 -20 -22 -20h-17q-11 0 -14.5 4.5t-3.5 15.5q0 8 5 48q-197 10 -197 211
q0 139 60 229t193 97l5 41q3 20 22 20h17zM279 408q-90 -27 -90 -189q0 -90 58 -106z" />
    <glyph glyph-name="sterling" unicode="&#xa3;" horiz-adv-x="491" 
d="M375 708q105 0 105 -41q0 -26 -17.5 -52.5t-30.5 -26.5q-1 0 -10 2t-23.5 4t-29.5 2q-46 0 -70.5 -21t-29.5 -68l-9 -79h120q10 0 13 -4.5t3 -15.5q0 -33 -15.5 -65t-42.5 -32h-90l-6 -60q-9 -91 -55 -134h223q25 0 25 -33q0 -12 -2 -34q-3 -50 -36 -50h-363q-21 0 -28 9
t-7 31q0 6 2 19t15.5 26t28.5 22t28.5 27t15.5 41l14 136h-35q-26 0 -26 36q0 81 38 81h35l8 74q22 206 252 206z" />
    <glyph glyph-name="currency" unicode="&#xa4;" horiz-adv-x="534" 
d="M440 514q12 0 23 -12l27 -30q10 -12 10 -22q0 -14 -15 -28l-32 -29q18 -37 18 -81q0 -67 -38 -124l22 -24q9 -10 9 -22q0 -15 -14 -28l-33 -30q-13 -12 -27 -12q-12 0 -23 12l-21 23q-50 -29 -109 -29q-56 0 -102 27l-23 -21q-14 -12 -27 -12t-23 12l-27 30
q-10 12 -10 22q0 14 15 28l24 22q-17 37 -17 80q0 73 41 129l-24 27q-9 11 -9 22q0 15 14 28l33 30q13 12 27 12q13 0 23 -12l26 -28q50 26 103 26q54 0 100 -27l32 29q13 12 27 12zM269 386q-44 0 -76 -32t-32 -76q0 -37 25 -61.5t63 -24.5q43 0 75 32t32 76q0 37 -25 61.5
t-62 24.5z" />
    <glyph glyph-name="yen" unicode="&#xa5;" horiz-adv-x="559" 
d="M601 682q0 -9 -11 -25l-179 -249h83q26 0 26 -24q0 -51 -37 -51h-126l-7 -63h129q26 0 26 -24q0 -51 -37 -51h-126l-17 -165q-3 -32 -63 -32h-34q-57 0 -57 32l17 165h-136q-26 0 -26 24q0 51 37 51h133l7 63h-136q-26 0 -26 24q0 51 37 51h88l-128 249q-6 12 -6 21
q0 11 10.5 16.5t22 6.5t31.5 1h43q49 0 58 -19l100 -214l145 214q13 19 62 19h36q61 0 61 -20z" />
    <glyph glyph-name="brokenbar" unicode="&#xa6;" horiz-adv-x="250" 
d="M180 770q47 0 47 -32q0 -4 -6 -60.5t-15 -139.5t-13 -126q-3 -32 -54 -32h-15q-47 0 -47 27q0 10 35 331q3 32 53 32h15zM126 250q26 0 36 -7.5t10 -24.5q0 -5 -6 -61t-15 -139t-13 -126q-3 -32 -53 -32h-15q-27 0 -37 7.5t-10 24.5q0 5 6 61t15 139t13 126q3 32 54 32
h15z" />
    <glyph glyph-name="section" unicode="&#xa7;" horiz-adv-x="429" 
d="M262 708q53 0 97.5 -14.5t44.5 -46.5q0 -16 -19.5 -45.5t-33.5 -29.5q-2 0 -26.5 10t-54.5 10q-57 0 -57 -34q0 -16 18.5 -27.5t44.5 -21.5t52.5 -24t45 -43t18.5 -70q0 -76 -50 -130q29 -31 29 -76q0 -79 -55.5 -126t-145.5 -47q-16 0 -33.5 1.5t-41.5 6.5t-39.5 17
t-15.5 29q0 90 22 90q2 0 16 -7t37 -14t47 -7q57 0 57 34q0 16 -18.5 27.5t-44.5 21.5t-52.5 24t-45 43t-18.5 70q0 77 50 130q-29 27 -29 75q0 80 55 127t146 47zM187 409q-14 -21 -14 -50q0 -26 18 -40t54 -27q14 24 14 49q0 26 -18 40.5t-54 27.5z" />
    <glyph glyph-name="dieresis" unicode="&#xa8;" horiz-adv-x="320" 
d="M77 702q57 0 57 -32l-7 -60q-5 -32 -63 -32q-57 0 -57 32l7 60q3 32 63 32zM257 702q57 0 57 -32l-7 -60q-5 -32 -63 -32q-57 0 -57 32l7 60q3 32 63 32z" />
    <glyph glyph-name="copyright" unicode="&#xa9;" horiz-adv-x="739" 
d="M368 708q148 0 253 -105t105 -253t-105 -253t-253 -105t-253 105t-105 253t105 253t253 105zM368 644q-122 0 -208 -86t-86 -208t86 -208t208 -86t208 86t86 208t-86 208t-208 86zM383 552q41 0 79 -11.5t38 -27.5q0 -13 -13 -33t-23 -20q-2 0 -11.5 4.5t-28.5 9t-42 4.5
q-97 0 -97 -125q0 -128 96 -128q23 0 44 5.5t33 11.5t14 6q12 0 22.5 -19.5t10.5 -29.5q0 -23 -41 -35t-83 -12q-94 0 -139 49t-45 152q0 199 186 199z" />
    <glyph glyph-name="ordfeminine" unicode="&#xaa;" horiz-adv-x="319" 
d="M272 502q3 0 3 -6q0 -24 -4 -36q-6 -19 -43 -19q-47 0 -56 37q-26 -38 -68 -38q-37 0 -58.5 28t-21.5 80q0 71 30.5 115t79.5 44q31 0 60 -26q4 15 9 19t23 4h6q29 0 29 -12l-9 -86q-10 -87 -10 -92q0 -15 15 -15q4 0 9 1zM132 500q21 0 39 29q6 70 12 107q-15 13 -32 13
q-53 0 -53 -97q0 -52 34 -52z" />
    <glyph glyph-name="guillemotleft" unicode="&#xab;" horiz-adv-x="471" 
d="M219 469q15 0 34.5 -15.5t19.5 -31.5q0 -10 -12 -24l-124 -140l95 -140q6 -10 6 -19q0 -15 -22.5 -34t-41.5 -19q-14 0 -25 15l-111 153q-12 15 -12 33q0 33 21 55l143 153q14 14 29 14zM418 469q15 0 34.5 -15.5t19.5 -31.5q0 -10 -12 -24l-124 -140l95 -140
q6 -10 6 -19q0 -15 -22.5 -34t-41.5 -19q-15 0 -25 15l-111 153q-12 16 -12 33q0 33 21 55l143 153q14 14 29 14z" />
    <glyph glyph-name="logicalnot" unicode="&#xac;" horiz-adv-x="560" 
d="M504 349q21 0 28.5 -9.5t7.5 -30.5l-22 -205q-3 -32 -43 -32h-20q-21 0 -29 7.5t-8 24.5l15 138h-370q-26 0 -26 34q0 73 37 73h430z" />
    <glyph glyph-name="uni00AD" unicode="&#xad;" horiz-adv-x="320" 
d="M267 319q26 0 26 -34q0 -73 -37 -73h-204q-26 0 -26 34q0 73 37 73h204z" />
    <glyph glyph-name="registered" unicode="&#xae;" horiz-adv-x="739" 
d="M368 708q148 0 253 -105t105 -253t-105 -253t-253 -105t-253 105t-105 253t105 253t253 105zM368 644q-122 0 -208 -86t-86 -208t86 -208t208 -86t208 86t86 208t-86 208t-208 86zM372 548q139 0 139 -105q0 -63 -66 -89v-4q25 -11 41 -49l49 -123q3 -7 3 -11
q0 -11 -33 -11h-23q-28 0 -33 12l-44 109q-9 18 -20 25.5t-36 7.5h-22v-136q0 -18 -34 -18h-18q-34 0 -34 18v352q0 22 22 22h109zM376 475h-49v-91h53q17 0 30 14.5t13 33.5q0 20 -12.5 31.5t-34.5 11.5z" />
    <glyph glyph-name="macron" unicode="&#xaf;" horiz-adv-x="320" 
d="M271 692q26 0 26 -30q0 -65 -37 -65h-216q-26 0 -26 30q0 65 37 65h216z" />
    <glyph glyph-name="degree" unicode="&#xb0;" horiz-adv-x="345" 
d="M183 708q51 0 85.5 -34.5t34.5 -84.5q0 -61 -41 -103.5t-106 -42.5q-52 0 -86 34.5t-34 84.5q0 58 41 102t106 44zM177 646q-35 0 -55.5 -23.5t-20.5 -55.5q0 -26 17.5 -44t43.5 -18q34 0 54.5 23t20.5 56q0 26 -17.5 44t-42.5 18z" />
    <glyph glyph-name="plusminus" unicode="&#xb1;" horiz-adv-x="560" 
d="M317 604q27 0 37 -7t10 -23l-16 -154h153q26 0 26 -36q0 -71 -37 -71h-153l-16 -152q-3 -30 -53 -30h-14q-27 0 -37 7t-10 23l16 152h-151q-26 0 -26 34q0 73 37 73h151l16 154q3 30 53 30h14zM468 107q26 0 26 -34q0 -73 -37 -73h-417q-26 0 -26 34q0 73 37 73h417z" />
    <glyph glyph-name="uni00B2" unicode="&#xb2;" horiz-adv-x="320" 
d="M175 708q55 0 87.5 -29t32.5 -71q0 -30 -13 -56.5t-48 -67.5l-113 -122h139q16 0 16 -21q0 -47 -23 -47h-227q-6 0 -11 17.5t-5 32.5q0 6 2 10l167 182q28 30 28 61q0 42 -50 42q-24 0 -46.5 -12.5t-23.5 -12.5q-12 0 -21 12.5t-9 24.5q0 27 38 42t80 15z" />
    <glyph glyph-name="uni00B3" unicode="&#xb3;" horiz-adv-x="320" 
d="M169 708q51 0 80.5 -24t29.5 -66q0 -34 -18 -59.5t-47 -37.5v-5q58 -22 58 -87q0 -64 -41.5 -101.5t-104.5 -37.5q-102 0 -102 36q0 55 14 55q2 0 12.5 -6t29 -11.5t40.5 -5.5q29 0 46.5 18t17.5 49q0 50 -63 50h-17q-15 0 -15 21q0 47 23 47h11q31 0 48.5 15.5
t17.5 41.5q0 39 -42 39q-27 0 -49 -9t-23 -9q-8 0 -16 15t-8 28q0 21 35 32.5t83 11.5z" />
    <glyph glyph-name="acute" unicode="&#xb4;" horiz-adv-x="320" 
d="M212 734q58 0 58 -13q0 -7 -4.5 -12.5t-35.5 -34.5q-41 -40 -76 -74q-25 -25 -78 -25q-29 0 -29 13q0 3 2 7.5t8.5 14t14 20.5t22.5 32.5t30 44.5q18 27 88 27z" />
    <glyph glyph-name="uni00B5" unicode="&#xb5;" horiz-adv-x="566" 
d="M546 115q8 0 8 -11q0 -19 -7 -60q-4 -25 -31 -38.5t-57 -13.5q-97 0 -116 80q-29 -34 -72 -57t-88 -23l-18 -166q-3 -32 -63 -32h-28q-28 0 -42.5 9t-14.5 22l71 668q3 32 63 32h28q28 0 42.5 -9t14.5 -22q-34 -318 -34 -331q0 -49 54 -49q47 0 86 54l34 325q3 32 63 32
h28q28 0 42.5 -9t14.5 -22q-37 -342 -37 -352q0 -33 30 -33q8 0 18 3t11 3z" />
    <glyph glyph-name="paragraph" unicode="&#xb6;" horiz-adv-x="515" 
d="M526 700q19 0 18 -20l-2 -22q-1 -20 -22 -20h-36l-83 -789q-3 -22 -22 -22h-22q-18 0 -18 22l83 789h-78l-83 -789q-3 -22 -22 -22h-22q-18 0 -18 22l42 398q-79 9 -129.5 66t-50.5 137q0 114 74 182t178 68h213z" />
    <glyph glyph-name="periodcentered" unicode="&#xb7;" horiz-adv-x="267" 
d="M148 429q27 0 45 -18t18 -45q0 -32 -22 -54.5t-56 -22.5q-27 0 -45 17.5t-18 43.5q0 31 21 55t57 24z" />
    <glyph glyph-name="cedilla" unicode="&#xb8;" horiz-adv-x="320" 
d="M207 -35q28 -5 49 -24t21 -51q0 -50 -34 -76t-95 -26q-14 0 -28.5 1.5t-33 6.5t-30 16.5t-11.5 27.5q0 48 14 48q2 0 32 -13.5t57 -13.5q23 0 25 17q0 12 -24 24t-24 24q0 8 34 84h66z" />
    <glyph glyph-name="uni00B9" unicode="&#xb9;" horiz-adv-x="217" 
d="M184 704q7 0 14.5 -4.5t7.5 -9.5l-40 -378q-2 -19 -37 -19h-16q-33 0 -33 19l33 312l-80 -13q-15 0 -15 36q0 28 18 31z" />
    <glyph glyph-name="ordmasculine" unicode="&#xba;" horiz-adv-x="337" 
d="M182 708q107 0 107 -108q0 -76 -36 -117.5t-100 -41.5q-108 0 -108 107q0 67 33.5 113.5t103.5 46.5zM175 650q-55 0 -55 -98q0 -53 40 -53q54 0 54 97q0 54 -39 54z" />
    <glyph glyph-name="guillemotright" unicode="&#xbb;" horiz-adv-x="471" 
d="M125 469q15 0 25 -15l111 -153q12 -17 12 -33q0 -33 -21 -55l-143 -153q-14 -14 -29 -14t-34.5 15.5t-19.5 31.5q0 10 12 24l124 140l-95 140q-6 11 -6 19q0 15 22.5 34t41.5 19zM324 469q14 0 25 -15l111 -153q12 -15 12 -33q0 -33 -21 -55l-143 -153q-14 -14 -29 -14
t-34.5 15.5t-19.5 31.5q0 10 12 24l124 140l-95 140q-6 11 -6 19q0 15 22.5 34t41.5 19z" />
    <glyph glyph-name="onequarter" unicode="&#xbc;" horiz-adv-x="671" 
d="M212 704q7 0 14.5 -4.5t7.5 -9.5l-40 -378q-2 -19 -37 -19h-16q-33 0 -33 19l33 312l-80 -13q-15 0 -15 36q0 28 18 31zM575 700q20 0 20 -10q0 -6 -8 -16l-427 -648q-18 -26 -47 -26h-17q-20 0 -20 9q0 7 7 17l427 648q17 26 48 26h17zM580 410q33 0 33 -19l-25 -240h23
q15 0 15 -21q0 -48 -22 -48h-23l-7 -65q-2 -19 -37 -19h-16q-33 0 -33 19l7 65h-154q-6 0 -10.5 18t-4.5 33q0 9 1 10l200 256q9 11 37 11h16zM523 291h-4l-105 -140h88l9 85z" />
    <glyph glyph-name="onehalf" unicode="&#xbd;" horiz-adv-x="746" 
d="M212 704q7 0 14.5 -4.5t7.5 -9.5l-40 -378q-2 -19 -37 -19h-16q-33 0 -33 19l33 312l-80 -13q-15 0 -15 36q0 28 18 31zM575 700q20 0 20 -10q0 -6 -8 -16l-427 -648q-18 -26 -47 -26h-17q-20 0 -20 9q0 7 7 17l427 648q17 26 48 26h17zM569 414q55 0 87.5 -29t32.5 -71
q0 -32 -15.5 -61t-59.5 -78l-99 -107h139q16 0 16 -21q0 -47 -23 -47h-227q-6 0 -11 17.5t-5 32.5q0 6 2 10l167 182q28 30 28 61q0 42 -50 42q-24 0 -46.5 -12.5t-23.5 -12.5q-12 0 -21 12.5t-9 24.5q0 27 38 42t80 15z" />
    <glyph glyph-name="threequarters" unicode="&#xbe;" horiz-adv-x="738" 
d="M190 708q51 0 80.5 -24t29.5 -66q0 -34 -18 -59.5t-47 -37.5v-5q58 -22 58 -87q0 -64 -41.5 -101.5t-104.5 -37.5q-102 0 -102 36q0 55 14 55q2 0 12.5 -6t29 -11.5t40.5 -5.5q29 0 46.5 18t17.5 49q0 50 -63 50h-17q-15 0 -15 21q0 47 23 47h11q31 0 48.5 15.5
t17.5 41.5q0 39 -42 39q-27 0 -49 -9t-23 -9q-8 0 -16 15t-8 28q0 21 35 32.5t83 11.5zM615 700q20 0 20 -10q0 -6 -8 -16l-427 -648q-18 -26 -47 -26h-17q-20 0 -20 9q0 7 7 17l427 648q17 26 48 26h17zM620 410q33 0 33 -19l-25 -240h23q15 0 15 -21q0 -48 -22 -48h-23
l-7 -65q-2 -19 -37 -19h-16q-33 0 -33 19l7 65h-154q-6 0 -10.5 18t-4.5 33q0 9 1 10l200 256q9 11 37 11h16zM563 291h-4l-105 -140h88l9 85z" />
    <glyph glyph-name="questiondown" unicode="&#xbf;" horiz-adv-x="425" 
d="M323 525q33 0 44.5 -7.5t11.5 -24.5l-9 -92q-3 -32 -64 -32h-32q-56 0 -56 32l9 92q3 32 64 32h32zM294 301q27 0 36.5 -6.5t9.5 -22.5q0 -71 -83 -150q-8 -8 -28.5 -26.5t-29 -27.5t-21 -23.5t-17.5 -26t-5 -23.5q0 -48 69 -48q36 0 77 17l42 16q12 0 12 -14
q0 -57 -11 -96q-16 -55 -148 -55q-93 0 -145.5 41.5t-52.5 114.5q0 46 19.5 85t48.5 65.5t59 49.5t55.5 49.5t33.5 53.5q7 16 19 21.5t37 5.5h23z" />
    <glyph glyph-name="Agrave" unicode="&#xc0;" horiz-adv-x="613" 
d="M275 911q69 0 82 -27q10 -21 19.5 -41t15 -31t10 -21t6.5 -15t2 -8q0 -16 -33 -16q-51 0 -72 25q-23 29 -54 65q-38 46 -38 53q0 16 62 16zM371 702q50 0 55 -21l158 -643q3 -9 3 -17q0 -23 -54 -23h-44q-49 0 -54 21l-29 122h-242l-55 -122q-10 -21 -48 -21h-40
q-58 0 -58 20q0 8 6 20l291 643q9 21 59 21h52zM327 515h-4q-12 -41 -22 -64l-80 -178h154l-40 178q-6 26 -8 64z" />
    <glyph glyph-name="Aacute" unicode="&#xc1;" horiz-adv-x="613" 
d="M453 911q58 0 58 -13q0 -7 -4.5 -12.5t-35.5 -34.5q-41 -40 -76 -74q-25 -25 -78 -25q-29 0 -29 13q0 3 2 7.5t8.5 14t14 20.5t22.5 32.5t30 44.5q18 27 88 27zM371 702q50 0 55 -21l158 -643q3 -9 3 -17q0 -23 -54 -23h-44q-49 0 -54 21l-29 122h-242l-55 -122
q-10 -21 -48 -21h-40q-58 0 -58 20q0 8 6 20l291 643q9 21 59 21h52zM327 515h-4q-12 -41 -22 -64l-80 -178h154l-40 178q-6 26 -8 64z" />
    <glyph glyph-name="Acircumflex" unicode="&#xc2;" horiz-adv-x="613" 
d="M366 895q48 0 59 -19l54 -102q3 -8 3 -12q0 -13 -19 -13h-22q-49 0 -64 24l-25 40l-31 -39q-19 -25 -69 -25h-24q-19 0 -19 10q0 7 7 15l76 102q14 19 63 19h11zM371 702q50 0 55 -21l158 -643q3 -9 3 -17q0 -23 -54 -23h-44q-49 0 -54 21l-29 122h-242l-55 -122
q-10 -21 -48 -21h-40q-58 0 -58 20q0 8 6 20l291 643q9 21 59 21h52zM327 515h-4q-12 -41 -22 -64l-80 -178h154l-40 178q-6 26 -8 64z" />
    <glyph glyph-name="Atilde" unicode="&#xc3;" horiz-adv-x="613" 
d="M280 871q18 0 72 -14t69 -15q19 0 33 16q17 22 40 15l11 -3q17 -5 21.5 -18t-1.5 -23q-11 -29 -39.5 -49.5t-69.5 -20.5q-18 0 -71.5 14t-68.5 15q-19 0 -33 -16q-18 -22 -41 -15l-11 3q-31 9 -20 41q11 29 40 49.5t69 20.5zM371 702q50 0 55 -21l158 -643q3 -9 3 -17
q0 -23 -54 -23h-44q-49 0 -54 21l-29 122h-242l-55 -122q-10 -21 -48 -21h-40q-58 0 -58 20q0 8 6 20l291 643q9 21 59 21h52zM327 515h-4q-12 -41 -22 -64l-80 -178h154l-40 178q-6 26 -8 64z" />
    <glyph glyph-name="Adieresis" unicode="&#xc4;" horiz-adv-x="613" 
d="M275 879q57 0 57 -32l-7 -60q-5 -32 -63 -32q-57 0 -57 32l7 60q3 32 63 32zM455 879q57 0 57 -32l-7 -60q-5 -32 -63 -32q-57 0 -57 32l7 60q3 32 63 32zM371 702q50 0 55 -21l158 -643q3 -9 3 -17q0 -23 -54 -23h-44q-49 0 -54 21l-29 122h-242l-55 -122
q-10 -21 -48 -21h-40q-58 0 -58 20q0 8 6 20l291 643q9 21 59 21h52zM327 515h-4q-12 -41 -22 -64l-80 -178h154l-40 178q-6 26 -8 64z" />
    <glyph glyph-name="Aring" unicode="&#xc5;" horiz-adv-x="613" 
d="M369 926q39 0 64 -25.5t25 -63.5q0 -47 -29.5 -78.5t-80.5 -31.5q-40 0 -65 25.5t-25 63.5q0 47 30.5 78.5t80.5 31.5zM362 862q-16 0 -28 -12.5t-12 -28.5q0 -14 9.5 -23t23.5 -9q16 0 28 11.5t12 27.5q0 14 -9.5 24t-23.5 10zM371 702q50 0 55 -21l158 -643q3 -9 3 -17
q0 -23 -54 -23h-44q-49 0 -54 21l-29 122h-242l-55 -122q-10 -21 -48 -21h-40q-58 0 -58 20q0 8 6 20l291 643q9 21 59 21h52zM327 515h-4q-12 -41 -22 -64l-80 -178h154l-40 178q-6 26 -8 64z" />
    <glyph glyph-name="AE" unicode="&#xc6;" horiz-adv-x="915" 
d="M872 700q26 0 26 -40q0 -91 -38 -91h-320l12 -145h264q26 0 26 -40q0 -91 -38 -91h-239l14 -162h234q26 0 26 -40q0 -91 -38 -91h-334q-16 0 -23 7t-9 23l-9 111h-243l-73 -122q-14 -21 -48 -21h-37q-60 0 -60 22q0 7 8 18l387 635q17 27 46 27h466zM410 537h-4l-36 -82
l-108 -182h154l-14 181z" />
    <glyph glyph-name="Ccedilla" unicode="&#xc7;" horiz-adv-x="619" 
d="M400 576q-97 0 -148 -70t-51 -208q0 -175 150 -175q50 0 96.5 13.5t74 27.5t30.5 14q12 0 12 -15q0 -42 -10 -95q-8 -39 -78.5 -57t-134.5 -19l-11 -27q28 -5 49 -24t21 -51q0 -50 -34 -76t-95 -26q-14 0 -28.5 1.5t-33 6.5t-30 16.5t-11.5 27.5q0 48 14 48q2 0 32 -13.5
t57 -13.5q23 0 25 17q0 12 -24 24t-24 24q0 7 27 69q-119 14 -176 82.5t-57 198.5q0 91 19.5 165.5t61 136t116.5 96t178 34.5q71 0 136.5 -19.5t65.5 -48.5q0 -21 -28.5 -58.5t-46.5 -37.5q-3 0 -19.5 8t-49.5 16t-75 8z" />
    <glyph glyph-name="Egrave" unicode="&#xc8;" horiz-adv-x="546" 
d="M258 911q69 0 82 -27q10 -21 19.5 -41t15 -31t10 -21t6.5 -15t2 -8q0 -16 -33 -16q-51 0 -72 25q-23 29 -54 65q-38 46 -38 53q0 16 62 16zM515 700q26 0 26 -40q0 -91 -38 -91h-252l-16 -145h224q26 0 26 -40q0 -91 -38 -91h-225l-18 -162h252q26 0 26 -40
q0 -91 -38 -91h-368q-20 0 -28 7t-8 25l65 628q4 40 44 40h366z" />
    <glyph glyph-name="Eacute" unicode="&#xc9;" horiz-adv-x="546" 
d="M436 911q58 0 58 -13q0 -7 -4.5 -12.5t-35.5 -34.5q-41 -40 -76 -74q-25 -25 -78 -25q-29 0 -29 13q0 3 2 7.5t8.5 14t14 20.5t22.5 32.5t30 44.5q18 27 88 27zM515 700q26 0 26 -40q0 -91 -38 -91h-252l-16 -145h224q26 0 26 -40q0 -91 -38 -91h-225l-18 -162h252
q26 0 26 -40q0 -91 -38 -91h-368q-20 0 -28 7t-8 25l65 628q4 40 44 40h366z" />
    <glyph glyph-name="Ecircumflex" unicode="&#xca;" horiz-adv-x="546" 
d="M349 895q48 0 59 -19l54 -102q3 -8 3 -12q0 -13 -19 -13h-22q-49 0 -64 24l-25 40l-31 -39q-19 -25 -69 -25h-24q-19 0 -19 10q0 7 7 15l76 102q14 19 63 19h11zM515 700q26 0 26 -40q0 -91 -38 -91h-252l-16 -145h224q26 0 26 -40q0 -91 -38 -91h-225l-18 -162h252
q26 0 26 -40q0 -91 -38 -91h-368q-20 0 -28 7t-8 25l65 628q4 40 44 40h366z" />
    <glyph glyph-name="Edieresis" unicode="&#xcb;" horiz-adv-x="546" 
d="M258 879q57 0 57 -32l-7 -60q-5 -32 -63 -32q-57 0 -57 32l7 60q3 32 63 32zM438 879q57 0 57 -32l-7 -60q-5 -32 -63 -32q-57 0 -57 32l7 60q3 32 63 32zM515 700q26 0 26 -40q0 -91 -38 -91h-252l-16 -145h224q26 0 26 -40q0 -91 -38 -91h-225l-18 -162h252
q26 0 26 -40q0 -91 -38 -91h-368q-20 0 -28 7t-8 25l65 628q4 40 44 40h366z" />
    <glyph glyph-name="Igrave" unicode="&#xcc;" horiz-adv-x="282" 
d="M111 911q69 0 82 -27q10 -21 19.5 -41t15 -31t10 -21t6.5 -15t2 -8q0 -16 -33 -16q-51 0 -72 25q-23 29 -54 65q-38 46 -38 53q0 16 62 16zM195 702q57 0 57 -31l-67 -641q-3 -32 -63 -32h-35q-57 0 -57 31l67 641q3 32 63 32h35z" />
    <glyph glyph-name="Iacute" unicode="&#xcd;" horiz-adv-x="282" 
d="M289 911q58 0 58 -13q0 -7 -4.5 -12.5t-35.5 -34.5q-41 -40 -76 -74q-25 -25 -78 -25q-29 0 -29 13q0 3 2 7.5t8.5 14t14 20.5t22.5 32.5t30 44.5q18 27 88 27zM195 702q57 0 57 -31l-67 -641q-3 -32 -63 -32h-35q-57 0 -57 31l67 641q3 32 63 32h35z" />
    <glyph glyph-name="Icircumflex" unicode="&#xce;" horiz-adv-x="282" 
d="M202 895q48 0 59 -19l54 -102q3 -8 3 -12q0 -13 -19 -13h-22q-49 0 -64 24l-25 40l-31 -39q-19 -25 -69 -25h-24q-19 0 -19 10q0 7 7 15l76 102q14 19 63 19h11zM195 702q57 0 57 -31l-67 -641q-3 -32 -63 -32h-35q-57 0 -57 31l67 641q3 32 63 32h35z" />
    <glyph glyph-name="Idieresis" unicode="&#xcf;" horiz-adv-x="282" 
d="M111 879q57 0 57 -32l-7 -60q-5 -32 -63 -32q-57 0 -57 32l7 60q3 32 63 32zM291 879q57 0 57 -32l-7 -60q-5 -32 -63 -32q-57 0 -57 32l7 60q3 32 63 32zM195 702q57 0 57 -31l-67 -641q-3 -32 -63 -32h-35q-57 0 -57 31l67 641q3 32 63 32h35z" />
    <glyph glyph-name="Eth" unicode="&#xd0;" horiz-adv-x="696" 
d="M373 700q140 0 213.5 -74.5t73.5 -214.5q0 -196 -96.5 -303.5t-263.5 -107.5h-224q-20 0 -28 7.5t-8 25.5q0 3 26 257h-31q-26 0 -26 40q0 91 38 91h33l25 239q4 40 44 40h224zM313 131q87 0 137.5 69.5t50.5 196.5q0 172 -141 172h-109l-16 -148h57q26 0 26 -40
q0 -91 -38 -91h-59l-17 -159h109z" />
    <glyph glyph-name="Ntilde" unicode="&#xd1;" horiz-adv-x="719" 
d="M331 871q18 0 72 -14t69 -15q19 0 33 16q17 22 40 15l11 -3q17 -5 21.5 -18t-1.5 -23q-11 -29 -39.5 -49.5t-69.5 -20.5q-18 0 -71.5 14t-68.5 15q-19 0 -33 -16q-18 -22 -41 -15l-11 3q-31 9 -20 41q11 29 40 49.5t69 20.5zM626 702q57 0 57 -32l-67 -640
q-3 -32 -63 -32h-38q-49 0 -64 27l-212 387l-13 23l-42 -405q-3 -32 -63 -32h-29q-57 0 -57 32l67 640q3 32 63 32h43q49 0 64 -27l204 -375l16 -30l42 400q3 32 63 32h29z" />
    <glyph glyph-name="Ograve" unicode="&#xd2;" horiz-adv-x="731" 
d="M326 911q69 0 82 -27q10 -21 19.5 -41t15 -31t10 -21t6.5 -15t2 -8q0 -16 -33 -16q-51 0 -72 25q-23 29 -54 65q-26 31 -32 39.5t-6 13.5q0 16 62 16zM403 708q139 0 212.5 -75.5t73.5 -218.5q0 -204 -93 -313t-268 -109q-139 0 -213 75t-74 217q0 83 20 156.5
t61.5 134.5t113.5 97t167 36zM389 576q-88 0 -138.5 -72.5t-50.5 -205.5q0 -175 142 -175q87 0 138 72.5t51 204.5q0 176 -142 176z" />
    <glyph glyph-name="Oacute" unicode="&#xd3;" horiz-adv-x="731" 
d="M504 911q58 0 58 -13q0 -7 -4.5 -12.5t-35.5 -34.5q-41 -40 -76 -74q-25 -25 -78 -25q-29 0 -29 13q0 3 2 7.5t8.5 14t14 20.5t22.5 32.5t30 44.5q18 27 88 27zM403 708q139 0 212.5 -75.5t73.5 -218.5q0 -204 -93 -313t-268 -109q-139 0 -213 75t-74 217q0 83 20 156.5
t61.5 134.5t113.5 97t167 36zM389 576q-88 0 -138.5 -72.5t-50.5 -205.5q0 -175 142 -175q87 0 138 72.5t51 204.5q0 176 -142 176z" />
    <glyph glyph-name="Ocircumflex" unicode="&#xd4;" horiz-adv-x="731" 
d="M417 895q48 0 59 -19l54 -102q3 -8 3 -12q0 -13 -19 -13h-22q-49 0 -64 24l-25 40l-31 -39q-19 -25 -69 -25h-24q-19 0 -19 10q0 7 7 15l76 102q14 19 63 19h11zM403 708q139 0 212.5 -75.5t73.5 -218.5q0 -204 -93 -313t-268 -109q-139 0 -213 75t-74 217q0 83 20 156.5
t61.5 134.5t113.5 97t167 36zM389 576q-88 0 -138.5 -72.5t-50.5 -205.5q0 -175 142 -175q87 0 138 72.5t51 204.5q0 176 -142 176z" />
    <glyph glyph-name="Otilde" unicode="&#xd5;" horiz-adv-x="731" 
d="M331 871q18 0 72 -14t69 -15q19 0 33 16q17 22 40 15l11 -3q17 -5 21.5 -18t-1.5 -23q-11 -29 -39.5 -49.5t-69.5 -20.5q-18 0 -71.5 14t-68.5 15q-19 0 -33 -16q-18 -22 -41 -15l-11 3q-31 9 -20 41q11 29 40 49.5t69 20.5zM403 708q139 0 212.5 -75.5t73.5 -218.5
q0 -204 -93 -313t-268 -109q-139 0 -213 75t-74 217q0 83 20 156.5t61.5 134.5t113.5 97t167 36zM389 576q-88 0 -138.5 -72.5t-50.5 -205.5q0 -175 142 -175q87 0 138 72.5t51 204.5q0 176 -142 176z" />
    <glyph glyph-name="Odieresis" unicode="&#xd6;" horiz-adv-x="731" 
d="M326 879q57 0 57 -32l-7 -60q-5 -32 -63 -32q-57 0 -57 32l7 60q3 32 63 32zM506 879q57 0 57 -32l-7 -60q-5 -32 -63 -32q-57 0 -57 32l7 60q3 32 63 32zM403 708q139 0 212.5 -75.5t73.5 -218.5q0 -204 -93 -313t-268 -109q-139 0 -213 75t-74 217q0 83 20 156.5
t61.5 134.5t113.5 97t167 36zM389 576q-88 0 -138.5 -72.5t-50.5 -205.5q0 -175 142 -175q87 0 138 72.5t51 204.5q0 176 -142 176z" />
    <glyph glyph-name="multiply" unicode="&#xd7;" horiz-adv-x="560" 
d="M462 474q15 0 35 -23l5 -5q19 -22 19 -36q0 -12 -11 -20l-163 -148l132 -147q7 -9 7 -16q0 -16 -27 -40l-5 -5q-26 -23 -41 -23q-11 0 -17 9l-132 147l-163 -147q-11 -9 -19 -9q-15 0 -35 23l-5 5q-19 22 -19 36q0 10 11 20l162 147l-131 148q-7 7 -7 15q0 17 27 41l5 5
q26 23 41 23q9 0 17 -9l131 -147l164 147q9 9 19 9z" />
    <glyph glyph-name="Oslash" unicode="&#xd8;" horiz-adv-x="731" 
d="M403 708q103 0 169 -42l40 46q10 12 22 12q10 0 20 -10l16 -14q12 -10 12 -22q0 -10 -10 -20l-40 -45q57 -74 57 -199q0 -204 -93 -313t-268 -109q-123 0 -195 58l-44 -50q-11 -12 -22 -12q-10 0 -20 10l-16 14q-12 11 -12 22q0 10 10 20l51 58q-39 68 -39 172
q0 83 20 156.5t61.5 134.5t113.5 97t167 36zM389 576q-88 0 -138.5 -72.5t-50.5 -205.5q0 -26 3 -48l268 303q-32 23 -82 23zM519 485l-283 -318q36 -44 106 -44q87 0 138 72.5t51 204.5q0 49 -12 85z" />
    <glyph glyph-name="Ugrave" unicode="&#xd9;" horiz-adv-x="712" 
d="M326 911q69 0 82 -27q10 -21 19.5 -41t15 -31t10 -21t6.5 -15t2 -8q0 -16 -33 -16q-51 0 -72 25q-23 29 -54 65q-26 31 -32 39.5t-6 13.5q0 16 62 16zM622 702q56 0 56 -32l-45 -436q-12 -115 -95.5 -178.5t-220.5 -63.5q-127 0 -196.5 54.5t-69.5 154.5q0 11 47 469
q3 32 64 32h34q56 0 56 -32q-45 -431 -45 -441q0 -47 34 -76.5t90 -29.5q60 0 102.5 34t47.5 87l44 426q3 32 64 32h33z" />
    <glyph glyph-name="Uacute" unicode="&#xda;" horiz-adv-x="712" 
d="M504 911q58 0 58 -13q0 -7 -4.5 -12.5t-35.5 -34.5q-41 -40 -76 -74q-25 -25 -78 -25q-29 0 -29 13q0 3 2 7.5t8.5 14t14 20.5t22.5 32.5t30 44.5q18 27 88 27zM622 702q56 0 56 -32l-45 -436q-12 -115 -95.5 -178.5t-220.5 -63.5q-127 0 -196.5 54.5t-69.5 154.5
q0 11 47 469q3 32 64 32h34q56 0 56 -32q-45 -431 -45 -441q0 -47 34 -76.5t90 -29.5q60 0 102.5 34t47.5 87l44 426q3 32 64 32h33z" />
    <glyph glyph-name="Ucircumflex" unicode="&#xdb;" horiz-adv-x="712" 
d="M417 895q48 0 59 -19l54 -102q3 -8 3 -12q0 -13 -19 -13h-22q-49 0 -64 24l-25 40l-31 -39q-19 -25 -69 -25h-24q-19 0 -19 10q0 7 7 15l76 102q14 19 63 19h11zM622 702q56 0 56 -32l-45 -436q-12 -115 -95.5 -178.5t-220.5 -63.5q-127 0 -196.5 54.5t-69.5 154.5
q0 11 47 469q3 32 64 32h34q56 0 56 -32q-45 -431 -45 -441q0 -47 34 -76.5t90 -29.5q60 0 102.5 34t47.5 87l44 426q3 32 64 32h33z" />
    <glyph glyph-name="Udieresis" unicode="&#xdc;" horiz-adv-x="712" 
d="M326 879q57 0 57 -32l-7 -60q-5 -32 -63 -32q-57 0 -57 32l7 60q3 32 63 32zM506 879q57 0 57 -32l-7 -60q-5 -32 -63 -32q-57 0 -57 32l7 60q3 32 63 32zM622 702q56 0 56 -32l-45 -436q-12 -115 -95.5 -178.5t-220.5 -63.5q-127 0 -196.5 54.5t-69.5 154.5q0 11 47 469
q3 32 64 32h34q56 0 56 -32q-45 -431 -45 -441q0 -47 34 -76.5t90 -29.5q60 0 102.5 34t47.5 87l44 426q3 32 64 32h33z" />
    <glyph glyph-name="Yacute" unicode="&#xdd;" horiz-adv-x="559" 
d="M421 911q58 0 58 -13q0 -7 -4.5 -12.5t-35.5 -34.5q-41 -40 -76 -74q-25 -25 -78 -25q-29 0 -29 13q0 3 2 7.5t8.5 14t14 20.5t22.5 32.5t30 44.5q18 27 88 27zM504 702h36q61 0 61 -20q0 -9 -11 -25l-233 -324l-32 -303q-3 -32 -63 -32h-34q-57 0 -57 32l32 306
l-165 321q-6 12 -6 21q0 11 10.5 16.5t22 6.5t31.5 1h43q49 0 58 -19l100 -214l145 214q13 19 62 19z" />
    <glyph glyph-name="Thorn" unicode="&#xde;" horiz-adv-x="567" 
d="M198 702q57 0 57 -32l-8 -77h103q29 0 55 -3.5t57 -15t53 -31t37 -54.5t15 -81q0 -63 -21.5 -111.5t-51 -74.5t-67.5 -42t-64.5 -20.5t-48.5 -4.5h-113l-13 -125q-3 -32 -63 -32h-34q-57 0 -57 32l67 640q3 32 63 32h34zM329 462h-96l-18 -175h96q38 0 67.5 22.5
t29.5 79.5q0 40 -23.5 56.5t-55.5 16.5z" />
    <glyph glyph-name="germandbls" unicode="&#xdf;" horiz-adv-x="554" 
d="M324 708q90 0 146.5 -42.5t56.5 -115.5q0 -56 -28.5 -99.5t-80.5 -63.5v-4q100 -40 100 -144q0 -103 -70.5 -171t-186.5 -68h-23q-26 0 -26 36q0 81 38 81h15q46 0 74.5 30t28.5 78q0 40 -24 62.5t-71 23.5h-3q-26 0 -26 36q0 81 38 81h2q37 0 63.5 26.5t26.5 63.5
q0 26 -15.5 45.5t-49.5 19.5q-36 0 -60 -22.5t-28 -58.5l-50 -472q-3 -32 -63 -32h-28q-57 0 -57 32l49 460q10 99 80.5 158.5t171.5 59.5z" />
    <glyph glyph-name="agrave" unicode="&#xe0;" horiz-adv-x="545" 
d="M327 575q-51 0 -72 25q-23 29 -54 65q-38 46 -38 53q0 16 62 16q69 0 82 -27q10 -21 19.5 -41t15 -31t10 -21t6.5 -15t2 -8q0 -16 -33 -16zM524 115q8 0 8 -11q0 -19 -7 -60q-4 -25 -31 -38.5t-57 -13.5q-95 0 -115 76q-22 -34 -58 -55.5t-78 -21.5q-74 0 -118 56.5
t-44 160.5q0 144 62 233t160 89q65 0 121 -53q9 30 19 38t46 9h12q58 0 58 -25l-18 -174q-19 -174 -19 -184q0 -32 30 -32q8 0 18 3t11 3zM336 335q1 7 4.5 24t5.5 27q-31 27 -66 27q-51 0 -78.5 -50.5t-27.5 -145.5q0 -105 68 -105q41 0 78 58q2 18 5.5 56.5t6 68.5t4.5 40
z" />
    <glyph glyph-name="aacute" unicode="&#xe1;" horiz-adv-x="545" 
d="M267 575q-29 0 -29 13q0 3 2 7.5t8.5 14t14 20.5t22.5 32.5t30 44.5q18 27 88 27q58 0 58 -13q0 -7 -4.5 -12.5t-35.5 -34.5q-41 -40 -76 -74q-25 -25 -78 -25zM524 115q8 0 8 -11q0 -19 -7 -60q-4 -25 -31 -38.5t-57 -13.5q-95 0 -115 76q-22 -34 -58 -55.5t-78 -21.5
q-74 0 -118 56.5t-44 160.5q0 144 62 233t160 89q65 0 121 -53q9 30 19 38t46 9h12q58 0 58 -25l-18 -174q-19 -174 -19 -184q0 -32 30 -32q8 0 18 3t11 3zM336 335q1 7 4.5 24t5.5 27q-31 27 -66 27q-51 0 -78.5 -50.5t-27.5 -145.5q0 -105 68 -105q41 0 78 58
q2 18 5.5 56.5t6 68.5t4.5 40z" />
    <glyph glyph-name="acircumflex" unicode="&#xe2;" horiz-adv-x="545" 
d="M178 572q-19 0 -19 10q0 7 7 15l76 102q14 19 63 19h11q48 0 59 -19l54 -102q3 -8 3 -12q0 -13 -19 -13h-22q-49 0 -64 24l-25 40l-31 -39q-19 -25 -69 -25h-24zM524 115q8 0 8 -11q0 -19 -7 -60q-4 -25 -31 -38.5t-57 -13.5q-95 0 -115 76q-22 -34 -58 -55.5t-78 -21.5
q-74 0 -118 56.5t-44 160.5q0 144 62 233t160 89q65 0 121 -53q9 30 19 38t46 9h12q58 0 58 -25l-18 -174q-19 -174 -19 -184q0 -32 30 -32q8 0 18 3t11 3zM336 335q1 7 4.5 24t5.5 27q-31 27 -66 27q-51 0 -78.5 -50.5t-27.5 -145.5q0 -105 68 -105q41 0 78 58
q2 18 5.5 56.5t6 68.5t4.5 40z" />
    <glyph glyph-name="atilde" unicode="&#xe3;" horiz-adv-x="545" 
d="M141 583q-31 9 -20 41q11 29 40 49.5t69 20.5q18 0 72 -14t69 -15q19 0 33 16q17 22 40 15l11 -3q17 -5 21.5 -18t-1.5 -23q-11 -29 -39.5 -49.5t-69.5 -20.5q-18 0 -71.5 14t-68.5 15q-19 0 -33 -16q-18 -22 -41 -15zM524 115q8 0 8 -11q0 -19 -7 -60q-4 -25 -31 -38.5
t-57 -13.5q-95 0 -115 76q-22 -34 -58 -55.5t-78 -21.5q-74 0 -118 56.5t-44 160.5q0 144 62 233t160 89q65 0 121 -53q9 30 19 38t46 9h12q58 0 58 -25l-18 -174q-19 -174 -19 -184q0 -32 30 -32q8 0 18 3t11 3zM336 335q1 7 4.5 24t5.5 27q-31 27 -66 27
q-51 0 -78.5 -50.5t-27.5 -145.5q0 -105 68 -105q41 0 78 58q2 18 5.5 56.5t6 68.5t4.5 40z" />
    <glyph glyph-name="adieresis" unicode="&#xe4;" horiz-adv-x="545" 
d="M212 578q-57 0 -57 32l7 60q3 32 63 32q57 0 57 -32l-7 -60q-5 -32 -63 -32zM392 578q-57 0 -57 32l7 60q3 32 63 32q57 0 57 -32l-7 -60q-5 -32 -63 -32zM524 115q8 0 8 -11q0 -19 -7 -60q-4 -25 -31 -38.5t-57 -13.5q-95 0 -115 76q-22 -34 -58 -55.5t-78 -21.5
q-74 0 -118 56.5t-44 160.5q0 144 62 233t160 89q65 0 121 -53q9 30 19 38t46 9h12q58 0 58 -25l-18 -174q-19 -174 -19 -184q0 -32 30 -32q8 0 18 3t11 3zM336 335q1 7 4.5 24t5.5 27q-31 27 -66 27q-51 0 -78.5 -50.5t-27.5 -145.5q0 -105 68 -105q41 0 78 58
q2 18 5.5 56.5t6 68.5t4.5 40z" />
    <glyph glyph-name="aring" unicode="&#xe5;" horiz-adv-x="545" 
d="M298 550q-40 0 -65 25t-25 64q0 47 30.5 78.5t80.5 31.5q39 0 64 -25.5t25 -63.5q0 -47 -29.5 -78.5t-80.5 -31.5zM312 685q-16 0 -28 -12.5t-12 -28.5q0 -14 9.5 -23t23.5 -9q16 0 28 11.5t12 27.5q0 14 -9.5 24t-23.5 10zM524 115q8 0 8 -11q0 -19 -7 -60
q-4 -25 -31 -38.5t-57 -13.5q-95 0 -115 76q-22 -34 -58 -55.5t-78 -21.5q-74 0 -118 56.5t-44 160.5q0 144 62 233t160 89q65 0 121 -53q9 30 19 38t46 9h12q58 0 58 -25l-18 -174q-19 -174 -19 -184q0 -32 30 -32q8 0 18 3t11 3zM336 335q1 7 4.5 24t5.5 27q-31 27 -66 27
q-51 0 -78.5 -50.5t-27.5 -145.5q0 -105 68 -105q41 0 78 58q2 18 5.5 56.5t6 68.5t4.5 40z" />
    <glyph glyph-name="ae" unicode="&#xe6;" horiz-adv-x="829" 
d="M787 386q0 -92 -65 -137.5t-150 -45.5q-55 0 -104 7q4 -58 30 -79.5t75 -21.5q35 0 71 11t58.5 22t25.5 11q8 0 8 -14q0 -1 -1 -17t-3 -34.5t-4 -25.5q-11 -37 -65 -53.5t-109 -16.5q-126 0 -186 66q-31 -25 -81.5 -45.5t-107.5 -20.5q-75 0 -114.5 34.5t-39.5 95.5
q0 29 6 53.5t25 51.5t51 45.5t88.5 30.5t132.5 13q9 42 24 73q-20 25 -87 25q-27 0 -57 -8t-50.5 -16t-24.5 -8q-14 0 -28.5 28.5t-14.5 47.5q0 27 61.5 50t136.5 23q106 0 158 -37q61 37 147 37q57 0 98 -15t60.5 -39t27.5 -46t8 -45zM475 302h48q64 0 92 19.5t28 45.5
q0 47 -60 47q-83 0 -108 -112zM220 109q27 0 56.5 11.5t46.5 31.5q-5 32 -5 60v12q-144 -2 -144 -77q0 -17 12 -27.5t34 -10.5z" />
    <glyph glyph-name="ccedilla" unicode="&#xe7;" horiz-adv-x="485" 
d="M318 414q-132 0 -132 -195q0 -56 22.5 -83t70.5 -27q60 0 124 32q16 8 21 8q7 0 7 -14q0 -50 -8 -77q-11 -31 -55 -47t-94 -19l-11 -27q28 -5 49 -24t21 -51q0 -50 -34 -76t-95 -26q-14 0 -28.5 1.5t-33 6.5t-30 16.5t-11.5 27.5q0 48 14 48q2 0 32 -13.5t57 -13.5
q23 0 25 17q0 12 -24 24t-24 24q0 7 27 69q-175 22 -175 209q0 69 14.5 125.5t46 103t87.5 72.5t132 26q54 0 105.5 -15.5t52.5 -53.5q0 -16 -20 -46t-35 -30q-4 0 -16 7q-39 21 -82 21z" />
    <glyph glyph-name="egrave" unicode="&#xe8;" horiz-adv-x="539" 
d="M336 575q-51 0 -72 25q-23 29 -54 65q-38 46 -38 53q0 16 62 16q69 0 82 -27q10 -21 19.5 -41t15 -31t10 -21t6.5 -15t2 -8q0 -16 -33 -16zM502 386q0 -92 -65 -137.5t-150 -45.5q-55 0 -104 7q4 -58 30 -79.5t75 -21.5q35 0 71 11t58.5 22t25.5 11q8 0 8 -14
q0 -1 -1 -17t-3 -34.5t-4 -25.5q-11 -37 -65 -53.5t-109 -16.5q-119 0 -177.5 58t-58.5 162q0 163 77 241t198 78q57 0 98 -15t60.5 -39t27.5 -46t8 -45zM190 302h48q64 0 92 19.5t28 45.5q0 47 -60 47q-83 0 -108 -112z" />
    <glyph glyph-name="eacute" unicode="&#xe9;" horiz-adv-x="539" 
d="M276 575q-29 0 -29 13q0 3 2 7.5t8.5 14t14 20.5t22.5 32.5t30 44.5q18 27 88 27q58 0 58 -13q0 -7 -4.5 -12.5t-35.5 -34.5q-41 -40 -76 -74q-25 -25 -78 -25zM502 386q0 -92 -65 -137.5t-150 -45.5q-55 0 -104 7q4 -58 30 -79.5t75 -21.5q35 0 71 11t58.5 22t25.5 11
q8 0 8 -14q0 -1 -1 -17t-3 -34.5t-4 -25.5q-11 -37 -65 -53.5t-109 -16.5q-119 0 -177.5 58t-58.5 162q0 163 77 241t198 78q57 0 98 -15t60.5 -39t27.5 -46t8 -45zM190 302h48q64 0 92 19.5t28 45.5q0 47 -60 47q-83 0 -108 -112z" />
    <glyph glyph-name="ecircumflex" unicode="&#xea;" horiz-adv-x="539" 
d="M187 572q-19 0 -19 10q0 7 7 15l76 102q14 19 63 19h11q48 0 59 -19l54 -102q3 -8 3 -12q0 -13 -19 -13h-22q-49 0 -64 24l-25 40l-31 -39q-19 -25 -69 -25h-24zM502 386q0 -92 -65 -137.5t-150 -45.5q-55 0 -104 7q4 -58 30 -79.5t75 -21.5q35 0 71 11t58.5 22t25.5 11
q8 0 8 -14q0 -1 -1 -17t-3 -34.5t-4 -25.5q-11 -37 -65 -53.5t-109 -16.5q-119 0 -177.5 58t-58.5 162q0 163 77 241t198 78q57 0 98 -15t60.5 -39t27.5 -46t8 -45zM190 302h48q64 0 92 19.5t28 45.5q0 47 -60 47q-83 0 -108 -112z" />
    <glyph glyph-name="edieresis" unicode="&#xeb;" horiz-adv-x="539" 
d="M221 578q-57 0 -57 32l7 60q3 32 63 32q57 0 57 -32l-7 -60q-5 -32 -63 -32zM401 578q-57 0 -57 32l7 60q3 32 63 32q57 0 57 -32l-7 -60q-5 -32 -63 -32zM502 386q0 -92 -65 -137.5t-150 -45.5q-55 0 -104 7q4 -58 30 -79.5t75 -21.5q35 0 71 11t58.5 22t25.5 11
q8 0 8 -14q0 -1 -1 -17t-3 -34.5t-4 -25.5q-11 -37 -65 -53.5t-109 -16.5q-119 0 -177.5 58t-58.5 162q0 163 77 241t198 78q57 0 98 -15t60.5 -39t27.5 -46t8 -45zM190 302h48q64 0 92 19.5t28 45.5q0 47 -60 47q-83 0 -108 -112z" />
    <glyph glyph-name="igrave" unicode="&#xec;" horiz-adv-x="265" 
d="M74 734q69 0 82 -27q10 -21 19.5 -41t15 -31t10 -21t6.5 -15t2 -8q0 -16 -33 -16q-51 0 -72 25q-23 29 -54 65q-38 46 -38 53q0 16 62 16zM158 525q28 0 42.5 -9t14.5 -22q-37 -342 -37 -352q0 -33 30 -33q8 0 18 3t11 3q8 0 8 -11q0 -19 -7 -60q-4 -25 -31 -38.5
t-57 -13.5q-121 0 -121 127l38 374q3 32 63 32h28z" />
    <glyph glyph-name="iacute" unicode="&#xed;" horiz-adv-x="265" 
d="M252 734q58 0 58 -13q0 -7 -4.5 -12.5t-35.5 -34.5q-41 -40 -76 -74q-25 -25 -78 -25q-29 0 -29 13q0 3 2 7.5t8.5 14t14 20.5t22.5 32.5t30 44.5q18 27 88 27zM158 525q28 0 42.5 -9t14.5 -22q-37 -342 -37 -352q0 -33 30 -33q8 0 18 3t11 3q8 0 8 -11q0 -19 -7 -60
q-4 -25 -31 -38.5t-57 -13.5q-121 0 -121 127l38 374q3 32 63 32h28z" />
    <glyph glyph-name="icircumflex" unicode="&#xee;" horiz-adv-x="265" 
d="M164 718q48 0 59 -19l54 -102q3 -8 3 -12q0 -13 -19 -13h-22q-49 0 -64 24l-25 40l-31 -39q-19 -25 -69 -25h-24q-19 0 -19 10q0 7 7 15l76 102q14 19 63 19h11zM158 525q28 0 42.5 -9t14.5 -22q-37 -342 -37 -352q0 -33 30 -33q8 0 18 3t11 3q8 0 8 -11q0 -19 -7 -60
q-4 -25 -31 -38.5t-57 -13.5q-121 0 -121 127l38 374q3 32 63 32h28z" />
    <glyph glyph-name="idieresis" unicode="&#xef;" horiz-adv-x="265" 
d="M74 702q57 0 57 -32l-7 -60q-5 -32 -63 -32q-57 0 -57 32l7 60q3 32 63 32zM254 702q57 0 57 -32l-7 -60q-5 -32 -63 -32q-57 0 -57 32l7 60q3 32 63 32zM158 525q28 0 42.5 -9t14.5 -22q-37 -342 -37 -352q0 -33 30 -33q8 0 18 3t11 3q8 0 8 -11q0 -19 -7 -60
q-4 -25 -31 -38.5t-57 -13.5q-121 0 -121 127l38 374q3 32 63 32h28z" />
    <glyph glyph-name="eth" unicode="&#xf0;" horiz-adv-x="569" 
d="M359 715q17 0 30.5 -7.5t21.5 -16.5t18 -25l3 -5l69 9q12 0 22 -12.5t10 -26.5q0 -16 -22 -19l-47 -6q67 -123 67 -284q0 -159 -71 -244.5t-202 -85.5q-107 0 -162.5 56.5t-55.5 164.5q0 152 72.5 235t201.5 83q19 0 51 -4q-9 27 -26 62q-56 -8 -62 -8q-14 0 -24 11.5
t-10 26.5q0 16 23 20l43 6q-2 4 -9.5 14.5t-10.5 15.5q-7 12 -7 20q0 10 15 13q23 3 62 7zM302 414q-53 0 -82.5 -50t-29.5 -145q0 -110 80 -110q52 0 81 50.5t29 144.5q0 110 -78 110z" />
    <glyph glyph-name="ntilde" unicode="&#xf1;" 
d="M140 583q-31 9 -20 41q11 29 40 49.5t69 20.5q18 0 72 -14t69 -15q19 0 33 16q17 22 40 15l11 -3q17 -5 21.5 -18t-1.5 -23q-11 -29 -39.5 -49.5t-69.5 -20.5q-18 0 -71.5 14t-68.5 15q-19 0 -33 -16q-18 -22 -41 -15zM529 115q8 0 8 -11q0 -19 -7 -60q-4 -25 -31 -38.5
t-57 -13.5q-121 0 -121 127q0 13 11.5 123.5t11.5 116.5q0 50 -54 50q-49 0 -88 -61l-32 -318q-3 -32 -63 -32h-28q-28 0 -42.5 9t-14.5 22q38 371 38 399q0 13 -1 31.5t-1 24.5q0 16 33 26t83 10q31 0 33 -67q26 32 69 55t87 23q132 0 132 -127q0 -12 -12.5 -133
t-12.5 -129q0 -33 30 -33q8 0 18 3t11 3z" />
    <glyph glyph-name="ograve" unicode="&#xf2;" horiz-adv-x="569" 
d="M224 734q69 0 82 -27q10 -21 19.5 -41t15 -31t10 -21t6.5 -15t2 -8q0 -16 -33 -16q-51 0 -72 25q-23 29 -54 65q-38 46 -38 53q0 16 62 16zM307 531q107 0 162 -56t55 -164q0 -152 -73 -235.5t-201 -83.5q-107 0 -162 56t-55 163q0 65 14 119.5t44 101t85.5 73
t130.5 26.5zM295 414q-53 0 -82.5 -50.5t-29.5 -145.5q0 -109 79 -109q52 0 81.5 50.5t29.5 144.5q0 110 -78 110z" />
    <glyph glyph-name="oacute" unicode="&#xf3;" horiz-adv-x="569" 
d="M402 734q58 0 58 -13q0 -7 -4.5 -12.5t-35.5 -34.5q-41 -40 -76 -74q-25 -25 -78 -25q-29 0 -29 13q0 3 2 7.5t8.5 14t14 20.5t22.5 32.5t30 44.5q18 27 88 27zM307 531q107 0 162 -56t55 -164q0 -152 -73 -235.5t-201 -83.5q-107 0 -162 56t-55 163q0 65 14 119.5
t44 101t85.5 73t130.5 26.5zM295 414q-53 0 -82.5 -50.5t-29.5 -145.5q0 -109 79 -109q52 0 81.5 50.5t29.5 144.5q0 110 -78 110z" />
    <glyph glyph-name="ocircumflex" unicode="&#xf4;" horiz-adv-x="569" 
d="M315 718q48 0 59 -19l54 -102q3 -8 3 -12q0 -13 -19 -13h-22q-49 0 -64 24l-25 40l-31 -39q-19 -25 -69 -25h-24q-19 0 -19 10q0 7 7 15l76 102q14 19 63 19h11zM307 531q107 0 162 -56t55 -164q0 -152 -73 -235.5t-201 -83.5q-107 0 -162 56t-55 163q0 65 14 119.5
t44 101t85.5 73t130.5 26.5zM295 414q-53 0 -82.5 -50.5t-29.5 -145.5q0 -109 79 -109q52 0 81.5 50.5t29.5 144.5q0 110 -78 110z" />
    <glyph glyph-name="otilde" unicode="&#xf5;" horiz-adv-x="569" 
d="M229 694q18 0 72 -14t69 -15q19 0 33 16q17 22 40 15l11 -3q17 -5 21.5 -18t-1.5 -23q-11 -29 -39.5 -49.5t-69.5 -20.5q-18 0 -71.5 14t-68.5 15q-19 0 -33 -16q-18 -22 -41 -15l-11 3q-31 9 -20 41q11 29 40 49.5t69 20.5zM307 531q107 0 162 -56t55 -164
q0 -152 -73 -235.5t-201 -83.5q-107 0 -162 56t-55 163q0 65 14 119.5t44 101t85.5 73t130.5 26.5zM295 414q-53 0 -82.5 -50.5t-29.5 -145.5q0 -109 79 -109q52 0 81.5 50.5t29.5 144.5q0 110 -78 110z" />
    <glyph glyph-name="odieresis" unicode="&#xf6;" horiz-adv-x="569" 
d="M224 702q57 0 57 -32l-7 -60q-5 -32 -63 -32q-57 0 -57 32l7 60q3 32 63 32zM404 702q57 0 57 -32l-7 -60q-5 -32 -63 -32q-57 0 -57 32l7 60q3 32 63 32zM307 531q107 0 162 -56t55 -164q0 -152 -73 -235.5t-201 -83.5q-107 0 -162 56t-55 163q0 65 14 119.5t44 101
t85.5 73t130.5 26.5zM295 414q-53 0 -82.5 -50.5t-29.5 -145.5q0 -109 79 -109q52 0 81.5 50.5t29.5 144.5q0 110 -78 110z" />
    <glyph glyph-name="divide" unicode="&#xf7;" horiz-adv-x="560" 
d="M308 453q57 0 57 -32l-7 -71q-3 -32 -64 -32h-11q-33 0 -44.5 7.5t-11.5 24.5l7 71q3 32 63 32h11zM507 279q26 0 26 -34q0 -73 -37 -73h-441q-26 0 -26 34q0 73 37 73h441zM275 133q56 0 56 -32l-7 -71q-3 -32 -63 -32h-11q-57 0 -57 32l7 71q3 32 64 32h11z" />
    <glyph glyph-name="oslash" unicode="&#xf8;" horiz-adv-x="569" 
d="M494 451q36 -54 36 -140q0 -152 -73 -235.5t-201 -83.5q-81 0 -130 31l-18 -21q-12 -13 -22 -13q-11 0 -21 10l-14 12q-13 10 -13 22q0 10 10 21l22 25q-31 52 -31 132q0 65 14 119.5t44 101t85.5 73t130.5 26.5q71 0 122 -27l24 28q11 13 22 13q8 0 21 -10l14 -12
q13 -13 13 -22t-10 -21zM301 414q-53 0 -82.5 -50.5t-29.5 -145.5l157 183q-18 13 -45 13zM268 109q52 0 81.5 50.5t29.5 144.5v13l-163 -190q18 -18 52 -18z" />
    <glyph glyph-name="ugrave" unicode="&#xf9;" 
d="M326 575q-51 0 -72 25q-23 29 -54 65q-38 46 -38 53q0 16 62 16q69 0 82 -27q10 -21 19.5 -41t15 -31t10 -21t6.5 -15t2 -8q0 -16 -33 -16zM523 115q8 0 8 -11q0 -19 -7 -60q-4 -25 -31 -38.5t-57 -13.5q-97 0 -116 80q-29 -34 -72 -57t-88 -23q-68 0 -100 31t-32 96
q0 16 9 109.5t19 179.5l9 85q3 32 63 32h28q28 0 42.5 -9t14.5 -22q-34 -318 -34 -331q0 -49 54 -49q47 0 86 54l34 325q3 32 63 32h28q28 0 42.5 -9t14.5 -22q-37 -342 -37 -352q0 -33 30 -33q8 0 18 3t11 3z" />
    <glyph glyph-name="uacute" unicode="&#xfa;" 
d="M266 575q-29 0 -29 13q0 3 2 7.5t8.5 14t14 20.5t22.5 32.5t30 44.5q18 27 88 27q58 0 58 -13q0 -7 -4.5 -12.5t-35.5 -34.5q-41 -40 -76 -74q-25 -25 -78 -25zM523 115q8 0 8 -11q0 -19 -7 -60q-4 -25 -31 -38.5t-57 -13.5q-97 0 -116 80q-29 -34 -72 -57t-88 -23
q-68 0 -100 31t-32 96q0 16 9 109.5t19 179.5l9 85q3 32 63 32h28q28 0 42.5 -9t14.5 -22q-34 -318 -34 -331q0 -49 54 -49q47 0 86 54l34 325q3 32 63 32h28q28 0 42.5 -9t14.5 -22q-37 -342 -37 -352q0 -33 30 -33q8 0 18 3t11 3z" />
    <glyph glyph-name="ucircumflex" unicode="&#xfb;" 
d="M177 572q-19 0 -19 10q0 7 7 15l76 102q14 19 63 19h11q48 0 59 -19l54 -102q3 -8 3 -12q0 -13 -19 -13h-22q-49 0 -64 24l-25 40l-31 -39q-19 -25 -69 -25h-24zM523 115q8 0 8 -11q0 -19 -7 -60q-4 -25 -31 -38.5t-57 -13.5q-97 0 -116 80q-29 -34 -72 -57t-88 -23
q-68 0 -100 31t-32 96q0 16 9 109.5t19 179.5l9 85q3 32 63 32h28q28 0 42.5 -9t14.5 -22q-34 -318 -34 -331q0 -49 54 -49q47 0 86 54l34 325q3 32 63 32h28q28 0 42.5 -9t14.5 -22q-37 -342 -37 -352q0 -33 30 -33q8 0 18 3t11 3z" />
    <glyph glyph-name="udieresis" unicode="&#xfc;" 
d="M211 578q-57 0 -57 32l7 60q3 32 63 32q57 0 57 -32l-7 -60q-5 -32 -63 -32zM391 578q-57 0 -57 32l7 60q3 32 63 32q57 0 57 -32l-7 -60q-5 -32 -63 -32zM523 115q8 0 8 -11q0 -19 -7 -60q-4 -25 -31 -38.5t-57 -13.5q-97 0 -116 80q-29 -34 -72 -57t-88 -23
q-68 0 -100 31t-32 96q0 16 9 109.5t19 179.5l9 85q3 32 63 32h28q28 0 42.5 -9t14.5 -22q-34 -318 -34 -331q0 -49 54 -49q47 0 86 54l34 325q3 32 63 32h28q28 0 42.5 -9t14.5 -22q-37 -342 -37 -352q0 -33 30 -33q8 0 18 3t11 3z" />
    <glyph glyph-name="yacute" unicode="&#xfd;" horiz-adv-x="481" 
d="M369 734q58 0 58 -13q0 -7 -4.5 -12.5t-35.5 -34.5q-41 -40 -76 -74q-25 -25 -78 -25q-29 0 -29 13q0 3 2 7.5t8.5 14t14 20.5t22.5 32.5t30 44.5q18 27 88 27zM437 525q58 0 58 -21q0 -7 -5 -19l-300 -670q-9 -21 -58 -21h-17q-58 0 -58 20q0 8 6 19l81 167
q-117 494 -117 499q0 26 64 26h32q49 0 54 -21l39 -185q4 -19 16 -121h4q27 89 40 121l79 185q9 21 58 21h24z" />
    <glyph glyph-name="thorn" unicode="&#xfe;" horiz-adv-x="570" 
d="M225 754q28 0 42.5 -9t14.5 -22l-26 -248q49 56 120 56q74 0 118 -56.5t44 -160.5q0 -144 -62 -233t-160 -89q-59 0 -107 40l-22 -206q-3 -32 -63 -32h-28q-28 0 -42.5 9t-14.5 22l95 897q3 32 63 32h28zM320 410q-41 0 -77 -56l-24 -222q28 -23 63 -23q51 0 78.5 50.5
t27.5 145.5q0 105 -68 105z" />
    <glyph glyph-name="ydieresis" unicode="&#xff;" horiz-adv-x="481" 
d="M191 702q57 0 57 -32l-7 -60q-5 -32 -63 -32q-57 0 -57 32l7 60q3 32 63 32zM371 702q57 0 57 -32l-7 -60q-5 -32 -63 -32q-57 0 -57 32l7 60q3 32 63 32zM437 525q58 0 58 -21q0 -7 -5 -19l-300 -670q-9 -21 -58 -21h-17q-58 0 -58 20q0 8 6 19l81 167
q-117 494 -117 499q0 26 64 26h32q49 0 54 -21l39 -185q4 -19 16 -121h4q27 89 40 121l79 185q9 21 58 21h24z" />
    <glyph glyph-name="Amacron" unicode="&#x100;" horiz-adv-x="613" 
d="M475 869q26 0 26 -30q0 -65 -37 -65h-216q-26 0 -26 30q0 65 37 65h216zM371 702q50 0 55 -21l158 -643q3 -9 3 -17q0 -23 -54 -23h-44q-49 0 -54 21l-29 122h-242l-55 -122q-10 -21 -48 -21h-40q-58 0 -58 20q0 8 6 20l291 643q9 21 59 21h52zM327 515h-4
q-12 -41 -22 -64l-80 -178h154l-40 178q-6 26 -8 64z" />
    <glyph glyph-name="amacron" unicode="&#x101;" horiz-adv-x="545" 
d="M198 597q-26 0 -26 30q0 65 37 65h216q26 0 26 -30q0 -65 -37 -65h-216zM524 115q8 0 8 -11q0 -19 -7 -60q-4 -25 -31 -38.5t-57 -13.5q-95 0 -115 76q-22 -34 -58 -55.5t-78 -21.5q-74 0 -118 56.5t-44 160.5q0 144 62 233t160 89q65 0 121 -53q9 30 19 38t46 9h12
q58 0 58 -25l-18 -174q-19 -174 -19 -184q0 -32 30 -32q8 0 18 3t11 3zM336 335q1 7 4.5 24t5.5 27q-31 27 -66 27q-51 0 -78.5 -50.5t-27.5 -145.5q0 -105 68 -105q41 0 78 58q2 18 5.5 56.5t6 68.5t4.5 40z" />
    <glyph glyph-name="Abreve" unicode="&#x102;" horiz-adv-x="613" 
d="M475 892q32 0 32 -24q0 -45 -47.5 -80.5t-111.5 -35.5q-60 0 -98 30.5t-38 72.5q0 37 39 37q17 0 31 -18q24 -31 76 -31q17 0 29.5 2t22.5 7.5t14 7.5t13 10l9 9q13 13 29 13zM371 702q50 0 55 -21l158 -643q3 -9 3 -17q0 -23 -54 -23h-44q-49 0 -54 21l-29 122h-242
l-55 -122q-10 -21 -48 -21h-40q-58 0 -58 20q0 8 6 20l291 643q9 21 59 21h52zM327 515h-4q-12 -41 -22 -64l-80 -178h154l-40 178q-6 26 -8 64z" />
    <glyph glyph-name="abreve" unicode="&#x103;" horiz-adv-x="545" 
d="M298 575q-60 0 -98 30.5t-38 72.5q0 37 39 37q17 0 31 -18q24 -31 76 -31q17 0 29.5 2t22.5 7.5t14 7.5t13 11l9 8q13 13 29 13q32 0 32 -24q0 -45 -47.5 -80.5t-111.5 -35.5zM524 115q8 0 8 -11q0 -19 -7 -60q-4 -25 -31 -38.5t-57 -13.5q-95 0 -115 76
q-22 -34 -58 -55.5t-78 -21.5q-74 0 -118 56.5t-44 160.5q0 144 62 233t160 89q65 0 121 -53q9 30 19 38t46 9h12q58 0 58 -25l-18 -174q-19 -174 -19 -184q0 -32 30 -32q8 0 18 3t11 3zM336 335q1 7 4.5 24t5.5 27q-31 27 -66 27q-51 0 -78.5 -50.5t-27.5 -145.5
q0 -105 68 -105q41 0 78 58q2 18 5.5 56.5t6 68.5t4.5 40z" />
    <glyph glyph-name="Aogonek" unicode="&#x104;" horiz-adv-x="613" 
d="M650 -99q11 0 11 -30q0 -29 -26 -41.5t-62 -12.5q-62 0 -85 27t-23 62q0 60 32 92h-8q-49 0 -54 21l-29 122h-242l-55 -122q-10 -21 -48 -21h-40q-58 0 -58 20q0 8 6 20l291 643q9 21 59 21h52q50 0 55 -21l158 -643q3 -9 3 -17q0 -17 -35 -22v-2q0 -6 -9 -26.5t-9 -40.5
q0 -43 58 -43q18 0 37 7t21 7zM221 273h154l-40 178q-6 26 -8 64h-4q-12 -41 -22 -64z" />
    <glyph glyph-name="aogonek" unicode="&#x105;" horiz-adv-x="545" 
d="M576 -99q11 0 11 -30q0 -29 -26 -41.5t-62 -12.5q-62 0 -85 27t-23 62q0 53 27 87q-77 6 -96 75q-22 -34 -58 -55.5t-78 -21.5q-74 0 -118 56.5t-44 160.5q0 144 62 233t160 89q65 0 121 -53q9 30 19 38t46 9h12q58 0 58 -25l-18 -174q-19 -174 -19 -184q0 -32 30 -32
q8 0 18 3t11 3q8 0 8 -11q0 -19 -7 -60q-5 -31 -47 -47q0 -6 -9 -26.5t-9 -40.5q0 -43 58 -43q18 0 37 7t21 7zM336 335q1 7 4.5 24t5.5 27q-31 27 -66 27q-51 0 -78.5 -50.5t-27.5 -145.5q0 -105 68 -105q41 0 78 58q2 18 5.5 56.5t6 68.5t4.5 40z" />
    <glyph glyph-name="Cacute" unicode="&#x106;" horiz-adv-x="619" 
d="M507 911q58 0 58 -13q0 -7 -4.5 -12.5t-35.5 -34.5q-41 -40 -76 -74q-25 -25 -78 -25q-29 0 -29 13q0 3 2 7.5t8.5 14t14 20.5t22.5 32.5t30 44.5q18 27 88 27zM417 708q71 0 136.5 -19.5t65.5 -48.5q0 -21 -28.5 -58.5t-46.5 -37.5q-3 0 -19.5 8t-49.5 16t-75 8
q-97 0 -148 -70t-51 -208q0 -175 150 -175q50 0 96.5 13.5t74 27.5t30.5 14q12 0 12 -15q0 -42 -10 -95q-8 -40 -82 -58t-135 -18q-150 0 -222.5 69.5t-72.5 214.5q0 91 19.5 165.5t61 136t116.5 96t178 34.5z" />
    <glyph glyph-name="cacute" unicode="&#x107;" horiz-adv-x="485" 
d="M405 734q58 0 58 -13q0 -7 -4.5 -12.5t-35.5 -34.5q-41 -40 -76 -74q-25 -25 -78 -25q-29 0 -29 13q0 3 2 7.5t8.5 14t14 20.5t22.5 32.5t30 44.5q18 27 88 27zM313 531q54 0 105.5 -15.5t52.5 -53.5q0 -16 -20 -46t-35 -30q-4 0 -16 7q-39 21 -82 21q-132 0 -132 -195
q0 -56 22.5 -83t70.5 -27q60 0 124 32q16 8 21 8q7 0 7 -14q0 -50 -8 -77q-12 -34 -62.5 -50t-100.5 -16q-227 0 -227 212q0 69 14.5 125.5t46 103t87.5 72.5t132 26z" />
    <glyph glyph-name="Ccircumflex" unicode="&#x108;" horiz-adv-x="619" 
d="M420 895q48 0 59 -19l54 -102q3 -8 3 -12q0 -13 -19 -13h-22q-49 0 -64 24l-25 40l-31 -39q-19 -25 -69 -25h-24q-19 0 -19 10q0 7 7 15l76 102q14 19 63 19h11zM417 708q71 0 136.5 -19.5t65.5 -48.5q0 -21 -28.5 -58.5t-46.5 -37.5q-3 0 -19.5 8t-49.5 16t-75 8
q-97 0 -148 -70t-51 -208q0 -175 150 -175q50 0 96.5 13.5t74 27.5t30.5 14q12 0 12 -15q0 -42 -10 -95q-8 -40 -82 -58t-135 -18q-150 0 -222.5 69.5t-72.5 214.5q0 91 19.5 165.5t61 136t116.5 96t178 34.5z" />
    <glyph glyph-name="ccircumflex" unicode="&#x109;" horiz-adv-x="485" 
d="M318 718q48 0 59 -19l54 -102q3 -8 3 -12q0 -13 -19 -13h-22q-49 0 -64 24l-25 40l-31 -39q-19 -25 -69 -25h-24q-19 0 -19 10q0 7 7 15l76 102q14 19 63 19h11zM313 531q54 0 105.5 -15.5t52.5 -53.5q0 -16 -20 -46t-35 -30q-4 0 -16 7q-39 21 -82 21q-132 0 -132 -195
q0 -56 22.5 -83t70.5 -27q60 0 124 32q16 8 21 8q7 0 7 -14q0 -50 -8 -77q-12 -34 -62.5 -50t-100.5 -16q-227 0 -227 212q0 69 14.5 125.5t46 103t87.5 72.5t132 26z" />
    <glyph glyph-name="Cdotaccent" unicode="&#x10a;" horiz-adv-x="619" 
d="M405 879q57 0 57 -32l-7 -60q-5 -32 -63 -32q-57 0 -57 32l7 60q3 32 63 32zM417 708q71 0 136.5 -19.5t65.5 -48.5q0 -21 -28.5 -58.5t-46.5 -37.5q-3 0 -19.5 8t-49.5 16t-75 8q-97 0 -148 -70t-51 -208q0 -175 150 -175q50 0 96.5 13.5t74 27.5t30.5 14q12 0 12 -15
q0 -42 -10 -95q-8 -40 -82 -58t-135 -18q-150 0 -222.5 69.5t-72.5 214.5q0 91 19.5 165.5t61 136t116.5 96t178 34.5z" />
    <glyph glyph-name="cdotaccent" unicode="&#x10b;" horiz-adv-x="485" 
d="M303 702q57 0 57 -32l-7 -60q-5 -32 -63 -32q-57 0 -57 32l7 60q3 32 63 32zM313 531q54 0 105.5 -15.5t52.5 -53.5q0 -16 -20 -46t-35 -30q-4 0 -16 7q-39 21 -82 21q-132 0 -132 -195q0 -56 22.5 -83t70.5 -27q60 0 124 32q16 8 21 8q7 0 7 -14q0 -50 -8 -77
q-12 -34 -62.5 -50t-100.5 -16q-227 0 -227 212q0 69 14.5 125.5t46 103t87.5 72.5t132 26z" />
    <glyph glyph-name="Ccaron" unicode="&#x10c;" horiz-adv-x="619" 
d="M533 895q19 0 19 -10q0 -7 -7 -15l-76 -102q-14 -19 -63 -19h-11q-48 0 -59 19l-54 102q-3 8 -3 12q0 13 19 13h22q48 0 64 -24l25 -40l31 39q18 23 69 25h24zM417 708q71 0 136.5 -19.5t65.5 -48.5q0 -21 -28.5 -58.5t-46.5 -37.5q-3 0 -19.5 8t-49.5 16t-75 8
q-97 0 -148 -70t-51 -208q0 -175 150 -175q50 0 96.5 13.5t74 27.5t30.5 14q12 0 12 -15q0 -42 -10 -95q-8 -40 -82 -58t-135 -18q-150 0 -222.5 69.5t-72.5 214.5q0 91 19.5 165.5t61 136t116.5 96t178 34.5z" />
    <glyph glyph-name="ccaron" unicode="&#x10d;" horiz-adv-x="485" 
d="M431 718q19 0 19 -10q0 -7 -7 -15l-76 -102q-14 -19 -63 -19h-11q-48 0 -59 19l-54 102q-3 7 -3 12q0 13 19 13h22q48 0 64 -24l25 -40l31 39q18 23 69 25h24zM313 531q54 0 105.5 -15.5t52.5 -53.5q0 -16 -20 -46t-35 -30q-4 0 -16 7q-39 21 -82 21q-132 0 -132 -195
q0 -56 22.5 -83t70.5 -27q60 0 124 32q16 8 21 8q7 0 7 -14q0 -50 -8 -77q-12 -34 -62.5 -50t-100.5 -16q-227 0 -227 212q0 69 14.5 125.5t46 103t87.5 72.5t132 26z" />
    <glyph glyph-name="Dcaron" unicode="&#x10e;" horiz-adv-x="695" 
d="M482 895q19 0 19 -10q0 -7 -7 -15l-76 -102q-14 -19 -63 -19h-11q-48 0 -59 19l-54 102q-3 8 -3 12q0 13 19 13h22q48 0 64 -24l25 -40l31 39q18 23 69 25h24zM373 700q140 0 213.5 -74.5t73.5 -214.5q0 -196 -96.5 -303.5t-263.5 -107.5h-224q-20 0 -28 7.5t-8 25.5
q0 9 65 627q4 40 44 40h224zM360 569h-109l-47 -438h109q87 0 137.5 69.5t50.5 196.5q0 172 -141 172z" />
    <glyph glyph-name="dcaron" unicode="&#x10f;" horiz-adv-x="565" 
d="M536 115q8 0 8 -11q0 -19 -7 -60q-4 -25 -31 -38.5t-57 -13.5q-95 0 -115 77q-48 -77 -136 -77q-79 0 -125.5 56.5t-46.5 160.5q0 144 64.5 233t167.5 89q57 0 107 -41l25 232q3 32 63 32h28q28 0 42.5 -9t14.5 -22q-61 -571 -61 -581q0 -33 30 -33q8 0 18 3t11 3z
M662 752q45 0 45 -44q0 -46 -39 -95.5t-64 -49.5q-16 0 -30 5.5t-13 16.5q0 6 4.5 21.5t8.5 41.5t4 60q0 44 65 44h19zM333 172l22 218q-30 24 -63 24q-55 0 -85.5 -50.5t-30.5 -145.5q0 -105 78 -105q42 0 79 59z" />
    <glyph glyph-name="Dcroat" unicode="&#x110;" horiz-adv-x="696" 
d="M373 700q140 0 213.5 -74.5t73.5 -214.5q0 -196 -96.5 -303.5t-263.5 -107.5h-224q-20 0 -28 7.5t-8 25.5q0 3 26 257h-31q-26 0 -26 40q0 91 38 91h33l25 239q4 40 44 40h224zM313 131q87 0 137.5 69.5t50.5 196.5q0 172 -141 172h-109l-16 -148h57q26 0 26 -40
q0 -91 -38 -91h-59l-17 -159h109z" />
    <glyph glyph-name="dcroat" unicode="&#x111;" horiz-adv-x="565" 
d="M543 583h-20q-46 -434 -46 -441q0 -33 30 -33q8 0 18 3t11 3q8 0 8 -11q0 -19 -7 -60q-4 -25 -31 -38.5t-57 -13.5q-95 0 -115 77q-48 -77 -136 -77q-79 0 -125.5 56.5t-46.5 160.5q0 144 64.5 233t167.5 89q57 0 107 -41q0 3 10 93h-48q-26 0 -26 30q0 65 37 65h47l5 44
q3 32 63 32h28q28 0 42.5 -9t14.5 -22l-5 -45h21q26 0 26 -30q0 -65 -37 -65zM333 172l22 218q-30 24 -63 24q-55 0 -85.5 -50.5t-30.5 -145.5q0 -105 78 -105q42 0 79 59z" />
    <glyph glyph-name="Emacron" unicode="&#x112;" horiz-adv-x="546" 
d="M458 869q26 0 26 -30q0 -65 -37 -65h-216q-26 0 -26 30q0 65 37 65h216zM515 700q26 0 26 -40q0 -91 -38 -91h-252l-16 -145h224q26 0 26 -40q0 -91 -38 -91h-225l-18 -162h252q26 0 26 -40q0 -91 -38 -91h-368q-20 0 -28 7t-8 25l65 628q4 40 44 40h366z" />
    <glyph glyph-name="emacron" unicode="&#x113;" horiz-adv-x="539" 
d="M207 597q-26 0 -26 30q0 65 37 65h216q26 0 26 -30q0 -65 -37 -65h-216zM502 386q0 -92 -65 -137.5t-150 -45.5q-55 0 -104 7q4 -58 30 -79.5t75 -21.5q35 0 71 11t58.5 22t25.5 11q8 0 8 -14q0 -1 -1 -17t-3 -34.5t-4 -25.5q-11 -37 -65 -53.5t-109 -16.5
q-119 0 -177.5 58t-58.5 162q0 163 77 241t198 78q57 0 98 -15t60.5 -39t27.5 -46t8 -45zM190 302h48q64 0 92 19.5t28 45.5q0 47 -60 47q-83 0 -108 -112z" />
    <glyph glyph-name="Ebreve" unicode="&#x114;" horiz-adv-x="546" 
d="M458 892q32 0 32 -24q0 -45 -47.5 -80.5t-111.5 -35.5q-60 0 -98 30.5t-38 72.5q0 37 39 37q17 0 31 -18q24 -31 76 -31q17 0 29.5 2t22.5 7.5t14 7.5t13 10l9 9q13 13 29 13zM515 700q26 0 26 -40q0 -91 -38 -91h-252l-16 -145h224q26 0 26 -40q0 -91 -38 -91h-225
l-18 -162h252q26 0 26 -40q0 -91 -38 -91h-368q-20 0 -28 7t-8 25l65 628q4 40 44 40h366z" />
    <glyph glyph-name="ebreve" unicode="&#x115;" horiz-adv-x="539" 
d="M307 575q-60 0 -98 30.5t-38 72.5q0 37 39 37q17 0 31 -18q24 -31 76 -31q17 0 29.5 2t22.5 7.5t14 7.5t13 11l9 8q13 13 29 13q32 0 32 -24q0 -45 -47.5 -80.5t-111.5 -35.5zM502 386q0 -92 -65 -137.5t-150 -45.5q-55 0 -104 7q4 -58 30 -79.5t75 -21.5q35 0 71 11
t58.5 22t25.5 11q8 0 8 -14q0 -1 -1 -17t-3 -34.5t-4 -25.5q-11 -37 -65 -53.5t-109 -16.5q-119 0 -177.5 58t-58.5 162q0 163 77 241t198 78q57 0 98 -15t60.5 -39t27.5 -46t8 -45zM190 302h48q64 0 92 19.5t28 45.5q0 47 -60 47q-83 0 -108 -112z" />
    <glyph glyph-name="Edotaccent" unicode="&#x116;" horiz-adv-x="546" 
d="M334 879q57 0 57 -32l-7 -60q-5 -32 -63 -32q-57 0 -57 32l7 60q3 32 63 32zM515 700q26 0 26 -40q0 -91 -38 -91h-252l-16 -145h224q26 0 26 -40q0 -91 -38 -91h-225l-18 -162h252q26 0 26 -40q0 -91 -38 -91h-368q-20 0 -28 7t-8 25l65 628q4 40 44 40h366z" />
    <glyph glyph-name="edotaccent" unicode="&#x117;" horiz-adv-x="539" 
d="M297 578q-57 0 -57 32l7 60q3 32 63 32q57 0 57 -32l-7 -60q-5 -32 -63 -32zM502 386q0 -92 -65 -137.5t-150 -45.5q-55 0 -104 7q4 -58 30 -79.5t75 -21.5q35 0 71 11t58.5 22t25.5 11q8 0 8 -14q0 -1 -1 -17t-3 -34.5t-4 -25.5q-11 -37 -65 -53.5t-109 -16.5
q-119 0 -177.5 58t-58.5 162q0 163 77 241t198 78q57 0 98 -15t60.5 -39t27.5 -46t8 -45zM190 302h48q64 0 92 19.5t28 45.5q0 47 -60 47q-83 0 -108 -112z" />
    <glyph glyph-name="Eogonek" unicode="&#x118;" horiz-adv-x="546" 
d="M542 -99q11 0 11 -30q0 -29 -26 -41.5t-62 -12.5q-62 0 -85 27t-23 62q0 63 34 94h-315q-20 0 -28 7t-8 25l65 628q4 40 44 40h366q26 0 26 -40q0 -91 -38 -91h-252l-16 -145h224q26 0 26 -40q0 -91 -38 -91h-225l-18 -162h252q26 0 26 -40q0 -91 -38 -91v-3
q0 -6 -9 -26.5t-9 -40.5q0 -43 58 -43q18 0 37 7t21 7z" />
    <glyph glyph-name="eogonek" unicode="&#x119;" horiz-adv-x="539" 
d="M447 -99q11 0 11 -30q0 -29 -26 -41.5t-62 -12.5q-62 0 -85 27t-23 62q0 51 27 87q-7 -1 -20 -1q-119 0 -177.5 58t-58.5 162q0 163 77 241t198 78q57 0 98 -15t60.5 -39t27.5 -46t8 -45q0 -92 -65 -137.5t-150 -45.5q-55 0 -104 7q4 -58 30 -79.5t75 -21.5q35 0 71 11
t58.5 22t25.5 11q8 0 8 -14q0 -1 -1 -17t-3 -34.5t-4 -25.5q-13 -44 -94 -61v-4q0 -6 -9 -26.5t-9 -40.5q0 -43 58 -43q18 0 37 7t21 7zM298 414q-83 0 -108 -112h48q64 0 92 19.5t28 45.5q0 47 -60 47z" />
    <glyph glyph-name="Ecaron" unicode="&#x11a;" horiz-adv-x="546" 
d="M462 895q19 0 19 -10q0 -7 -7 -15l-76 -102q-14 -19 -63 -19h-11q-48 0 -59 19l-54 102q-3 8 -3 12q0 13 19 13h22q48 0 64 -24l25 -40l31 39q18 23 69 25h24zM515 700q26 0 26 -40q0 -91 -38 -91h-252l-16 -145h224q26 0 26 -40q0 -91 -38 -91h-225l-18 -162h252
q26 0 26 -40q0 -91 -38 -91h-368q-20 0 -28 7t-8 25l65 628q4 40 44 40h366z" />
    <glyph glyph-name="ecaron" unicode="&#x11b;" horiz-adv-x="539" 
d="M241 591l-54 102q-3 7 -3 12q0 13 19 13h22q48 0 64 -24l25 -40l31 39q18 23 69 25h24q19 0 19 -10q0 -7 -7 -15l-76 -102q-14 -19 -63 -19h-11q-48 0 -59 19zM502 386q0 -92 -65 -137.5t-150 -45.5q-55 0 -104 7q4 -58 30 -79.5t75 -21.5q35 0 71 11t58.5 22t25.5 11
q8 0 8 -14q0 -1 -1 -17t-3 -34.5t-4 -25.5q-11 -37 -65 -53.5t-109 -16.5q-119 0 -177.5 58t-58.5 162q0 163 77 241t198 78q57 0 98 -15t60.5 -39t27.5 -46t8 -45zM190 302h48q64 0 92 19.5t28 45.5q0 47 -60 47q-83 0 -108 -112z" />
    <glyph glyph-name="Gcircumflex" unicode="&#x11c;" horiz-adv-x="672" 
d="M418 895q48 0 59 -19l54 -102q3 -8 3 -12q0 -13 -19 -13h-22q-49 0 -64 24l-25 40l-31 -39q-19 -25 -69 -25h-24q-19 0 -19 10q0 7 7 15l76 102q14 19 63 19h11zM416 708q71 0 137 -19.5t66 -48.5q0 -21 -28.5 -58.5t-46.5 -37.5q-3 0 -19.5 8t-50 16t-75.5 8
q-97 0 -148 -70t-51 -208q0 -175 150 -175q40 0 78 7l14 128h-87q-26 0 -26 40q0 91 38 91h204q20 0 28.5 -7t8.5 -24q0 -3 -5.5 -52.5t-13.5 -122.5t-12 -112q-3 -24 -30 -41t-68.5 -24.5t-75.5 -10.5t-67 -3q-150 0 -222.5 69.5t-72.5 214.5q0 215 96 323.5t279 108.5z
" />
    <glyph glyph-name="gcircumflex" unicode="&#x11d;" horiz-adv-x="546" 
d="M196 572q-19 0 -19 10q0 7 7 15l76 102q14 19 63 19h11q48 0 59 -19l54 -102q3 -8 3 -12q0 -13 -19 -13h-22q-49 0 -64 24l-25 40l-31 -39q-19 -25 -69 -25h-24zM461 525q58 0 58 -25l-41 -407q-16 -154 -77.5 -229.5t-177.5 -75.5q-78 0 -131.5 20t-53.5 51q0 87 20 87
q3 0 21 -10t49 -20.5t65 -10.5q57 0 90.5 33t39.5 95l3 30q-50 -59 -122 -59q-79 0 -125.5 54.5t-46.5 154.5q0 142 64.5 230t167.5 88q65 0 120 -52q9 29 19.5 37t45.5 9h12zM351 300q9 76 12 88q-32 26 -65 26q-55 0 -85.5 -49.5t-30.5 -142.5q0 -97 78 -97q41 0 78 58z
" />
    <glyph glyph-name="Gbreve" unicode="&#x11e;" horiz-adv-x="672" 
d="M527 892q32 0 32 -24q0 -45 -47.5 -80.5t-111.5 -35.5q-60 0 -98 30.5t-38 72.5q0 37 39 37q17 0 31 -18q24 -31 76 -31q17 0 29.5 2t22.5 7.5t14 7.5t13 10l9 9q13 13 29 13zM416 708q71 0 137 -19.5t66 -48.5q0 -21 -28.5 -58.5t-46.5 -37.5q-3 0 -19.5 8t-50 16
t-75.5 8q-97 0 -148 -70t-51 -208q0 -175 150 -175q40 0 78 7l14 128h-87q-26 0 -26 40q0 91 38 91h204q20 0 28.5 -7t8.5 -24q0 -3 -5.5 -52.5t-13.5 -122.5t-12 -112q-3 -24 -30 -41t-68.5 -24.5t-75.5 -10.5t-67 -3q-150 0 -222.5 69.5t-72.5 214.5q0 215 96 323.5
t279 108.5z" />
    <glyph glyph-name="gbreve" unicode="&#x11f;" horiz-adv-x="546" 
d="M316 575q-60 0 -98 30.5t-38 72.5q0 37 39 37q17 0 31 -18q24 -31 76 -31q17 0 29.5 2t22.5 7.5t14 7.5t13 11l9 8q13 13 29 13q32 0 32 -24q0 -45 -47.5 -80.5t-111.5 -35.5zM461 525q58 0 58 -25l-41 -407q-16 -154 -77.5 -229.5t-177.5 -75.5q-78 0 -131.5 20
t-53.5 51q0 87 20 87q3 0 21 -10t49 -20.5t65 -10.5q57 0 90.5 33t39.5 95l3 30q-50 -59 -122 -59q-79 0 -125.5 54.5t-46.5 154.5q0 142 64.5 230t167.5 88q65 0 120 -52q9 29 19.5 37t45.5 9h12zM351 300q9 76 12 88q-32 26 -65 26q-55 0 -85.5 -49.5t-30.5 -142.5
q0 -97 78 -97q41 0 78 58z" />
    <glyph glyph-name="Gdotaccent" unicode="&#x120;" horiz-adv-x="672" 
d="M403 879q57 0 57 -32l-7 -60q-5 -32 -63 -32q-57 0 -57 32l7 60q3 32 63 32zM416 708q71 0 137 -19.5t66 -48.5q0 -21 -28.5 -58.5t-46.5 -37.5q-3 0 -19.5 8t-50 16t-75.5 8q-97 0 -148 -70t-51 -208q0 -175 150 -175q40 0 78 7l14 128h-87q-26 0 -26 40q0 91 38 91h204
q20 0 28.5 -7t8.5 -24q0 -3 -5.5 -52.5t-13.5 -122.5t-12 -112q-3 -24 -30 -41t-68.5 -24.5t-75.5 -10.5t-67 -3q-150 0 -222.5 69.5t-72.5 214.5q0 215 96 323.5t279 108.5z" />
    <glyph glyph-name="gdotaccent" unicode="&#x121;" horiz-adv-x="546" 
d="M306 578q-57 0 -57 32l7 60q3 32 63 32q57 0 57 -32l-7 -60q-5 -32 -63 -32zM461 525q58 0 58 -25l-41 -407q-16 -154 -77.5 -229.5t-177.5 -75.5q-78 0 -131.5 20t-53.5 51q0 87 20 87q3 0 21 -10t49 -20.5t65 -10.5q57 0 90.5 33t39.5 95l3 30q-50 -59 -122 -59
q-79 0 -125.5 54.5t-46.5 154.5q0 142 64.5 230t167.5 88q65 0 120 -52q9 29 19.5 37t45.5 9h12zM351 300q9 76 12 88q-32 26 -65 26q-55 0 -85.5 -49.5t-30.5 -142.5q0 -97 78 -97q41 0 78 58z" />
    <glyph glyph-name="Gcommaaccent" unicode="&#x122;" horiz-adv-x="672" 
d="M416 708q71 0 137 -19.5t66 -48.5q0 -21 -28.5 -58.5t-46.5 -37.5q-3 0 -19.5 8t-50 16t-75.5 8q-97 0 -148 -70t-51 -208q0 -175 150 -175q40 0 78 7l14 128h-87q-26 0 -26 40q0 91 38 91h204q20 0 28.5 -7t8.5 -24q0 -3 -5.5 -52.5t-13.5 -122.5t-12 -112
q-3 -24 -30 -41t-68.5 -24.5t-75.5 -10.5t-67 -3q-150 0 -222.5 69.5t-72.5 214.5q0 215 96 323.5t279 108.5zM344 -51q45 0 45 -44q0 -46 -46.5 -95.5t-76.5 -49.5q-16 0 -30 5.5t-13 16.5q1 5 10.5 20t18 41.5t8.5 61.5q0 44 65 44h19z" />
    <glyph glyph-name="gcommaaccent" unicode="&#x123;" horiz-adv-x="546" 
d="M304 575q-45 0 -45 44q0 46 46.5 95.5t76.5 49.5q16 0 30 -5.5t13 -16.5q-1 -5 -10.5 -20t-18 -41.5t-8.5 -61.5q0 -44 -65 -44h-19zM461 525q58 0 58 -25l-41 -407q-16 -154 -77.5 -229.5t-177.5 -75.5q-78 0 -131.5 20t-53.5 51q0 87 20 87q3 0 21 -10t49 -20.5
t65 -10.5q57 0 90.5 33t39.5 95l3 30q-50 -59 -122 -59q-79 0 -125.5 54.5t-46.5 154.5q0 142 64.5 230t167.5 88q65 0 120 -52q9 29 19.5 37t45.5 9h12zM351 300q9 76 12 88q-32 26 -65 26q-55 0 -85.5 -49.5t-30.5 -142.5q0 -97 78 -97q41 0 78 58z" />
    <glyph glyph-name="Hcircumflex" unicode="&#x124;" horiz-adv-x="733" 
d="M420 895q48 0 59 -19l54 -102q3 -8 3 -12q0 -13 -19 -13h-22q-49 0 -64 24l-25 40l-31 -39q-19 -25 -69 -25h-24q-19 0 -19 10q0 7 7 15l76 102q14 19 63 19h11zM632 702q57 0 57 -31l-67 -641q-3 -32 -63 -32h-35q-57 0 -57 31l27 262h-270l-27 -261q-3 -32 -63 -32h-35
q-57 0 -57 31l67 641q3 32 63 32h35q57 0 57 -31l-26 -248h270l26 247q3 32 63 32h35z" />
    <glyph glyph-name="hcircumflex" unicode="&#x125;" horiz-adv-x="565" 
d="M197 925q48 0 59 -19l54 -102q3 -8 3 -12q0 -13 -19 -13h-22q-49 0 -64 24l-25 40l-31 -39q-19 -25 -69 -25h-24q-19 0 -19 10q0 7 7 15l76 102q14 19 63 19h11zM186 754q28 0 42.5 -9t14.5 -22l-27 -260q27 29 67 48.5t80 19.5q132 0 132 -127q0 -12 -12.5 -133
t-12.5 -129q0 -33 30 -33q8 0 18 3t11 3q8 0 8 -11q0 -19 -7 -60q-4 -25 -31 -38.5t-57 -13.5q-121 0 -121 127q0 13 11.5 123.5t11.5 116.5q0 50 -54 50q-46 0 -86 -57l-34 -322q-3 -32 -63 -32h-28q-28 0 -42.5 9t-14.5 22l73 693q3 32 63 32h28z" />
    <glyph glyph-name="Hbar" unicode="&#x126;" horiz-adv-x="733" 
d="M689 571q26 0 26 -30q0 -65 -37 -65h-9l-47 -446q-3 -32 -63 -32h-35q-57 0 -57 31l27 262h-270l-27 -261q-3 -32 -63 -32h-35q-57 0 -57 31l47 447h-27q-26 0 -26 30q0 65 37 65h26l10 99q3 32 63 32h35q57 0 57 -31l-10 -100h270l10 99q3 32 63 32h35q57 0 57 -31
l-10 -100h10zM508 423l6 53h-270l-6 -53h270z" />
    <glyph glyph-name="hbar" unicode="&#x127;" horiz-adv-x="565" 
d="M529 115q8 0 8 -11q0 -19 -7 -60q-4 -25 -31 -38.5t-57 -13.5q-121 0 -121 127q0 13 11.5 123.5t11.5 116.5q0 50 -54 50q-46 0 -86 -57l-34 -322q-3 -32 -63 -32h-28q-28 0 -42.5 9t-14.5 22l58 554h-16q-26 0 -26 30q0 65 37 65h15l5 44q3 32 63 32h28q28 0 42.5 -9
t14.5 -22l-5 -45h53q26 0 26 -30q0 -65 -37 -65h-52l-12 -120q27 29 67 48.5t80 19.5q132 0 132 -127q0 -12 -12.5 -133t-12.5 -129q0 -33 30 -33q8 0 18 3t11 3z" />
    <glyph glyph-name="Itilde" unicode="&#x128;" horiz-adv-x="282" 
d="M123 871q16 0 64.5 -14t61.5 -15q17 0 30 16q16 22 36 15l10 -3q29 -9 18 -41q-10 -29 -35.5 -49.5t-62.5 -20.5q-16 0 -64 14t-62 15q-17 0 -30 -16q-16 -22 -37 -15l-10 3q-27 9 -18 41q10 29 36 49.5t63 20.5zM195 702q57 0 57 -31l-67 -641q-3 -32 -63 -32h-35
q-57 0 -57 31l67 641q3 32 63 32h35z" />
    <glyph glyph-name="itilde" unicode="&#x129;" horiz-adv-x="265" 
d="M86 694q16 0 64.5 -14t61.5 -15q17 0 30 16q16 22 36 15l10 -3q29 -9 18 -41q-10 -29 -35.5 -49.5t-62.5 -20.5q-16 0 -64 14t-62 15q-17 0 -30 -16q-16 -22 -37 -15l-10 3q-27 9 -18 41q10 29 36 49.5t63 20.5zM158 525q28 0 42.5 -9t14.5 -22q-37 -342 -37 -352
q0 -33 30 -33q8 0 18 3t11 3q8 0 8 -11q0 -19 -7 -60q-4 -25 -31 -38.5t-57 -13.5q-121 0 -121 127l38 374q3 32 63 32h28z" />
    <glyph glyph-name="Imacron" unicode="&#x12a;" horiz-adv-x="282" 
d="M311 869q26 0 26 -30q0 -65 -37 -65h-216q-26 0 -26 30q0 65 37 65h216zM195 702q57 0 57 -31l-67 -641q-3 -32 -63 -32h-35q-57 0 -57 31l67 641q3 32 63 32h35z" />
    <glyph glyph-name="imacron" unicode="&#x12b;" horiz-adv-x="265" 
d="M274 692q26 0 26 -30q0 -65 -37 -65h-216q-26 0 -26 30q0 65 37 65h216zM158 525q28 0 42.5 -9t14.5 -22q-37 -342 -37 -352q0 -33 30 -33q8 0 18 3t11 3q8 0 8 -11q0 -19 -7 -60q-4 -25 -31 -38.5t-57 -13.5q-121 0 -121 127l38 374q3 32 63 32h28z" />
    <glyph glyph-name="Ibreve" unicode="&#x12c;" horiz-adv-x="282" 
d="M311 892q32 0 32 -24q0 -45 -47.5 -80.5t-111.5 -35.5q-60 0 -98 30.5t-38 72.5q0 37 39 37q17 0 31 -18q24 -31 76 -31q17 0 29.5 2t22.5 7.5t14 7.5t13 10l9 9q13 13 29 13zM195 702q57 0 57 -31l-67 -641q-3 -32 -63 -32h-35q-57 0 -57 31l67 641q3 32 63 32h35z" />
    <glyph glyph-name="ibreve" unicode="&#x12d;" horiz-adv-x="265" 
d="M274 715q32 0 32 -24q0 -45 -47.5 -80.5t-111.5 -35.5q-60 0 -98 30.5t-38 72.5q0 37 39 37q17 0 31 -18q24 -31 76 -31q17 0 29.5 2t22.5 7.5t14 7.5t13 11l9 8q13 13 29 13zM158 525q28 0 42.5 -9t14.5 -22q-37 -342 -37 -352q0 -33 30 -33q8 0 18 3t11 3q8 0 8 -11
q0 -19 -7 -60q-4 -25 -31 -38.5t-57 -13.5q-121 0 -121 127l38 374q3 32 63 32h28z" />
    <glyph glyph-name="Iogonek" unicode="&#x12e;" horiz-adv-x="282" 
d="M240 -99q11 0 11 -30q0 -29 -26 -41.5t-62 -12.5q-62 0 -85 27t-23 62q0 60 32 92q-57 0 -57 31l67 641q3 32 63 32h35q57 0 57 -31l-67 -641q-3 -26 -43 -31v-2q0 -6 -9 -26.5t-9 -40.5q0 -43 58 -43q18 0 37 7t21 7z" />
    <glyph glyph-name="iogonek" unicode="&#x12f;" horiz-adv-x="265" 
d="M139 609q-28 0 -42.5 9t-14.5 22l9 82q3 32 63 32h28q28 0 42.5 -9t14.5 -22l-9 -82q-3 -32 -63 -32h-28zM263 -99q11 0 11 -30q0 -29 -26 -41.5t-62 -12.5q-62 0 -85 27t-23 62q0 57 30 90q-79 20 -79 123l38 374q3 32 63 32h28q28 0 42.5 -9t14.5 -22
q-37 -342 -37 -352q0 -33 30 -33q8 0 18 3t11 3q8 0 8 -11q0 -19 -7 -60q-3 -22 -24.5 -35t-48.5 -16q0 -2 -9 -22.5t-9 -40.5q0 -43 58 -43q18 0 37 7t21 7z" />
    <glyph glyph-name="Idotaccent" unicode="&#x130;" horiz-adv-x="282" 
d="M187 879q57 0 57 -32l-7 -60q-5 -32 -63 -32q-57 0 -57 32l7 60q3 32 63 32zM195 702q57 0 57 -31l-67 -641q-3 -32 -63 -32h-35q-57 0 -57 31l67 641q3 32 63 32h35z" />
    <glyph glyph-name="dotlessi" unicode="&#x131;" horiz-adv-x="265" 
d="M158 525q28 0 42.5 -9t14.5 -22q-37 -342 -37 -352q0 -33 30 -33q8 0 18 3t11 3q8 0 8 -11q0 -19 -7 -60q-4 -25 -31 -38.5t-57 -13.5q-121 0 -121 127l38 374q3 32 63 32h28z" />
    <glyph glyph-name="IJ" unicode="&#x132;" horiz-adv-x="684" 
d="M195 702q57 0 57 -31l-67 -641q-3 -32 -63 -32h-35q-57 0 -57 31l67 641q3 32 63 32h35zM588 702q57 0 57 -31l-50 -469q-11 -99 -68.5 -154.5t-165.5 -55.5q-96 0 -96 43q0 97 20 97q2 0 9 -2.5t21 -4.5t33 -2q45 0 67 24.5t28 79.5l47 443q3 32 63 32h35z" />
    <glyph glyph-name="ij" unicode="&#x133;" horiz-adv-x="541" 
d="M182 754q28 0 42.5 -9t14.5 -22l-9 -82q-3 -32 -63 -32h-28q-28 0 -42.5 9t-14.5 22l9 82q3 32 63 32h28zM461 754q28 0 42.5 -9t14.5 -22l-9 -82q-3 -32 -63 -32h-28q-28 0 -42.5 9t-14.5 22l9 82q3 32 63 32h28zM158 525q28 0 42.5 -9t14.5 -22q-37 -342 -37 -352
q0 -33 30 -33q8 0 18 3t11 3q8 0 8 -11q0 -19 -7 -60q-4 -25 -31 -38.5t-57 -13.5q-121 0 -121 127l38 374q3 32 63 32h28zM437 525q28 0 42.5 -9t14.5 -22l-57 -544q-8 -77 -50 -119.5t-113 -42.5q-78 0 -78 39q0 83 18 83q1 0 12 -2.5t23 -2.5q36 0 40 43l57 545
q3 32 63 32h28z" />
    <glyph glyph-name="Jcircumflex" unicode="&#x134;" horiz-adv-x="402" 
d="M311 895q48 0 59 -19l54 -102q3 -8 3 -12q0 -13 -19 -13h-22q-49 0 -64 24l-25 40l-31 -39q-19 -25 -69 -25h-24q-19 0 -19 10q0 7 7 15l76 102q14 19 63 19h11zM306 702q57 0 57 -31l-50 -469q-11 -99 -68.5 -154.5t-165.5 -55.5q-96 0 -96 43q0 97 20 97q2 0 9 -2.5
t21 -4.5t33 -2q45 0 67 24.5t28 79.5l47 443q3 32 63 32h35z" />
    <glyph glyph-name="jcircumflex" unicode="&#x135;" horiz-adv-x="276" 
d="M179 718q48 0 59 -19l54 -102q3 -8 3 -12q0 -13 -19 -13h-22q-49 0 -64 24l-25 40l-31 -39q-19 -25 -69 -25h-24q-19 0 -19 10q0 7 7 15l76 102q14 19 63 19h11zM172 525q28 0 42.5 -9t14.5 -22l-57 -544q-8 -77 -50 -119.5t-113 -42.5q-78 0 -78 39q0 83 18 83
q1 0 12 -2.5t23 -2.5q36 0 40 43l57 545q3 32 63 32h28z" />
    <glyph glyph-name="Kcommaaccent" unicode="&#x136;" horiz-adv-x="576" 
d="M545 702q55 0 55 -14q0 -9 -10 -22l-224 -296l183 -336q6 -12 6 -18q0 -18 -57 -18h-58q-50 0 -59 19l-157 304l-4 -1l-30 -290q-3 -32 -63 -32h-35q-57 0 -57 32l67 640q3 32 63 32h35q57 0 57 -32l-28 -268l4 -1l203 282q14 19 62 19h47zM278 -51q45 0 45 -44
q0 -46 -46.5 -95.5t-76.5 -49.5q-16 0 -30 5.5t-13 16.5q1 5 10.5 20t18 41.5t8.5 61.5q0 44 65 44h19z" />
    <glyph glyph-name="kcommaaccent" unicode="&#x137;" horiz-adv-x="521" 
d="M189 754q57 0 57 -32l-42 -396l4 -1l140 181q15 19 63 19h37q55 0 55 -14q0 -7 -12 -21l-159 -198l136 -258q5 -10 5 -18q0 -18 -58 -18h-42q-49 0 -58 19l-115 230l-4 -1l-23 -216q-3 -32 -63 -32h-28q-57 0 -57 32l73 692q3 32 63 32h28zM240 -51q45 0 45 -44
q0 -46 -46.5 -95.5t-76.5 -49.5q-16 0 -30 5.5t-13 16.5q1 5 10.5 20t18 41.5t8.5 61.5q0 44 65 44h19z" />
    <glyph glyph-name="kgreenlandic" unicode="&#x138;" horiz-adv-x="521" 
d="M165 525q57 0 57 -32l-18 -167l4 -1l140 181q15 19 63 19h37q55 0 55 -14q0 -7 -12 -21l-159 -198l136 -258q5 -10 5 -18q0 -18 -58 -18h-42q-49 0 -58 19l-115 230l-4 -1l-23 -216q-3 -32 -63 -32h-28q-57 0 -57 32l49 463q3 32 63 32h28z" />
    <glyph glyph-name="Lacute" unicode="&#x139;" horiz-adv-x="484" 
d="M292 911q58 0 58 -13q0 -7 -4.5 -12.5t-35.5 -34.5q-41 -40 -76 -74q-25 -25 -78 -25q-29 0 -29 13q0 3 2 7.5t8.5 14t14 20.5t22.5 32.5t30 44.5q18 27 88 27zM201 702q57 0 57 -31l-57 -540h223q26 0 26 -40q0 -91 -38 -91h-340q-20 0 -28 7t-8 25l67 638q3 32 63 32
h35z" />
    <glyph glyph-name="lacute" unicode="&#x13a;" horiz-adv-x="297" 
d="M284 931q58 0 58 -13q0 -7 -4.5 -12.5t-35.5 -34.5q-41 -40 -76 -74q-25 -25 -78 -25q-29 0 -29 13q0 3 2 7.5t8.5 14t14 20.5t22.5 32.5t30 44.5q18 27 88 27zM196 755q47 0 47 -27q-61 -582 -61 -586q0 -33 30 -33q8 0 18 3t11 3q8 0 8 -11q0 -19 -7 -60
q-4 -25 -31 -38.5t-57 -13.5q-121 0 -121 127l63 606q4 30 52 30h48z" />
    <glyph glyph-name="Lcommaaccent" unicode="&#x13b;" horiz-adv-x="484" 
d="M201 702q57 0 57 -31l-57 -540h223q26 0 26 -40q0 -91 -38 -91h-340q-20 0 -28 7t-8 25l67 638q3 32 63 32h35zM226 -51q45 0 45 -44q0 -46 -46.5 -95.5t-76.5 -49.5q-16 0 -30 5.5t-13 16.5q1 5 10.5 20t18 41.5t8.5 61.5q0 44 65 44h19z" />
    <glyph glyph-name="lcommaaccent" unicode="&#x13c;" horiz-adv-x="297" 
d="M196 755q47 0 47 -27q-61 -582 -61 -586q0 -33 30 -33q8 0 18 3t11 3q8 0 8 -11q0 -19 -7 -60q-4 -25 -31 -38.5t-57 -13.5q-121 0 -121 127l63 606q4 30 52 30h48zM157 -51q45 0 45 -44q0 -46 -46.5 -95.5t-76.5 -49.5q-16 0 -30 5.5t-13 16.5q1 5 10.5 20t18 41.5
t8.5 61.5q0 44 65 44h19z" />
    <glyph glyph-name="Lcaron" unicode="&#x13d;" horiz-adv-x="484" 
d="M201 702q57 0 57 -31l-57 -540h223q26 0 26 -40q0 -91 -38 -91h-340q-20 0 -28 7t-8 25l67 638q3 32 63 32h35zM424 700q45 0 45 -44q0 -46 -39 -95.5t-64 -49.5q-16 0 -30 5.5t-13 16.5q0 6 4.5 21.5t8.5 41.5t4 60q0 44 65 44h19z" />
    <glyph glyph-name="lcaron" unicode="&#x13e;" horiz-adv-x="297" 
d="M196 755q47 0 47 -27q-61 -582 -61 -586q0 -33 30 -33q8 0 18 3t11 3q8 0 8 -11q0 -19 -7 -60q-4 -25 -31 -38.5t-57 -13.5q-121 0 -121 127l63 606q4 30 52 30h48zM366 752q45 0 45 -44q0 -46 -39 -95.5t-64 -49.5q-16 0 -30 5.5t-13 16.5q0 6 4.5 21.5t8.5 41.5t4 60
q0 44 65 44h19z" />
    <glyph glyph-name="Ldot" unicode="&#x13f;" horiz-adv-x="484" 
d="M201 702q57 0 57 -31l-57 -540h223q26 0 26 -40q0 -91 -38 -91h-340q-20 0 -28 7t-8 25l67 638q3 32 63 32h35zM338 429q27 0 45 -18t18 -45q0 -32 -22 -54.5t-56 -22.5q-27 0 -45 17.5t-18 43.5q0 31 21 55t57 24z" />
    <glyph glyph-name="ldot" unicode="&#x140;" horiz-adv-x="297" 
d="M196 755q47 0 47 -27q-61 -582 -61 -586q0 -33 30 -33q8 0 18 3t11 3q8 0 8 -11q0 -19 -7 -60q-4 -25 -31 -38.5t-57 -13.5q-121 0 -121 127l63 606q4 30 52 30h48zM313 429q27 0 45 -18t18 -45q0 -32 -22 -54.5t-56 -22.5q-27 0 -45 17.5t-18 43.5q0 31 21 55t57 24z
" />
    <glyph glyph-name="Lslash" unicode="&#x141;" horiz-adv-x="486" 
d="M202 702q57 0 57 -31l-21 -196l92 53q10 6 16 6q9 0 9 -20q0 -48 -33 -66l-92 -53l-28 -264h223q26 0 26 -40q0 -91 -38 -91h-340q-20 0 -28 7t-8 25l28 268l-20 -11q-10 -6 -16 -6q-9 0 -9 20q0 46 33 66l20 12l31 289q3 32 63 32h35z" />
    <glyph glyph-name="lslash" unicode="&#x142;" horiz-adv-x="293" 
d="M206 755q47 0 47 -27q-12 -108 -25 -231l27 15q10 6 16 6q9 0 9 -20q0 -48 -33 -66l-27 -16q-28 -259 -28 -274q0 -33 30 -33q8 0 18 3t11 3q8 0 8 -11q0 -19 -7 -60q-4 -25 -31 -38.5t-57 -13.5q-121 0 -121 127q0 13 20 208l-19 -10q-10 -6 -16 -6q-9 0 -9 20
q0 46 33 66l19 12l35 316q4 30 52 30h48z" />
    <glyph glyph-name="Nacute" unicode="&#x143;" horiz-adv-x="719" 
d="M504 911q58 0 58 -13q0 -7 -4.5 -12.5t-35.5 -34.5q-41 -40 -76 -74q-25 -25 -78 -25q-29 0 -29 13q0 3 2 7.5t8.5 14t14 20.5t22.5 32.5t30 44.5q18 27 88 27zM626 702q57 0 57 -32l-67 -640q-3 -32 -63 -32h-38q-49 0 -64 27l-212 387l-13 23l-42 -405q-3 -32 -63 -32
h-29q-57 0 -57 32l67 640q3 32 63 32h43q49 0 64 -27l204 -375l16 -30l42 400q3 32 63 32h29z" />
    <glyph glyph-name="nacute" unicode="&#x144;" 
d="M266 575q-29 0 -29 13q0 3 2 7.5t8.5 14t14 20.5t22.5 32.5t30 44.5q18 27 88 27q58 0 58 -13q0 -7 -4.5 -12.5t-35.5 -34.5q-41 -40 -76 -74q-25 -25 -78 -25zM529 115q8 0 8 -11q0 -19 -7 -60q-4 -25 -31 -38.5t-57 -13.5q-121 0 -121 127q0 13 11.5 123.5t11.5 116.5
q0 50 -54 50q-49 0 -88 -61l-32 -318q-3 -32 -63 -32h-28q-28 0 -42.5 9t-14.5 22q38 371 38 399q0 13 -1 31.5t-1 24.5q0 16 33 26t83 10q31 0 33 -67q26 32 69 55t87 23q132 0 132 -127q0 -12 -12.5 -133t-12.5 -129q0 -33 30 -33q8 0 18 3t11 3z" />
    <glyph glyph-name="Ncommaaccent" unicode="&#x145;" horiz-adv-x="719" 
d="M626 702q57 0 57 -32l-67 -640q-3 -32 -63 -32h-38q-49 0 -64 27l-212 387l-13 23l-42 -405q-3 -32 -63 -32h-29q-57 0 -57 32l67 640q3 32 63 32h43q49 0 64 -27l204 -375l16 -30l42 400q3 32 63 32h29zM349 -51q45 0 45 -44q0 -46 -46.5 -95.5t-76.5 -49.5
q-16 0 -30 5.5t-13 16.5q1 5 10.5 20t18 41.5t8.5 61.5q0 44 65 44h19z" />
    <glyph glyph-name="ncommaaccent" unicode="&#x146;" 
d="M529 115q8 0 8 -11q0 -19 -7 -60q-4 -25 -31 -38.5t-57 -13.5q-121 0 -121 127q0 13 11.5 123.5t11.5 116.5q0 50 -54 50q-49 0 -88 -61l-32 -318q-3 -32 -63 -32h-28q-28 0 -42.5 9t-14.5 22q38 371 38 399q0 13 -1 31.5t-1 24.5q0 16 33 26t83 10q31 0 33 -67
q26 32 69 55t87 23q132 0 132 -127q0 -12 -12.5 -133t-12.5 -129q0 -33 30 -33q8 0 18 3t11 3zM265 -51q45 0 45 -44q0 -46 -46.5 -95.5t-76.5 -49.5q-16 0 -30 5.5t-13 16.5q1 5 10.5 20t18 41.5t8.5 61.5q0 44 65 44h19z" />
    <glyph glyph-name="Ncaron" unicode="&#x147;" horiz-adv-x="719" 
d="M530 895q19 0 19 -10q0 -7 -7 -15l-76 -102q-14 -19 -63 -19h-11q-48 0 -59 19l-54 102q-3 8 -3 12q0 13 19 13h22q48 0 64 -24l25 -40l31 39q18 23 69 25h24zM626 702q57 0 57 -32l-67 -640q-3 -32 -63 -32h-38q-49 0 -64 27l-212 387l-13 23l-42 -405q-3 -32 -63 -32
h-29q-57 0 -57 32l67 640q3 32 63 32h43q49 0 64 -27l204 -375l16 -30l42 400q3 32 63 32h29z" />
    <glyph glyph-name="ncaron" unicode="&#x148;" 
d="M231 591l-54 102q-3 7 -3 12q0 13 19 13h22q48 0 64 -24l25 -40l31 39q18 23 69 25h24q19 0 19 -10q0 -7 -7 -15l-76 -102q-14 -19 -63 -19h-11q-48 0 -59 19zM529 115q8 0 8 -11q0 -19 -7 -60q-4 -25 -31 -38.5t-57 -13.5q-121 0 -121 127q0 13 11.5 123.5t11.5 116.5
q0 50 -54 50q-49 0 -88 -61l-32 -318q-3 -32 -63 -32h-28q-28 0 -42.5 9t-14.5 22q38 371 38 399q0 13 -1 31.5t-1 24.5q0 16 33 26t83 10q31 0 33 -67q26 32 69 55t87 23q132 0 132 -127q0 -12 -12.5 -133t-12.5 -129q0 -33 30 -33q8 0 18 3t11 3z" />
    <glyph glyph-name="napostrophe" unicode="&#x149;" 
d="M161 677q0 -46 -46.5 -95.5t-76.5 -49.5q-16 0 -30 5.5t-13 16.5q1 5 10.5 20t18 41.5t8.5 61.5q0 44 65 44h19q45 0 45 -44zM529 115q8 0 8 -11q0 -19 -7 -60q-4 -25 -31 -38.5t-57 -13.5q-121 0 -121 127q0 13 11.5 123.5t11.5 116.5q0 50 -54 50q-49 0 -88 -61
l-32 -318q-3 -32 -63 -32h-28q-28 0 -42.5 9t-14.5 22q38 371 38 399q0 13 -1 31.5t-1 24.5q0 16 33 26t83 10q31 0 33 -67q26 32 69 55t87 23q132 0 132 -127q0 -12 -12.5 -133t-12.5 -129q0 -33 30 -33q8 0 18 3t11 3z" />
    <glyph glyph-name="Eng" unicode="&#x14a;" horiz-adv-x="719" 
d="M683 670l-67 -640h-1l-8 -80q-8 -77 -50 -119.5t-113 -42.5q-78 0 -78 39q0 83 18 83q1 0 12 -2.5t23 -2.5q36 0 40 43l6 53l-239 434l-42 -405q-3 -32 -63 -32h-29q-57 0 -57 32l67 640q3 32 63 32h43q49 0 64 -27l199 -367l21 -38l42 400q3 32 63 32h29q57 0 57 -32z
" />
    <glyph glyph-name="eng" unicode="&#x14b;" 
d="M363 531q132 0 132 -127l-47 -454q-8 -77 -50 -119.5t-113 -42.5q-78 0 -78 39q0 83 18 83q1 0 12 -2.5t23 -2.5q36 0 40 43l43 421q-3 40 -53 40q-49 0 -88 -61l-32 -318q-3 -32 -63 -32h-28q-28 0 -42.5 9t-14.5 22q38 371 38 399q0 13 -1 31.5t-1 24.5q0 16 33 26
t83 10q31 0 33 -67q26 32 69 55t87 23z" />
    <glyph glyph-name="Omacron" unicode="&#x14c;" horiz-adv-x="731" 
d="M526 869q26 0 26 -30q0 -65 -37 -65h-216q-26 0 -26 30q0 65 37 65h216zM403 708q139 0 212.5 -75.5t73.5 -218.5q0 -204 -93 -313t-268 -109q-139 0 -213 75t-74 217q0 83 20 156.5t61.5 134.5t113.5 97t167 36zM389 576q-88 0 -138.5 -72.5t-50.5 -205.5
q0 -175 142 -175q87 0 138 72.5t51 204.5q0 176 -142 176z" />
    <glyph glyph-name="omacron" unicode="&#x14d;" horiz-adv-x="569" 
d="M424 692q26 0 26 -30q0 -65 -37 -65h-216q-26 0 -26 30q0 65 37 65h216zM307 531q107 0 162 -56t55 -164q0 -152 -73 -235.5t-201 -83.5q-107 0 -162 56t-55 163q0 65 14 119.5t44 101t85.5 73t130.5 26.5zM295 414q-53 0 -82.5 -50.5t-29.5 -145.5q0 -109 79 -109
q52 0 81.5 50.5t29.5 144.5q0 110 -78 110z" />
    <glyph glyph-name="Obreve" unicode="&#x14e;" horiz-adv-x="731" 
d="M526 892q32 0 32 -24q0 -45 -47.5 -80.5t-111.5 -35.5q-60 0 -98 30.5t-38 72.5q0 37 39 37q17 0 31 -18q24 -31 76 -31q17 0 29.5 2t22.5 7.5t14 7.5t13 10l9 9q13 13 29 13zM403 708q139 0 212.5 -75.5t73.5 -218.5q0 -204 -93 -313t-268 -109q-139 0 -213 75t-74 217
q0 83 20 156.5t61.5 134.5t113.5 97t167 36zM389 576q-88 0 -138.5 -72.5t-50.5 -205.5q0 -175 142 -175q87 0 138 72.5t51 204.5q0 176 -142 176z" />
    <glyph glyph-name="obreve" unicode="&#x14f;" horiz-adv-x="569" 
d="M424 715q32 0 32 -24q0 -45 -47.5 -80.5t-111.5 -35.5q-60 0 -98 30.5t-38 72.5q0 37 39 37q17 0 31 -18q24 -31 76 -31q17 0 29.5 2t22.5 7.5t14 7.5t13 11l9 8q13 13 29 13zM307 531q107 0 162 -56t55 -164q0 -152 -73 -235.5t-201 -83.5q-107 0 -162 56t-55 163
q0 65 14 119.5t44 101t85.5 73t130.5 26.5zM295 414q-53 0 -82.5 -50.5t-29.5 -145.5q0 -109 79 -109q52 0 81.5 50.5t29.5 144.5q0 110 -78 110z" />
    <glyph glyph-name="Ohungarumlaut" unicode="&#x150;" horiz-adv-x="731" 
d="M438 911q58 0 58 -13q0 -7 -4.5 -12.5t-35.5 -34.5q-41 -40 -76 -74q-25 -25 -78 -25q-29 0 -29 13q0 3 2 7.5t8.5 14t14 20.5t22.5 32.5t30 44.5q18 27 88 27zM620 911q58 0 58 -13q0 -7 -4.5 -12.5t-35.5 -34.5q-12 -12 -20 -19.5t-24 -23t-32 -31.5q-25 -25 -78 -25
q-29 0 -29 13q0 3 2 7.5t8.5 14t14 20.5t22.5 32.5t30 44.5q18 27 88 27zM403 708q139 0 212.5 -75.5t73.5 -218.5q0 -204 -93 -313t-268 -109q-139 0 -213 75t-74 217q0 83 20 156.5t61.5 134.5t113.5 97t167 36zM389 576q-88 0 -138.5 -72.5t-50.5 -205.5q0 -175 142 -175
q87 0 138 72.5t51 204.5q0 176 -142 176z" />
    <glyph glyph-name="ohungarumlaut" unicode="&#x151;" horiz-adv-x="569" 
d="M336 734q58 0 58 -13q0 -7 -4.5 -12.5t-35.5 -34.5q-41 -40 -76 -74q-25 -25 -78 -25q-29 0 -29 13q0 3 2 7.5t8.5 14t14 20.5t22.5 32.5t30 44.5q18 27 88 27zM518 734q58 0 58 -13q0 -7 -4.5 -12.5t-35.5 -34.5q-41 -40 -76 -74q-25 -25 -78 -25q-29 0 -29 13
q0 3 2 7.5t8.5 14t14 20.5t22.5 32.5t30 44.5q18 27 88 27zM307 531q107 0 162 -56t55 -164q0 -152 -73 -235.5t-201 -83.5q-107 0 -162 56t-55 163q0 65 14 119.5t44 101t85.5 73t130.5 26.5zM295 414q-53 0 -82.5 -50.5t-29.5 -145.5q0 -109 79 -109q52 0 81.5 50.5
t29.5 144.5q0 110 -78 110z" />
    <glyph glyph-name="OE" unicode="&#x152;" horiz-adv-x="1021" 
d="M971 700q26 0 26 -40q0 -91 -38 -91h-252l-16 -145h224q26 0 26 -40q0 -91 -38 -91h-225l-18 -162h252q26 0 26 -40q0 -91 -38 -91h-368q-20 0 -28 7t-8 25v4q-78 -44 -178 -44q-135 0 -206 74.5t-71 215.5q0 203 94.5 314.5t257.5 111.5q101 0 168 -46q7 38 44 38h366z
M342 123q87 0 138 72.5t51 204.5q0 176 -142 176q-88 0 -138.5 -72.5t-50.5 -205.5q0 -175 142 -175z" />
    <glyph glyph-name="oe" unicode="&#x153;" horiz-adv-x="871" 
d="M843 386q0 -92 -65 -137.5t-150 -45.5q-55 0 -104 7q4 -58 30 -79.5t75 -21.5q35 0 71 11t58.5 22t25.5 11q8 0 8 -14q0 -1 -1 -17t-3 -34.5t-4 -25.5q-11 -37 -65 -53.5t-109 -16.5q-120 0 -180 60q-73 -60 -174 -60q-107 0 -162 56t-55 163q0 65 14 119.5t44 101
t85.5 73t130.5 26.5q104 0 160 -58q70 58 176 58q57 0 98 -15t60.5 -39t27.5 -46t8 -45zM268 109q87 0 107 129q0 18 4 46v20q0 110 -78 110q-53 0 -82.5 -50.5t-29.5 -145.5q0 -109 79 -109zM531 302h48q64 0 92 19.5t28 45.5q0 47 -60 47q-83 0 -108 -112z" />
    <glyph glyph-name="Racute" unicode="&#x154;" horiz-adv-x="610" 
d="M440 911q58 0 58 -13q0 -7 -4.5 -12.5t-35.5 -34.5q-41 -40 -76 -74q-25 -25 -78 -25q-29 0 -29 13q0 3 2 7.5t8.5 14t14 20.5t22.5 32.5t30 44.5q18 27 88 27zM340 700q231 0 231 -163q0 -66 -36.5 -114t-98.5 -70v-4q17 -7 34.5 -33.5t27.5 -58.5l65 -220q3 -12 3 -19
q-3 -20 -62 -20h-41q-49 0 -56 21l-59 195q-12 33 -30 46.5t-64 13.5h-39l-26 -244q-3 -32 -63 -32h-34q-57 0 -57 32l66 630q4 40 44 40h195zM334 569h-88l-17 -162h95q33 0 59.5 28t26.5 66q0 32 -20 50t-56 18z" />
    <glyph glyph-name="racute" unicode="&#x155;" horiz-adv-x="366" 
d="M141 575q-29 0 -29 13q0 3 2 7.5t8.5 14t14 20.5t22.5 32.5t30 44.5q18 27 88 27q58 0 58 -13q0 -7 -4.5 -12.5t-35.5 -34.5q-41 -40 -76 -74q-25 -25 -78 -25zM328 531q47 0 47 -46q0 -25 -14.5 -59t-25.5 -34q-3 0 -15 4.5t-26 4.5q-49 0 -87 -51l-32 -320
q-3 -32 -63 -32h-28q-28 0 -42.5 9t-14.5 22l34 328q4 39 4 71q0 13 -1 31.5t-1 24.5q0 16 33 26t83 10q29 0 33 -63q51 74 116 74z" />
    <glyph glyph-name="Rcommaaccent" unicode="&#x156;" horiz-adv-x="610" 
d="M340 700q231 0 231 -163q0 -66 -36.5 -114t-98.5 -70v-4q17 -7 34.5 -33.5t27.5 -58.5l65 -220q3 -12 3 -19q-3 -20 -62 -20h-41q-49 0 -56 21l-59 195q-12 33 -30 46.5t-64 13.5h-39l-26 -244q-3 -32 -63 -32h-34q-57 0 -57 32l66 630q4 40 44 40h195zM334 569h-88
l-17 -162h95q33 0 59.5 28t26.5 66q0 32 -20 50t-56 18zM284 -51q45 0 45 -44q0 -46 -46.5 -95.5t-76.5 -49.5q-16 0 -30 5.5t-13 16.5q1 5 10.5 20t18 41.5t8.5 61.5q0 44 65 44h19z" />
    <glyph glyph-name="rcommaaccent" unicode="&#x157;" horiz-adv-x="366" 
d="M328 531q47 0 47 -46q0 -25 -14.5 -59t-25.5 -34q-3 0 -15 4.5t-26 4.5q-49 0 -87 -51l-32 -320q-3 -32 -63 -32h-28q-28 0 -42.5 9t-14.5 22l34 328q4 39 4 71q0 13 -1 31.5t-1 24.5q0 16 33 26t83 10q29 0 33 -63q51 74 116 74zM120 -51q45 0 45 -44q0 -46 -46.5 -95.5
t-76.5 -49.5q-16 0 -30 5.5t-13 16.5q1 5 10.5 20t18 41.5t8.5 61.5q0 44 65 44h19z" />
    <glyph glyph-name="Rcaron" unicode="&#x158;" horiz-adv-x="610" 
d="M466 895q19 0 19 -10q0 -7 -7 -15l-76 -102q-14 -19 -63 -19h-11q-48 0 -59 19l-54 102q-3 8 -3 12q0 13 19 13h22q48 0 64 -24l25 -40l31 39q18 23 69 25h24zM340 700q231 0 231 -163q0 -66 -36.5 -114t-98.5 -70v-4q17 -7 34.5 -33.5t27.5 -58.5l65 -220q3 -12 3 -19
q-3 -20 -62 -20h-41q-49 0 -56 21l-59 195q-12 33 -30 46.5t-64 13.5h-39l-26 -244q-3 -32 -63 -32h-34q-57 0 -57 32l66 630q4 40 44 40h195zM334 569h-88l-17 -162h95q33 0 59.5 28t26.5 66q0 32 -20 50t-56 18z" />
    <glyph glyph-name="rcaron" unicode="&#x159;" horiz-adv-x="366" 
d="M106 591l-54 102q-3 7 -3 12q0 13 19 13h22q48 0 64 -24l25 -40l31 39q18 23 69 25h24q19 0 19 -10q0 -7 -7 -15l-76 -102q-14 -19 -63 -19h-11q-48 0 -59 19zM328 531q47 0 47 -46q0 -25 -14.5 -59t-25.5 -34q-3 0 -15 4.5t-26 4.5q-49 0 -87 -51l-32 -320
q-3 -32 -63 -32h-28q-28 0 -42.5 9t-14.5 22l34 328q4 39 4 71q0 13 -1 31.5t-1 24.5q0 16 33 26t83 10q29 0 33 -63q51 74 116 74z" />
    <glyph glyph-name="Sacute" unicode="&#x15a;" horiz-adv-x="500" 
d="M397 911q58 0 58 -13q0 -7 -4.5 -12.5t-35.5 -34.5q-41 -40 -76 -74q-25 -25 -78 -25q-29 0 -29 13q0 3 2 7.5t8.5 14t14 20.5t22.5 32.5t30 44.5q18 27 88 27zM311 708q73 0 122 -21t49 -47q0 -20 -23.5 -54.5t-39.5 -34.5q-3 0 -19 6q-46 19 -91 19q-99 0 -99 -65
q0 -22 15 -40t31.5 -27.5t49.5 -25.5q37 -18 57.5 -30.5t49 -37.5t42 -60.5t13.5 -81.5q0 -58 -23 -102t-60.5 -67.5t-79 -35t-85.5 -11.5q-28 0 -59 4t-62.5 13t-52 25t-20.5 36q0 111 24 111q7 0 29 -15q66 -43 125 -43q42 0 72.5 17t30.5 58q0 20 -7.5 36t-25 30
t-32 22.5t-41.5 22.5q-36 19 -55 31.5t-46 36.5t-39 55t-12 72q0 69 39.5 117t96.5 67.5t126 19.5z" />
    <glyph glyph-name="sacute" unicode="&#x15b;" horiz-adv-x="413" 
d="M335 734q58 0 58 -13q0 -7 -4.5 -12.5t-35.5 -34.5q-41 -40 -76 -74q-25 -25 -78 -25q-29 0 -29 13q0 3 2 7.5t8.5 14t14 20.5t22.5 32.5t30 44.5q18 27 88 27zM241 531q52 0 98.5 -14.5t46.5 -46.5q0 -16 -19.5 -45.5t-33.5 -29.5q-7 0 -20 6q-40 14 -65 14
q-27 0 -40.5 -12t-13.5 -32q0 -12 10 -22.5t19.5 -16t31.5 -16.5q26 -12 41 -21t35.5 -26.5t30.5 -43.5t10 -60q0 -81 -56.5 -127t-144.5 -46q-19 0 -40 2t-48 8t-44 19t-17 32q0 90 22 90q3 0 19 -9q50 -25 91 -25q66 0 66 44q0 15 -10.5 27t-21 18t-33.5 17
q-26 13 -40 21.5t-34 26t-29.5 42t-9.5 57.5q0 79 55.5 124t143.5 45z" />
    <glyph glyph-name="Scircumflex" unicode="&#x15c;" horiz-adv-x="500" 
d="M310 895q48 0 59 -19l54 -102q3 -8 3 -12q0 -13 -19 -13h-22q-49 0 -64 24l-25 40l-31 -39q-19 -25 -69 -25h-24q-19 0 -19 10q0 7 7 15l76 102q14 19 63 19h11zM311 708q73 0 122 -21t49 -47q0 -20 -23.5 -54.5t-39.5 -34.5q-3 0 -19 6q-46 19 -91 19q-99 0 -99 -65
q0 -22 15 -40t31.5 -27.5t49.5 -25.5q37 -18 57.5 -30.5t49 -37.5t42 -60.5t13.5 -81.5q0 -58 -23 -102t-60.5 -67.5t-79 -35t-85.5 -11.5q-28 0 -59 4t-62.5 13t-52 25t-20.5 36q0 111 24 111q7 0 29 -15q66 -43 125 -43q42 0 72.5 17t30.5 58q0 20 -7.5 36t-25 30
t-32 22.5t-41.5 22.5q-36 19 -55 31.5t-46 36.5t-39 55t-12 72q0 69 39.5 117t96.5 67.5t126 19.5z" />
    <glyph glyph-name="scircumflex" unicode="&#x15d;" horiz-adv-x="413" 
d="M248 718q48 0 59 -19l54 -102q3 -8 3 -12q0 -13 -19 -13h-22q-49 0 -64 24l-25 40l-31 -39q-19 -25 -69 -25h-24q-19 0 -19 10q0 7 7 15l76 102q14 19 63 19h11zM241 531q52 0 98.5 -14.5t46.5 -46.5q0 -16 -19.5 -45.5t-33.5 -29.5q-7 0 -20 6q-40 14 -65 14
q-27 0 -40.5 -12t-13.5 -32q0 -12 10 -22.5t19.5 -16t31.5 -16.5q26 -12 41 -21t35.5 -26.5t30.5 -43.5t10 -60q0 -81 -56.5 -127t-144.5 -46q-19 0 -40 2t-48 8t-44 19t-17 32q0 90 22 90q3 0 19 -9q50 -25 91 -25q66 0 66 44q0 15 -10.5 27t-21 18t-33.5 17
q-26 13 -40 21.5t-34 26t-29.5 42t-9.5 57.5q0 79 55.5 124t143.5 45z" />
    <glyph glyph-name="Scedilla" unicode="&#x15e;" horiz-adv-x="500" 
d="M306 418q37 -18 57.5 -30.5t49 -37.5t42 -60.5t13.5 -81.5q0 -97 -59 -149.5t-144 -63.5l-12 -30q28 -5 49 -24t21 -51q0 -50 -34 -76t-95 -26q-14 0 -28.5 1.5t-33 6.5t-30 16.5t-11.5 27.5q0 48 14 48q2 0 32 -13.5t57 -13.5q23 0 25 17q0 12 -24 24t-24 24q0 7 26 67
q-65 4 -118 23t-53 54q0 111 24 111q7 0 29 -15q66 -43 125 -43q42 0 72.5 17t30.5 58q0 20 -7.5 36t-25 30t-32 22.5t-41.5 22.5q-36 19 -55 31.5t-46 36.5t-39 55t-12 72q0 69 39.5 117t96.5 67.5t126 19.5q73 0 122 -21t49 -47q0 -20 -23.5 -54.5t-39.5 -34.5q-3 0 -19 6
q-46 19 -91 19q-99 0 -99 -65q0 -22 15 -40t31.5 -27.5t49.5 -25.5z" />
    <glyph glyph-name="scedilla" unicode="&#x15f;" horiz-adv-x="413" 
d="M255 316q26 -12 41 -21t35.5 -26.5t30.5 -43.5t10 -60q0 -69 -42 -113t-111 -56l-12 -31q28 -5 49 -24t21 -51q0 -50 -34 -76t-95 -26q-14 0 -28.5 1.5t-33 6.5t-30 16.5t-11.5 27.5q0 48 14 48q2 0 32 -13.5t57 -13.5q23 0 25 17q0 12 -24 24t-24 24q0 7 26 67
q-21 1 -40.5 4t-41 9.5t-34.5 18.5t-13 28q0 90 22 90q3 0 19 -9q50 -25 91 -25q66 0 66 44q0 15 -10.5 27t-21 18t-33.5 17q-26 13 -40 21.5t-34 26t-29.5 42t-9.5 57.5q0 79 55.5 124t143.5 45q52 0 98.5 -14.5t46.5 -46.5q0 -16 -19.5 -45.5t-33.5 -29.5q-7 0 -20 6
q-40 14 -65 14q-27 0 -40.5 -12t-13.5 -32q0 -12 10 -22.5t19.5 -16t31.5 -16.5z" />
    <glyph glyph-name="Scaron" unicode="&#x160;" horiz-adv-x="500" 
d="M423 895q19 0 19 -10q0 -7 -7 -15l-76 -102q-14 -19 -63 -19h-11q-48 0 -59 19l-54 102q-3 8 -3 12q0 13 19 13h22q48 0 64 -24l25 -40l31 39q18 23 69 25h24zM311 708q73 0 122 -21t49 -47q0 -20 -23.5 -54.5t-39.5 -34.5q-3 0 -19 6q-46 19 -91 19q-99 0 -99 -65
q0 -22 15 -40t31.5 -27.5t49.5 -25.5q37 -18 57.5 -30.5t49 -37.5t42 -60.5t13.5 -81.5q0 -58 -23 -102t-60.5 -67.5t-79 -35t-85.5 -11.5q-28 0 -59 4t-62.5 13t-52 25t-20.5 36q0 111 24 111q7 0 29 -15q66 -43 125 -43q42 0 72.5 17t30.5 58q0 20 -7.5 36t-25 30
t-32 22.5t-41.5 22.5q-36 19 -55 31.5t-46 36.5t-39 55t-12 72q0 69 39.5 117t96.5 67.5t126 19.5z" />
    <glyph glyph-name="scaron" unicode="&#x161;" horiz-adv-x="413" 
d="M361 718q19 0 19 -10q0 -7 -7 -15l-76 -102q-14 -19 -63 -19h-11q-48 0 -59 19l-54 102q-3 7 -3 12q0 13 19 13h22q48 0 64 -24l25 -40l31 39q18 23 69 25h24zM241 531q52 0 98.5 -14.5t46.5 -46.5q0 -16 -19.5 -45.5t-33.5 -29.5q-7 0 -20 6q-40 14 -65 14
q-27 0 -40.5 -12t-13.5 -32q0 -12 10 -22.5t19.5 -16t31.5 -16.5q26 -12 41 -21t35.5 -26.5t30.5 -43.5t10 -60q0 -81 -56.5 -127t-144.5 -46q-19 0 -40 2t-48 8t-44 19t-17 32q0 90 22 90q3 0 19 -9q50 -25 91 -25q66 0 66 44q0 15 -10.5 27t-21 18t-33.5 17
q-26 13 -40 21.5t-34 26t-29.5 42t-9.5 57.5q0 79 55.5 124t143.5 45z" />
    <glyph glyph-name="uni0162" unicode="&#x162;" horiz-adv-x="549" 
d="M546 700q26 0 26 -40q0 -91 -38 -91h-160l-57 -539q-3 -27 -50 -32l-13 -33q28 -5 49 -24t21 -51q0 -50 -34 -76t-95 -26q-14 0 -28.5 1.5t-33 6.5t-30 16.5t-11.5 27.5q0 48 14 48q2 0 32 -13.5t57 -13.5q23 0 25 17q0 12 -24 24t-24 24q0 7 29 73q-39 4 -39 30l57 540
h-159q-26 0 -26 40q0 91 38 91h474z" />
    <glyph glyph-name="uni0163" unicode="&#x163;" horiz-adv-x="342" 
d="M262 406h-29q-28 -261 -28 -264q0 -33 30 -33q11 0 24 3t14 3q8 0 8 -11q0 -19 -7 -60q-4 -24 -28.5 -37t-53.5 -15l-11 -27q28 -5 49 -24t21 -51q0 -50 -34 -76t-95 -26q-14 0 -28.5 1.5t-33 6.5t-30 16.5t-11.5 27.5q0 48 14 48q2 0 32 -13.5t57 -13.5q23 0 25 17
q0 12 -24 24t-24 24q0 7 30 75q-73 25 -73 124l29 281h-20q-26 0 -26 36q0 81 38 81h20l10 95q3 32 63 32h28q28 0 42.5 -9t14.5 -22l-10 -96h59q10 0 13 -4.5t3 -15.5q0 -33 -15.5 -65t-42.5 -32z" />
    <glyph glyph-name="Tcaron" unicode="&#x164;" horiz-adv-x="549" 
d="M443 895q19 0 19 -10q0 -7 -7 -15l-76 -102q-14 -19 -63 -19h-11q-48 0 -59 19l-54 102q-3 8 -3 12q0 13 19 13h22q48 0 64 -24l25 -40l31 39q18 23 69 25h24zM546 700q26 0 26 -40q0 -91 -38 -91h-160l-57 -539q-3 -32 -63 -32h-35q-57 0 -57 31l57 540h-159
q-26 0 -26 40q0 91 38 91h474z" />
    <glyph glyph-name="tcaron" unicode="&#x165;" horiz-adv-x="342" 
d="M384 752q45 0 45 -44q0 -46 -39 -95.5t-64 -49.5q-16 0 -30 5.5t-13 16.5q0 6 4.5 21.5t8.5 41.5t4 60q0 44 65 44h19zM198 650q28 0 42.5 -9t14.5 -22l-10 -96h59q10 0 13 -4.5t3 -15.5q0 -33 -15.5 -65t-42.5 -32h-29q-28 -261 -28 -264q0 -33 30 -33q11 0 24 3t14 3
q8 0 8 -11q0 -19 -7 -60q-4 -25 -31 -38.5t-57 -13.5q-130 0 -130 133l29 281h-20q-26 0 -26 36q0 81 38 81h20l10 95q3 32 63 32h28z" />
    <glyph glyph-name="Tbar" unicode="&#x166;" horiz-adv-x="549" 
d="M546 700q26 0 26 -40q0 -91 -38 -91h-160l-18 -171h102q26 0 26 -30q0 -65 -37 -65h-101l-29 -273q-3 -32 -63 -32h-35q-57 0 -57 31l29 274h-100q-26 0 -26 30q0 65 37 65h99l18 171h-159q-26 0 -26 40q0 91 38 91h474z" />
    <glyph glyph-name="tbar" unicode="&#x167;" horiz-adv-x="342" 
d="M262 406h-29l-7 -66h37q26 0 26 -30q0 -65 -37 -65h-36l-11 -103q0 -33 30 -33q11 0 24 3t14 3q8 0 8 -11q0 -19 -7 -60q-4 -25 -31 -38.5t-57 -13.5q-130 0 -130 133q0 14 11 120h-31q-26 0 -26 30q0 65 37 65h31l7 66h-20q-26 0 -26 36q0 81 38 81h20l10 95q3 32 63 32
h28q28 0 42.5 -9t14.5 -22l-10 -96h59q10 0 13 -4.5t3 -15.5q0 -33 -15.5 -65t-42.5 -32z" />
    <glyph glyph-name="Utilde" unicode="&#x168;" horiz-adv-x="712" 
d="M331 871q18 0 72 -14t69 -15q19 0 33 16q17 22 40 15l11 -3q17 -5 21.5 -18t-1.5 -23q-11 -29 -39.5 -49.5t-69.5 -20.5q-18 0 -71.5 14t-68.5 15q-19 0 -33 -16q-18 -22 -41 -15l-11 3q-31 9 -20 41q11 29 40 49.5t69 20.5zM622 702q56 0 56 -32l-45 -436
q-12 -115 -95.5 -178.5t-220.5 -63.5q-127 0 -196.5 54.5t-69.5 154.5q0 11 47 469q3 32 64 32h34q56 0 56 -32q-45 -431 -45 -441q0 -47 34 -76.5t90 -29.5q60 0 102.5 34t47.5 87l44 426q3 32 64 32h33z" />
    <glyph glyph-name="utilde" unicode="&#x169;" 
d="M140 583q-31 9 -20 41q11 29 40 49.5t69 20.5q18 0 72 -14t69 -15q19 0 33 16q17 22 40 15l11 -3q17 -5 21.5 -18t-1.5 -23q-11 -29 -39.5 -49.5t-69.5 -20.5q-18 0 -71.5 14t-68.5 15q-19 0 -33 -16q-18 -22 -41 -15zM523 115q8 0 8 -11q0 -19 -7 -60q-4 -25 -31 -38.5
t-57 -13.5q-97 0 -116 80q-29 -34 -72 -57t-88 -23q-68 0 -100 31t-32 96q0 16 9 109.5t19 179.5l9 85q3 32 63 32h28q28 0 42.5 -9t14.5 -22q-34 -318 -34 -331q0 -49 54 -49q47 0 86 54l34 325q3 32 63 32h28q28 0 42.5 -9t14.5 -22q-37 -342 -37 -352q0 -33 30 -33
q8 0 18 3t11 3z" />
    <glyph glyph-name="Umacron" unicode="&#x16a;" horiz-adv-x="712" 
d="M526 869q26 0 26 -30q0 -65 -37 -65h-216q-26 0 -26 30q0 65 37 65h216zM622 702q56 0 56 -32l-45 -436q-12 -115 -95.5 -178.5t-220.5 -63.5q-127 0 -196.5 54.5t-69.5 154.5q0 11 47 469q3 32 64 32h34q56 0 56 -32q-45 -431 -45 -441q0 -47 34 -76.5t90 -29.5
q60 0 102.5 34t47.5 87l44 426q3 32 64 32h33z" />
    <glyph glyph-name="umacron" unicode="&#x16b;" 
d="M197 597q-26 0 -26 30q0 65 37 65h216q26 0 26 -30q0 -65 -37 -65h-216zM523 115q8 0 8 -11q0 -19 -7 -60q-4 -25 -31 -38.5t-57 -13.5q-97 0 -116 80q-29 -34 -72 -57t-88 -23q-68 0 -100 31t-32 96q0 16 9 109.5t19 179.5l9 85q3 32 63 32h28q28 0 42.5 -9t14.5 -22
q-34 -318 -34 -331q0 -49 54 -49q47 0 86 54l34 325q3 32 63 32h28q28 0 42.5 -9t14.5 -22q-37 -342 -37 -352q0 -33 30 -33q8 0 18 3t11 3z" />
    <glyph glyph-name="Ubreve" unicode="&#x16c;" horiz-adv-x="712" 
d="M526 892q32 0 32 -24q0 -45 -47.5 -80.5t-111.5 -35.5q-60 0 -98 30.5t-38 72.5q0 37 39 37q17 0 31 -18q24 -31 76 -31q17 0 29.5 2t22.5 7.5t14 7.5t13 10l9 9q13 13 29 13zM622 702q56 0 56 -32l-45 -436q-12 -115 -95.5 -178.5t-220.5 -63.5q-127 0 -196.5 54.5
t-69.5 154.5q0 11 47 469q3 32 64 32h34q56 0 56 -32q-45 -431 -45 -441q0 -47 34 -76.5t90 -29.5q60 0 102.5 34t47.5 87l44 426q3 32 64 32h33z" />
    <glyph glyph-name="ubreve" unicode="&#x16d;" 
d="M297 575q-60 0 -98 30.5t-38 72.5q0 37 39 37q17 0 31 -18q24 -31 76 -31q17 0 29.5 2t22.5 7.5t14 7.5t13 11l9 8q13 13 29 13q32 0 32 -24q0 -45 -47.5 -80.5t-111.5 -35.5zM523 115q8 0 8 -11q0 -19 -7 -60q-4 -25 -31 -38.5t-57 -13.5q-97 0 -116 80q-29 -34 -72 -57
t-88 -23q-68 0 -100 31t-32 96q0 16 9 109.5t19 179.5l9 85q3 32 63 32h28q28 0 42.5 -9t14.5 -22q-34 -318 -34 -331q0 -49 54 -49q47 0 86 54l34 325q3 32 63 32h28q28 0 42.5 -9t14.5 -22q-37 -342 -37 -352q0 -33 30 -33q8 0 18 3t11 3z" />
    <glyph glyph-name="Uring" unicode="&#x16e;" horiz-adv-x="712" 
d="M420 926q39 0 64 -25.5t25 -63.5q0 -47 -29.5 -78.5t-80.5 -31.5q-39 0 -64.5 25.5t-25.5 63.5q0 47 30.5 78.5t80.5 31.5zM413 862q-16 0 -28 -12.5t-12 -28.5q0 -14 9.5 -23t23.5 -9q16 0 28 11.5t12 27.5q0 14 -9.5 24t-23.5 10zM622 702q56 0 56 -32l-45 -436
q-12 -115 -95.5 -178.5t-220.5 -63.5q-127 0 -196.5 54.5t-69.5 154.5q0 11 47 469q3 32 64 32h34q56 0 56 -32q-45 -431 -45 -441q0 -47 34 -76.5t90 -29.5q60 0 102.5 34t47.5 87l44 426q3 32 64 32h33z" />
    <glyph glyph-name="uring" unicode="&#x16f;" 
d="M297 550q-39 0 -64.5 25t-25.5 64q0 47 30.5 78.5t80.5 31.5q39 0 64 -25.5t25 -63.5q0 -47 -29.5 -78.5t-80.5 -31.5zM311 685q-16 0 -28 -12.5t-12 -28.5q0 -14 9.5 -23t23.5 -9q16 0 28 11.5t12 27.5q0 14 -9.5 24t-23.5 10zM523 115q8 0 8 -11q0 -19 -7 -60
q-4 -25 -31 -38.5t-57 -13.5q-97 0 -116 80q-29 -34 -72 -57t-88 -23q-68 0 -100 31t-32 96q0 16 9 109.5t19 179.5l9 85q3 32 63 32h28q28 0 42.5 -9t14.5 -22q-34 -318 -34 -331q0 -49 54 -49q47 0 86 54l34 325q3 32 63 32h28q28 0 42.5 -9t14.5 -22q-37 -342 -37 -352
q0 -33 30 -33q8 0 18 3t11 3z" />
    <glyph glyph-name="Uhungarumlaut" unicode="&#x170;" horiz-adv-x="712" 
d="M438 911q58 0 58 -13q0 -7 -4.5 -12.5t-35.5 -34.5q-41 -40 -76 -74q-25 -25 -78 -25q-29 0 -29 13q0 3 2 7.5t8.5 14t14 20.5t22.5 32.5t30 44.5q18 27 88 27zM620 911q58 0 58 -13q0 -7 -4.5 -12.5t-35.5 -34.5q-12 -12 -20 -19.5t-24 -23t-32 -31.5q-25 -25 -78 -25
q-29 0 -29 13q0 3 2 7.5t8.5 14t14 20.5t22.5 32.5t30 44.5q18 27 88 27zM622 702q56 0 56 -32l-45 -436q-12 -115 -95.5 -178.5t-220.5 -63.5q-127 0 -196.5 54.5t-69.5 154.5q0 11 47 469q3 32 64 32h34q56 0 56 -32q-45 -431 -45 -441q0 -47 34 -76.5t90 -29.5
q60 0 102.5 34t47.5 87l44 426q3 32 64 32h33z" />
    <glyph glyph-name="uhungarumlaut" unicode="&#x171;" 
d="M200 575q-29 0 -29 13q0 3 2 7.5t8.5 14t14 20.5t22.5 32.5t30 44.5q18 27 88 27q58 0 58 -13q0 -7 -4.5 -12.5t-35.5 -34.5q-41 -40 -76 -74q-25 -25 -78 -25zM518 734q58 0 58 -13q0 -7 -4.5 -12.5t-35.5 -34.5q-41 -40 -76 -74q-25 -25 -78 -25q-29 0 -29 13
q0 3 2 7.5t8.5 14t14 20.5t22.5 32.5t30 44.5q18 27 88 27zM523 115q8 0 8 -11q0 -19 -7 -60q-4 -25 -31 -38.5t-57 -13.5q-97 0 -116 80q-29 -34 -72 -57t-88 -23q-68 0 -100 31t-32 96q0 16 9 109.5t19 179.5l9 85q3 32 63 32h28q28 0 42.5 -9t14.5 -22q-34 -318 -34 -331
q0 -49 54 -49q47 0 86 54l34 325q3 32 63 32h28q28 0 42.5 -9t14.5 -22q-37 -342 -37 -352q0 -33 30 -33q8 0 18 3t11 3z" />
    <glyph glyph-name="Uogonek" unicode="&#x172;" horiz-adv-x="712" 
d="M622 702q56 0 56 -32l-45 -436q-10 -95 -69 -155.5t-159 -78.5v-3q0 -6 -9 -26.5t-9 -40.5q0 -43 58 -43q18 0 37 7t21 7q11 0 11 -30q0 -29 -26 -41.5t-62 -12.5q-62 0 -85 27t-23 62q0 53 27 87q-9 -1 -28 -1q-127 0 -196.5 54.5t-69.5 154.5q0 11 47 469q3 32 64 32
h34q56 0 56 -32q-45 -431 -45 -441q0 -47 34 -76.5t90 -29.5q60 0 102.5 34t47.5 87l44 426q3 32 64 32h33z" />
    <glyph glyph-name="uogonek" unicode="&#x173;" 
d="M580 -99q11 0 11 -30q0 -29 -26 -41.5t-62 -12.5q-62 0 -85 27t-23 62q0 52 27 86q-85 6 -102 80q-29 -34 -72 -57t-88 -23q-68 0 -100 31t-32 96q0 16 9 109.5t19 179.5l9 85q3 32 63 32h28q28 0 42.5 -9t14.5 -22q-34 -318 -34 -331q0 -49 54 -49q47 0 86 54l34 325
q3 32 63 32h28q28 0 42.5 -9t14.5 -22q-37 -342 -37 -352q0 -33 30 -33q8 0 18 3t11 3q8 0 8 -11q0 -19 -7 -60q-5 -30 -42 -44v-3q0 -6 -9 -26.5t-9 -40.5q0 -43 58 -43q18 0 37 7t21 7z" />
    <glyph glyph-name="Wcircumflex" unicode="&#x174;" horiz-adv-x="882" 
d="M504 895q48 0 59 -19l54 -102q3 -8 3 -12q0 -13 -19 -13h-22q-49 0 -64 24l-25 40l-31 -39q-19 -25 -69 -25h-24q-19 0 -19 10q0 7 7 15l76 102q14 19 63 19h11zM860 702q60 0 60 -25q0 -4 -234 -658q-8 -21 -57 -21h-73q-50 0 -53 21l-43 327l-12 87l-32 -90l-113 -324
q-9 -21 -57 -21h-72q-52 0 -53 21l-92 650q0 33 65 33h26q60 0 64 -31l41 -322q3 -24 8.5 -72t7.5 -72l49 144l117 332q8 21 57 21h38q50 0 53 -21l44 -332l19 -151l49 151l112 322q10 31 70 31h11z" />
    <glyph glyph-name="wcircumflex" unicode="&#x175;" horiz-adv-x="747" 
d="M425 718q48 0 59 -19l54 -102q3 -8 3 -12q0 -13 -19 -13h-22q-49 0 -64 24l-25 40l-31 -39q-19 -25 -69 -25h-24q-19 0 -19 10q0 7 7 15l76 102q14 19 63 19h11zM685 525q59 0 59 -24q0 -7 -3 -17l-167 -465q-8 -21 -57 -21h-49q-48 0 -53 21l-42 281l-98 -281
q-7 -21 -57 -21h-49q-50 0 -53 21q-78 469 -78 480q3 26 65 26h24q50 0 53 -21l47 -308l108 308q7 21 57 21h24q50 0 53 -21l42 -308l113 308q8 21 61 21z" />
    <glyph glyph-name="Ycircumflex" unicode="&#x176;" horiz-adv-x="559" 
d="M334 895q48 0 59 -19l54 -102q3 -8 3 -12q0 -13 -19 -13h-22q-49 0 -64 24l-25 40l-31 -39q-19 -25 -69 -25h-24q-19 0 -19 10q0 7 7 15l76 102q14 19 63 19h11zM504 702h36q61 0 61 -20q0 -9 -11 -25l-233 -324l-32 -303q-3 -32 -63 -32h-34q-57 0 -57 32l32 306
l-165 321q-6 12 -6 21q0 11 10.5 16.5t22 6.5t31.5 1h43q49 0 58 -19l100 -214l145 214q13 19 62 19z" />
    <glyph glyph-name="ycircumflex" unicode="&#x177;" horiz-adv-x="481" 
d="M282 718q48 0 59 -19l54 -102q3 -8 3 -12q0 -13 -19 -13h-22q-49 0 -64 24l-25 40l-31 -39q-19 -25 -69 -25h-24q-19 0 -19 10q0 7 7 15l76 102q14 19 63 19h11zM437 525q58 0 58 -21q0 -7 -5 -19l-300 -670q-9 -21 -58 -21h-17q-58 0 -58 20q0 8 6 19l81 167
q-117 494 -117 499q0 26 64 26h32q49 0 54 -21l39 -185q4 -19 16 -121h4q27 89 40 121l79 185q9 21 58 21h24z" />
    <glyph glyph-name="Ydieresis" unicode="&#x178;" horiz-adv-x="559" 
d="M243 879q57 0 57 -32l-7 -60q-5 -32 -63 -32q-57 0 -57 32l7 60q3 32 63 32zM423 879q57 0 57 -32l-7 -60q-5 -32 -63 -32q-57 0 -57 32l7 60q3 32 63 32zM504 702h36q61 0 61 -20q0 -9 -11 -25l-233 -324l-32 -303q-3 -32 -63 -32h-34q-57 0 -57 32l32 306l-165 321
q-6 12 -6 21q0 11 10.5 16.5t22 6.5t31.5 1h43q49 0 58 -19l100 -214l145 214q13 19 62 19z" />
    <glyph glyph-name="Zacute" unicode="&#x179;" horiz-adv-x="616" 
d="M440 911q58 0 58 -13q0 -7 -4.5 -12.5t-35.5 -34.5q-41 -40 -76 -74q-25 -25 -78 -25q-29 0 -29 13q0 3 2 7.5t8.5 14t14 20.5t22.5 32.5t30 44.5q18 27 88 27zM572 700q13 0 22.5 -31t9.5 -56q0 -12 -3 -15l-382 -467h305q26 0 26 -40q0 -91 -38 -91h-479
q-13 0 -22.5 31t-9.5 56q0 12 3 15l381 467h-278q-26 0 -26 40q0 91 38 91h453z" />
    <glyph glyph-name="zacute" unicode="&#x17a;" horiz-adv-x="489" 
d="M393 734q58 0 58 -13q0 -7 -4.5 -12.5t-35.5 -34.5q-41 -40 -76 -74q-25 -25 -78 -25q-29 0 -29 13q0 3 2 7.5t8.5 14t14 20.5t22.5 32.5t30 44.5q18 27 88 27zM448 523q9 0 16.5 -25.5t7.5 -47.5q0 -15 -4 -19l-261 -314h207q26 0 26 -36q0 -81 -38 -81h-371
q-9 0 -16.5 25.5t-7.5 47.5q0 15 4 19l261 314h-188q-26 0 -26 36q0 81 38 81h352z" />
    <glyph glyph-name="Zdotaccent" unicode="&#x17b;" horiz-adv-x="616" 
d="M338 879q57 0 57 -32l-7 -60q-5 -32 -63 -32q-57 0 -57 32l7 60q3 32 63 32zM572 700q13 0 22.5 -31t9.5 -56q0 -12 -3 -15l-382 -467h305q26 0 26 -40q0 -91 -38 -91h-479q-13 0 -22.5 31t-9.5 56q0 12 3 15l381 467h-278q-26 0 -26 40q0 91 38 91h453z" />
    <glyph glyph-name="zdotaccent" unicode="&#x17c;" horiz-adv-x="489" 
d="M291 702q57 0 57 -32l-7 -60q-5 -32 -63 -32q-57 0 -57 32l7 60q3 32 63 32zM448 523q9 0 16.5 -25.5t7.5 -47.5q0 -15 -4 -19l-261 -314h207q26 0 26 -36q0 -81 -38 -81h-371q-9 0 -16.5 25.5t-7.5 47.5q0 15 4 19l261 314h-188q-26 0 -26 36q0 81 38 81h352z" />
    <glyph glyph-name="Zcaron" unicode="&#x17d;" horiz-adv-x="616" 
d="M466 895q19 0 19 -10q0 -7 -7 -15l-76 -102q-14 -19 -63 -19h-11q-48 0 -59 19l-54 102q-3 8 -3 12q0 13 19 13h22q48 0 64 -24l25 -40l31 39q18 23 69 25h24zM572 700q13 0 22.5 -31t9.5 -56q0 -12 -3 -15l-382 -467h305q26 0 26 -40q0 -91 -38 -91h-479q-13 0 -22.5 31
t-9.5 56q0 12 3 15l381 467h-278q-26 0 -26 40q0 91 38 91h453z" />
    <glyph glyph-name="zcaron" unicode="&#x17e;" horiz-adv-x="489" 
d="M419 718q19 0 19 -10q0 -7 -7 -15l-76 -102q-14 -19 -63 -19h-11q-48 0 -59 19l-54 102q-3 7 -3 12q0 13 19 13h22q48 0 64 -24l25 -40l31 39q18 23 69 25h24zM448 523q9 0 16.5 -25.5t7.5 -47.5q0 -15 -4 -19l-261 -314h207q26 0 26 -36q0 -81 -38 -81h-371
q-9 0 -16.5 25.5t-7.5 47.5q0 15 4 19l261 314h-188q-26 0 -26 36q0 81 38 81h352z" />
    <glyph glyph-name="longs" unicode="&#x17f;" horiz-adv-x="325" 
d="M263 760q96 0 96 -46q0 -16 -12.5 -46t-24.5 -30q-2 0 -12 2.5t-21 2.5q-36 0 -40 -43l-60 -570q-3 -32 -63 -32h-28q-28 0 -42.5 9t-14.5 22l39 377h-20q-26 0 -26 36q0 81 38 81h21l7 75q7 77 49.5 119.5t113.5 42.5z" />
    <glyph glyph-name="uni018F" unicode="&#x18f;" horiz-adv-x="672" 
d="M339 708q145 0 215.5 -72t70.5 -203q0 -222 -92 -330.5t-233 -108.5q-72 0 -123 20.5t-75.5 54t-35 65.5t-10.5 65q0 63 23.5 111.5t63 76t84.5 41.5t94 14q79 0 154 -7q-3 89 -42 122.5t-113 33.5q-46 0 -93.5 -16t-77.5 -32t-34 -16q-8 0 -8 14q0 1 1 17t3 34.5t4 25.5
q14 47 84 68.5t140 21.5zM468 343h-98q-91 0 -130.5 -38t-39.5 -87q0 -54 29.5 -80.5t80.5 -26.5q125 0 158 232z" />
    <glyph glyph-name="florin" unicode="&#x192;" horiz-adv-x="332" 
d="M262 760q94 0 94 -44q0 -14 -13 -46t-26 -32q-3 0 -12 2.5t-21 2.5q-36 0 -42 -43l-11 -77h60q10 0 13 -4.5t3 -15.5q0 -31 -18 -64t-44 -33h-30l-80 -580q-5 -32 -63 -32h-28q-28 0 -42.5 9t-14.5 22l80 581h-20q-24 0 -24 29q0 88 40 88h21l9 75q9 76 53.5 119
t115.5 43z" />
    <glyph glyph-name="Ohorn" unicode="&#x1a0;" horiz-adv-x="731" 
d="M606 642q83 -75 83 -228q0 -204 -93 -313t-268 -109q-139 0 -213 75t-74 217q0 83 20 156.5t61.5 134.5t113.5 97t167 36q80 0 140 -26h32q51 0 51 40q0 10 -10.5 26t-10.5 22q0 11 13 19l34 22q8 5 17 5q17 0 27.5 -27t10.5 -52q0 -37 -26 -62.5t-75 -32.5zM342 123
q87 0 138 72.5t51 204.5q0 176 -142 176q-88 0 -138.5 -72.5t-50.5 -205.5q0 -175 142 -175z" />
    <glyph glyph-name="ohorn" unicode="&#x1a1;" horiz-adv-x="569" 
d="M592 560q0 -39 -29.5 -65t-83.5 -32q45 -54 45 -152q0 -152 -73 -235.5t-201 -83.5q-107 0 -162 56t-55 163q0 65 14 119.5t44 101t85.5 73t130.5 26.5q72 0 121 -26h32q51 0 51 40q0 10 -10.5 26t-10.5 22q0 11 13 19l34 22q7 5 17 5q17 0 27.5 -27t10.5 -52zM262 109
q52 0 81.5 50.5t29.5 144.5q0 110 -78 110q-53 0 -82.5 -50.5t-29.5 -145.5q0 -109 79 -109z" />
    <glyph glyph-name="Uhorn" unicode="&#x1af;" horiz-adv-x="712" 
d="M779 757q0 -37 -26.5 -62.5t-75.5 -32.5l-44 -428q-12 -115 -95.5 -178.5t-220.5 -63.5q-127 0 -196.5 54.5t-69.5 154.5q0 11 47 469q3 32 64 32h34q56 0 56 -32q-45 -431 -45 -441q0 -47 34 -76.5t90 -29.5q60 0 102.5 34t47.5 87l44 426q3 32 64 32h58q51 0 51 40
q0 10 -10.5 26t-10.5 22q0 11 13 19l34 22q8 5 17 5q17 0 27.5 -27t10.5 -52z" />
    <glyph glyph-name="uhorn" unicode="&#x1b0;" 
d="M606 580q0 -38 -27.5 -63.5t-78.5 -32.5q-36 -336 -36 -342q0 -33 30 -33q8 0 18 3t11 3q8 0 8 -11q0 -19 -7 -60q-4 -25 -31 -38.5t-57 -13.5q-97 0 -116 80q-29 -34 -72 -57t-88 -23q-68 0 -100 31t-32 96q0 16 9 109.5t19 179.5l9 85q3 32 63 32h28q28 0 42.5 -9
t14.5 -22q-34 -318 -34 -331q0 -49 54 -49q47 0 86 54l34 325q3 32 63 32h58q51 0 51 40q0 10 -10.5 26t-10.5 22q0 11 13 19l34 22q7 5 17 5q17 0 27.5 -27t10.5 -52z" />
    <glyph glyph-name="uni01C4" unicode="&#x1c4;" horiz-adv-x="1311" 
d="M1161 895q19 0 19 -10q0 -7 -7 -15l-76 -102q-14 -19 -63 -19h-11q-48 0 -59 19l-54 102q-3 8 -3 12q0 13 19 13h22q48 0 64 -24l25 -40l31 39q18 23 69 25h24zM373 700q140 0 213.5 -74.5t73.5 -214.5q0 -196 -96.5 -303.5t-263.5 -107.5h-224q-20 0 -28 7.5t-8 25.5
q0 9 65 627q4 40 44 40h224zM1267 700q13 0 22.5 -31t9.5 -56q0 -12 -3 -15l-382 -467h305q26 0 26 -40q0 -91 -38 -91h-479q-13 0 -22.5 31t-9.5 56q0 12 3 15l381 467h-278q-26 0 -26 40q0 91 38 91h453zM360 569h-109l-47 -438h109q87 0 137.5 69.5t50.5 196.5
q0 172 -141 172z" />
    <glyph glyph-name="uni01C5" unicode="&#x1c5;" horiz-adv-x="1184" 
d="M1114 718q19 0 19 -10q0 -7 -7 -15l-76 -102q-14 -19 -63 -19h-11q-48 0 -59 19l-54 102q-3 8 -3 12q0 13 19 13h22q48 0 64 -24l25 -40l31 39q18 23 69 25h24zM373 700q140 0 213.5 -74.5t73.5 -214.5q0 -196 -96.5 -303.5t-263.5 -107.5h-224q-20 0 -28 7.5t-8 25.5
q0 9 65 627q4 40 44 40h224zM360 569h-109l-47 -438h109q87 0 137.5 69.5t50.5 196.5q0 172 -141 172zM1143 523q9 0 16.5 -25.5t7.5 -47.5q0 -15 -4 -19l-261 -314h207q26 0 26 -36q0 -81 -38 -81h-371q-9 0 -16.5 25.5t-7.5 47.5q0 15 4 19l261 314h-188q-26 0 -26 36
q0 81 38 81h352z" />
    <glyph glyph-name="uni01C6" unicode="&#x1c6;" horiz-adv-x="1054" 
d="M536 115q8 0 8 -11q0 -19 -7 -60q-4 -25 -31 -38.5t-57 -13.5q-95 0 -115 77q-48 -77 -136 -77q-79 0 -125.5 56.5t-46.5 160.5q0 144 64.5 233t167.5 89q57 0 107 -41l25 232q3 32 63 32h28q28 0 42.5 -9t14.5 -22q-61 -571 -61 -581q0 -33 30 -33q8 0 18 3t11 3z
M787 591l-54 102q-3 8 -3 12q0 13 19 13h22q48 0 64 -24l25 -40l31 39q18 23 69 25h24q19 0 19 -10q0 -7 -7 -15l-76 -102q-14 -19 -63 -19h-11q-48 0 -59 19zM1037 450q0 -15 -4 -19l-261 -314h207q26 0 26 -36q0 -81 -38 -81h-371q-9 0 -16.5 25.5t-7.5 47.5q0 15 4 19
l261 314h-188q-26 0 -26 36q0 81 38 81h352q9 0 16.5 -25.5t7.5 -47.5zM333 172l22 218q-30 24 -63 24q-55 0 -85.5 -50.5t-30.5 -145.5q0 -105 78 -105q42 0 79 59z" />
    <glyph glyph-name="uni01C7" unicode="&#x1c7;" horiz-adv-x="718" 
d="M201 702q57 0 57 -31l-57 -540h153q26 0 26 -40q0 -91 -38 -91h-270q-20 0 -28 7t-8 25l67 638q3 32 63 32h35zM639 702q57 0 57 -31l-70 -643q-11 -99 -68.5 -154.5t-165.5 -55.5q-96 0 -96 43q0 97 20 97q2 0 9 -2t21 -4.5t33 -2.5q45 0 67 24.5t28 79.5l67 617
q3 32 63 32h35z" />
    <glyph glyph-name="uni01C8" unicode="&#x1c8;" horiz-adv-x="760" 
d="M680 754q28 0 42.5 -9t14.5 -22l-9 -82q-3 -32 -63 -32h-28q-28 0 -42.5 9t-14.5 22l9 82q3 32 63 32h28zM201 702q57 0 57 -31l-57 -540h223q26 0 26 -40q0 -91 -38 -91h-340q-20 0 -28 7t-8 25l67 638q3 32 63 32h35zM656 525q28 0 42.5 -9t14.5 -22l-57 -544
q-8 -77 -50 -119.5t-113 -42.5q-78 0 -78 39q0 83 18 83q1 0 12 -2.5t23 -2.5q36 0 40 43l57 545q3 32 63 32h28z" />
    <glyph glyph-name="uni01C9" unicode="&#x1c9;" horiz-adv-x="573" 
d="M196 755q47 0 47 -27q-61 -582 -61 -586q0 -33 30 -33q8 0 18 3t11 3q8 0 8 -11q0 -19 -7 -60q-4 -25 -31 -38.5t-57 -13.5q-121 0 -121 127l63 606q4 30 52 30h48zM493 754q28 0 42.5 -9t14.5 -22l-9 -82q-3 -32 -63 -32h-28q-28 0 -42.5 9t-14.5 22l9 82q3 32 63 32h28
zM469 525q28 0 42.5 -9t14.5 -22l-57 -544q-8 -77 -50 -119.5t-113 -42.5q-78 0 -78 39q0 83 18 83q1 0 12 -2.5t23 -2.5q36 0 40 43l57 545q3 32 63 32h28z" />
    <glyph glyph-name="uni01CA" unicode="&#x1ca;" horiz-adv-x="1121" 
d="M626 702q57 0 57 -32l-67 -640q-3 -32 -63 -32h-38q-49 0 -64 27l-212 387l-13 23l-42 -405q-3 -32 -63 -32h-29q-57 0 -57 32l67 640q3 32 63 32h43q49 0 64 -27l204 -375l16 -30l42 400q3 32 63 32h29zM1025 702q57 0 57 -31l-50 -469q-11 -99 -68.5 -154.5
t-165.5 -55.5q-96 0 -96 43q0 97 20 97q2 0 9 -2.5t21 -4.5t33 -2q45 0 67 24.5t28 79.5l47 443q3 32 63 32h35z" />
    <glyph glyph-name="uni01CB" unicode="&#x1cb;" horiz-adv-x="995" 
d="M915 754q28 0 42.5 -9t14.5 -22l-9 -82q-3 -32 -63 -32h-28q-28 0 -42.5 9t-14.5 22l9 82q3 32 63 32h28zM626 702q57 0 57 -32l-67 -640q-3 -32 -63 -32h-38q-49 0 -64 27l-212 387l-13 23l-42 -405q-3 -32 -63 -32h-29q-57 0 -57 32l67 640q3 32 63 32h43q49 0 64 -27
l204 -375l16 -30l42 400q3 32 63 32h29zM891 525q28 0 42.5 -9t14.5 -22l-57 -544q-8 -77 -50 -119.5t-113 -42.5q-78 0 -78 39q0 83 18 83q1 0 12 -2.5t23 -2.5q36 0 40 43l57 545q3 32 63 32h28z" />
    <glyph glyph-name="uni01CC" unicode="&#x1cc;" horiz-adv-x="833" 
d="M753 754q28 0 42.5 -9t14.5 -22l-9 -82q-3 -32 -63 -32h-28q-28 0 -42.5 9t-14.5 22l9 82q3 32 63 32h28zM530 44q-4 -25 -31 -38.5t-57 -13.5q-121 0 -121 127q0 13 11.5 123.5t11.5 116.5q0 50 -54 50q-49 0 -88 -61l-32 -318q-3 -32 -63 -32h-28q-28 0 -42.5 9
t-14.5 22q38 371 38 399q0 13 -1 31.5t-1 24.5q0 16 33 26t83 10q31 0 33 -67q26 32 69 55t87 23q132 0 132 -127q0 -12 -12.5 -133t-12.5 -129q0 -33 30 -33q8 0 18 3t11 3q8 0 8 -11q0 -19 -7 -60zM729 525q28 0 42.5 -9t14.5 -22l-57 -544q-8 -77 -50 -119.5t-113 -42.5
q-78 0 -78 39q0 83 18 83q1 0 12 -2.5t23 -2.5q36 0 40 43l57 545q3 32 63 32h28z" />
    <glyph glyph-name="uni01EA" unicode="&#x1ea;" horiz-adv-x="731" 
d="M689 414q0 -174 -68 -279.5t-198 -133.5v-4q0 -6 -9 -26.5t-9 -40.5q0 -43 58 -43q18 0 37 7t21 7q11 0 11 -30q0 -29 -26 -41.5t-62 -12.5q-62 0 -85 27t-23 62q0 53 27 87q-11 -1 -35 -1q-139 0 -213 75t-74 217q0 83 20 156.5t61.5 134.5t113.5 97t167 36
q139 0 212.5 -75.5t73.5 -218.5zM342 123q87 0 138 72.5t51 204.5q0 176 -142 176q-88 0 -138.5 -72.5t-50.5 -205.5q0 -175 142 -175z" />
    <glyph glyph-name="uni01EB" unicode="&#x1eb;" horiz-adv-x="569" 
d="M524 311q0 -132 -55.5 -213t-155.5 -101q0 -6 -9 -26.5t-9 -40.5q0 -43 58 -43q18 0 37 7t21 7q11 0 11 -30q0 -29 -26 -41.5t-62 -12.5q-62 0 -85 27t-23 62q0 52 27 86h-3q-107 0 -162 56t-55 163q0 65 14 119.5t44 101t85.5 73t130.5 26.5q107 0 162 -56t55 -164z
M262 109q52 0 81.5 50.5t29.5 144.5q0 110 -78 110q-53 0 -82.5 -50.5t-29.5 -145.5q0 -109 79 -109z" />
    <glyph glyph-name="uni01F1" unicode="&#x1f1;" horiz-adv-x="1311" 
d="M373 700q140 0 213.5 -74.5t73.5 -214.5q0 -196 -96.5 -303.5t-263.5 -107.5h-224q-20 0 -28 7.5t-8 25.5q0 9 65 627q4 40 44 40h224zM1267 700q13 0 22.5 -31t9.5 -56q0 -12 -3 -15l-382 -467h305q26 0 26 -40q0 -91 -38 -91h-479q-13 0 -22.5 31t-9.5 56q0 12 3 15
l381 467h-278q-26 0 -26 40q0 91 38 91h453zM360 569h-109l-47 -438h109q87 0 137.5 69.5t50.5 196.5q0 172 -141 172z" />
    <glyph glyph-name="uni01F2" unicode="&#x1f2;" horiz-adv-x="1184" 
d="M373 700q140 0 213.5 -74.5t73.5 -214.5q0 -196 -96.5 -303.5t-263.5 -107.5h-224q-20 0 -28 7.5t-8 25.5q0 9 65 627q4 40 44 40h224zM360 569h-109l-47 -438h109q87 0 137.5 69.5t50.5 196.5q0 172 -141 172zM1143 523q9 0 16.5 -25.5t7.5 -47.5q0 -15 -4 -19
l-261 -314h207q26 0 26 -36q0 -81 -38 -81h-371q-9 0 -16.5 25.5t-7.5 47.5q0 15 4 19l261 314h-188q-26 0 -26 36q0 81 38 81h352z" />
    <glyph glyph-name="uni01F3" unicode="&#x1f3;" horiz-adv-x="1054" 
d="M536 115q8 0 8 -11q0 -19 -7 -60q-4 -25 -31 -38.5t-57 -13.5q-95 0 -115 77q-48 -77 -136 -77q-79 0 -125.5 56.5t-46.5 160.5q0 144 64.5 233t167.5 89q57 0 107 -41l25 232q3 32 63 32h28q28 0 42.5 -9t14.5 -22q-61 -571 -61 -581q0 -33 30 -33q8 0 18 3t11 3z
M1037 450q0 -15 -4 -19l-261 -314h207q26 0 26 -36q0 -81 -38 -81h-371q-9 0 -16.5 25.5t-7.5 47.5q0 15 4 19l261 314h-188q-26 0 -26 36q0 81 38 81h352q9 0 16.5 -25.5t7.5 -47.5zM333 172l22 218q-30 24 -63 24q-55 0 -85.5 -50.5t-30.5 -145.5q0 -105 78 -105
q42 0 79 59z" />
    <glyph glyph-name="Aringacute" unicode="&#x1fa;" horiz-adv-x="613" 
d="M342 812q-18 0 -24.5 3.5t-5.5 11.5q22 40 49 77q19 27 88 27q32 0 46 -3t13 -11q-1 -6 -43 -41q-8 -7 -13 -11.5t-14.5 -12t-18.5 -15.5q-25 -25 -77 -25zM584 38q3 -9 3 -17q0 -23 -54 -23h-44q-49 0 -54 21l-29 122h-242l-55 -122q-10 -21 -48 -21h-40q-58 0 -58 20
q0 8 6 20l280 619q-4 12 -4 29q0 47 30.5 78.5t80.5 31.5q39 0 64 -25.5t25 -63.5q0 -30 -12 -54zM349 732q-16 0 -28 -12.5t-12 -28.5q0 -14 9.5 -23t23.5 -9q16 0 28 11.5t12 27.5q0 14 -9.5 24t-23.5 10zM221 273h154l-40 178q-6 26 -8 64h-4q-12 -41 -22 -64z" />
    <glyph glyph-name="aringacute" unicode="&#x1fb;" horiz-adv-x="545" 
d="M297 765q-29 0 -29 13q0 3 2 7.5t8.5 14t14 20.5t22.5 32.5t30 44.5q18 27 88 27q58 0 58 -13q0 -7 -4.5 -12.5t-35.5 -34.5q-41 -40 -76 -74q-25 -25 -78 -25zM298 550q-40 0 -65 25t-25 64q0 47 30.5 78.5t80.5 31.5q39 0 64 -25.5t25 -63.5q0 -47 -29.5 -78.5
t-80.5 -31.5zM312 685q-16 0 -28 -12.5t-12 -28.5q0 -14 9.5 -23t23.5 -9q16 0 28 11.5t12 27.5q0 14 -9.5 24t-23.5 10zM524 115q8 0 8 -11q0 -19 -7 -60q-4 -25 -31 -38.5t-57 -13.5q-95 0 -115 76q-22 -34 -58 -55.5t-78 -21.5q-74 0 -118 56.5t-44 160.5q0 144 62 233
t160 89q65 0 121 -53q9 30 19 38t46 9h12q58 0 58 -25l-18 -174q-19 -174 -19 -184q0 -32 30 -32q8 0 18 3t11 3zM336 335q1 7 4.5 24t5.5 27q-31 27 -66 27q-51 0 -78.5 -50.5t-27.5 -145.5q0 -105 68 -105q41 0 78 58q2 18 5.5 56.5t6 68.5t4.5 40z" />
    <glyph glyph-name="AEacute" unicode="&#x1fc;" horiz-adv-x="915" 
d="M566 911q58 0 58 -13q0 -7 -4.5 -12.5t-35.5 -34.5q-12 -12 -20 -19.5t-24 -23t-32 -31.5q-25 -25 -78 -25q-29 0 -29 13q0 3 2 7.5t8.5 14t14 20.5t22.5 32.5t30 44.5q18 27 88 27zM872 700q26 0 26 -40q0 -91 -38 -91h-320l12 -145h264q26 0 26 -40q0 -91 -38 -91h-239
l14 -162h234q26 0 26 -40q0 -91 -38 -91h-334q-16 0 -23 7t-9 23l-9 111h-243l-73 -122q-14 -21 -48 -21h-37q-60 0 -60 22q0 7 8 18l387 635q17 27 46 27h466zM410 537h-4l-36 -82l-108 -182h154l-14 181z" />
    <glyph glyph-name="aeacute" unicode="&#x1fd;" horiz-adv-x="829" 
d="M387 575q-29 0 -29 13q0 3 2 7.5t8.5 14t14 20.5t22.5 32.5t30 44.5q18 27 88 27q58 0 58 -13q0 -7 -4.5 -12.5t-35.5 -34.5q-41 -40 -76 -74q-25 -25 -78 -25zM787 386q0 -92 -65 -137.5t-150 -45.5q-55 0 -104 7q4 -58 30 -79.5t75 -21.5q35 0 71 11t58.5 22t25.5 11
q8 0 8 -14q0 -1 -1 -17t-3 -34.5t-4 -25.5q-11 -37 -65 -53.5t-109 -16.5q-126 0 -186 66q-31 -25 -81.5 -45.5t-107.5 -20.5q-75 0 -114.5 34.5t-39.5 95.5q0 29 6 53.5t25 51.5t51 45.5t88.5 30.5t132.5 13q9 42 24 73q-20 25 -87 25q-27 0 -57 -8t-50.5 -16t-24.5 -8
q-14 0 -28.5 28.5t-14.5 47.5q0 27 61.5 50t136.5 23q106 0 158 -37q61 37 147 37q57 0 98 -15t60.5 -39t27.5 -46t8 -45zM475 302h48q64 0 92 19.5t28 45.5q0 47 -60 47q-83 0 -108 -112zM220 109q27 0 56.5 11.5t46.5 31.5q-5 32 -5 60v12q-144 -2 -144 -77
q0 -17 12 -27.5t34 -10.5z" />
    <glyph glyph-name="Oslashacute" unicode="&#x1fe;" horiz-adv-x="731" 
d="M474 911q58 0 58 -13q0 -7 -4.5 -12.5t-35.5 -34.5q-41 -40 -76 -74q-25 -25 -78 -25q-29 0 -29 13q0 3 2 7.5t8.5 14t14 20.5t22.5 32.5t30 44.5q18 27 88 27zM403 708q103 0 169 -42l40 46q10 12 22 12q10 0 20 -10l16 -14q12 -10 12 -22q0 -10 -10 -20l-40 -45
q57 -74 57 -199q0 -204 -93 -313t-268 -109q-123 0 -195 58l-44 -50q-11 -12 -22 -12q-10 0 -20 10l-16 14q-12 11 -12 22q0 10 10 20l51 58q-39 68 -39 172q0 83 20 156.5t61.5 134.5t113.5 97t167 36zM389 576q-88 0 -138.5 -72.5t-50.5 -205.5q0 -26 3 -48l268 303
q-32 23 -82 23zM519 485l-283 -318q36 -44 106 -44q87 0 138 72.5t51 204.5q0 49 -12 85z" />
    <glyph glyph-name="oslashacute" unicode="&#x1ff;" horiz-adv-x="569" 
d="M257 575q-29 0 -29 13q0 3 2 7.5t8.5 14t14 20.5t22.5 32.5t30 44.5q18 27 88 27q58 0 58 -13q0 -7 -4.5 -12.5t-35.5 -34.5q-41 -40 -76 -74q-25 -25 -78 -25zM494 451q36 -54 36 -140q0 -152 -73 -235.5t-201 -83.5q-81 0 -130 31l-18 -21q-12 -13 -22 -13
q-11 0 -21 10l-14 12q-13 10 -13 22q0 10 10 21l22 25q-31 52 -31 132q0 65 14 119.5t44 101t85.5 73t130.5 26.5q71 0 122 -27l24 28q11 13 22 13q8 0 21 -10l14 -12q13 -13 13 -22t-10 -21zM301 414q-53 0 -82.5 -50.5t-29.5 -145.5l157 183q-18 13 -45 13zM268 109
q52 0 81.5 50.5t29.5 144.5v13l-163 -190q18 -18 52 -18z" />
    <glyph glyph-name="Scommaaccent" unicode="&#x218;" horiz-adv-x="500" 
d="M311 708q73 0 122 -21t49 -47q0 -20 -23.5 -54.5t-39.5 -34.5q-3 0 -19 6q-46 19 -91 19q-99 0 -99 -65q0 -22 15 -40t31.5 -27.5t49.5 -25.5q37 -18 57.5 -30.5t49 -37.5t42 -60.5t13.5 -81.5q0 -58 -23 -102t-60.5 -67.5t-79 -35t-85.5 -11.5q-28 0 -59 4t-62.5 13
t-52 25t-20.5 36q0 111 24 111q7 0 29 -15q66 -43 125 -43q42 0 72.5 17t30.5 58q0 20 -7.5 36t-25 30t-32 22.5t-41.5 22.5q-36 19 -55 31.5t-46 36.5t-39 55t-12 72q0 69 39.5 117t96.5 67.5t126 19.5zM241 -51q45 0 45 -44q0 -46 -46.5 -95.5t-76.5 -49.5q-16 0 -30 5.5
t-13 16.5q1 5 10.5 20t18 41.5t8.5 61.5q0 44 65 44h19z" />
    <glyph glyph-name="scommaaccent" unicode="&#x219;" horiz-adv-x="413" 
d="M241 531q52 0 98.5 -14.5t46.5 -46.5q0 -16 -19.5 -45.5t-33.5 -29.5q-7 0 -20 6q-40 14 -65 14q-27 0 -40.5 -12t-13.5 -32q0 -12 10 -22.5t19.5 -16t31.5 -16.5q26 -12 41 -21t35.5 -26.5t30.5 -43.5t10 -60q0 -81 -56.5 -127t-144.5 -46q-19 0 -40 2t-48 8t-44 19
t-17 32q0 90 22 90q3 0 19 -9q50 -25 91 -25q66 0 66 44q0 15 -10.5 27t-21 18t-33.5 17q-26 13 -40 21.5t-34 26t-29.5 42t-9.5 57.5q0 79 55.5 124t143.5 45zM195 -51q45 0 45 -44q0 -46 -46.5 -95.5t-76.5 -49.5q-16 0 -30 5.5t-13 16.5q1 5 10.5 20t18 41.5t8.5 61.5
q0 44 65 44h19z" />
    <glyph glyph-name="uni021A" unicode="&#x21a;" horiz-adv-x="549" 
d="M546 700q26 0 26 -40q0 -91 -38 -91h-160l-57 -539q-3 -32 -63 -32h-35q-57 0 -57 31l57 540h-159q-26 0 -26 40q0 91 38 91h474zM242 -51q45 0 45 -44q0 -46 -46.5 -95.5t-76.5 -49.5q-16 0 -30 5.5t-13 16.5q1 5 10.5 20t18 41.5t8.5 61.5q0 44 65 44h19z" />
    <glyph glyph-name="uni021B" unicode="&#x21b;" horiz-adv-x="342" 
d="M198 650q28 0 42.5 -9t14.5 -22l-10 -96h59q10 0 13 -4.5t3 -15.5q0 -33 -15.5 -65t-42.5 -32h-29q-28 -261 -28 -264q0 -33 30 -33q11 0 24 3t14 3q8 0 8 -11q0 -19 -7 -60q-4 -25 -31 -38.5t-57 -13.5q-130 0 -130 133l29 281h-20q-26 0 -26 36q0 81 38 81h20l10 95
q3 32 63 32h28zM169 -51q45 0 45 -44q0 -46 -46.5 -95.5t-76.5 -49.5q-16 0 -30 5.5t-13 16.5q1 5 10.5 20t18 41.5t8.5 61.5q0 44 65 44h19z" />
    <glyph glyph-name="uni0237" unicode="&#x237;" horiz-adv-x="276" 
d="M172 525q28 0 42.5 -9t14.5 -22l-57 -544q-8 -77 -50 -119.5t-113 -42.5q-78 0 -78 39q0 83 18 83q1 0 12 -2.5t23 -2.5q36 0 40 43l57 545q3 32 63 32h28z" />
    <glyph glyph-name="uni0259" unicode="&#x259;" horiz-adv-x="539" 
d="M270 531q119 0 177.5 -58t58.5 -162q0 -163 -77 -241t-198 -78q-57 0 -98 15t-60.5 39t-27.5 46t-8 45q0 92 65 137.5t150 45.5q55 0 104 -7q-4 58 -30 79.5t-75 21.5q-35 0 -71 -11t-58.5 -22t-25.5 -11q-8 0 -8 14q0 1 1 17t3 34.5t4 25.5q11 37 65 53.5t109 16.5z
M241 109q83 0 108 112h-48q-64 0 -92 -19.5t-28 -45.5q0 -47 60 -47z" />
    <glyph glyph-name="uni02BC" unicode="&#x2bc;" horiz-adv-x="200" 
d="M179 721q45 0 45 -44q0 -46 -46.5 -95.5t-76.5 -49.5q-16 0 -30 5.5t-13 16.5q1 5 10.5 20t18 41.5t8.5 61.5q0 44 65 44h19z" />
    <glyph glyph-name="circumflex" unicode="&#x2c6;" horiz-adv-x="320" 
d="M169 718q48 0 59 -19l54 -102q3 -8 3 -12q0 -13 -19 -13h-22q-49 0 -64 24l-25 40l-31 -39q-19 -25 -69 -25h-24q-19 0 -19 10q0 7 7 15l76 102q14 19 63 19h11z" />
    <glyph glyph-name="caron" unicode="&#x2c7;" horiz-adv-x="320" 
d="M281 718q19 0 19 -10q0 -7 -7 -15l-76 -102q-14 -19 -63 -19h-11q-48 0 -59 19l-54 102q-3 7 -3 12q0 13 19 13h22q48 0 64 -24l25 -40l31 39q18 23 69 25h24z" />
    <glyph glyph-name="uni02C9" unicode="&#x2c9;" horiz-adv-x="320" 
d="M311 692q26 0 26 -30q0 -65 -37 -65h-216q-26 0 -26 30q0 65 37 65h216z" />
    <glyph glyph-name="breve" unicode="&#x2d8;" horiz-adv-x="320" 
d="M277 715q32 0 32 -24q0 -45 -47.5 -80.5t-111.5 -35.5q-60 0 -98 30.5t-38 72.5q0 37 39 37q17 0 31 -18q24 -31 76 -31q17 0 29.5 2t22.5 7.5t14 7.5t13 11l9 8q13 13 29 13z" />
    <glyph glyph-name="dotaccent" unicode="&#x2d9;" horiz-adv-x="320" 
d="M170 702q57 0 57 -32l-7 -60q-5 -32 -63 -32q-57 0 -57 32l7 60q3 32 63 32z" />
    <glyph glyph-name="ring" unicode="&#x2da;" horiz-adv-x="320" 
d="M170 749q39 0 64 -25.5t25 -63.5q0 -47 -29.5 -78.5t-80.5 -31.5q-39 0 -64.5 25t-25.5 64q0 47 30.5 78.5t80.5 31.5zM163 685q-16 0 -28 -12.5t-12 -28.5q0 -14 9.5 -23t23.5 -9q16 0 28 11.5t12 27.5q0 14 -9.5 24t-23.5 10z" />
    <glyph glyph-name="ogonek" unicode="&#x2db;" horiz-adv-x="320" 
d="M121 14q19 0 19 -17q0 -6 -9 -26.5t-9 -40.5q0 -43 58 -43q18 0 37 7t21 7q11 0 11 -30q0 -29 -26 -41.5t-62 -12.5q-62 0 -85 27t-23 62q0 36 17.5 72t50.5 36z" />
    <glyph glyph-name="tilde" unicode="&#x2dc;" horiz-adv-x="365" 
d="M154 694q18 0 72 -14t69 -15q19 0 33 16q17 22 40 15l11 -3q17 -5 21.5 -18t-1.5 -23q-11 -29 -39.5 -49.5t-69.5 -20.5q-18 0 -71.5 14t-68.5 15q-19 0 -33 -16q-18 -22 -41 -15l-11 3q-31 9 -20 41q11 29 40 49.5t69 20.5z" />
    <glyph glyph-name="hungarumlaut" unicode="&#x2dd;" horiz-adv-x="384" 
d="M150 734q58 0 58 -13q0 -7 -4.5 -12.5t-35.5 -34.5q-12 -12 -20 -19.5t-24 -23t-32 -31.5q-25 -25 -78 -25q-29 0 -29 13q0 3 2 7.5t8.5 14t14 20.5t22.5 32.5t30 44.5q18 27 88 27zM332 734q58 0 58 -13q0 -7 -4.5 -12.5t-35.5 -34.5q-41 -40 -76 -74q-25 -25 -78 -25
q-29 0 -29 13q0 3 2 7.5t8.5 14t14 20.5t22.5 32.5t30 44.5q18 27 88 27z" />
    <glyph glyph-name="gravecomb" unicode="&#x300;" horiz-adv-x="0" 
d="M-43 734q69 0 82 -27q10 -21 19.5 -41t15 -31t10 -21t6.5 -15t2 -8q0 -16 -33 -16q-51 0 -72 25q-23 29 -54 65q-38 46 -38 53q0 16 62 16z" />
    <glyph glyph-name="acutecomb" unicode="&#x301;" horiz-adv-x="0" 
d="M146 734q58 0 58 -13q0 -7 -4.5 -12.5t-35.5 -34.5q-41 -40 -76 -74q-25 -25 -78 -25q-29 0 -29 13q0 3 2 7.5t8.5 14t14 20.5t22.5 32.5t30 44.5q18 27 88 27z" />
    <glyph glyph-name="uni0302" unicode="&#x302;" horiz-adv-x="0" 
d="M53 718q48 0 59 -19l54 -102q3 -7 3 -12q0 -13 -19 -13h-22q-49 0 -64 24l-25 40l-31 -39q-19 -25 -69 -25h-24q-19 0 -19 10q0 7 7 15l76 102q14 19 63 19h11z" />
    <glyph glyph-name="tildecomb" unicode="&#x303;" horiz-adv-x="0" 
d="M7 694q18 0 72 -14t69 -15q19 0 33 16q17 22 40 15l11 -3q17 -5 21.5 -18t-1.5 -23q-11 -29 -39.5 -49.5t-69.5 -20.5q-18 0 -71.5 14t-68.5 15q-19 0 -33 -16q-18 -22 -41 -15l-11 3q-31 9 -20 41q11 29 40 49.5t69 20.5z" />
    <glyph glyph-name="uni0304" unicode="&#x304;" horiz-adv-x="0" 
d="M163 692q26 0 26 -30q0 -65 -37 -65h-216q-26 0 -26 30q0 65 37 65h216z" />
    <glyph glyph-name="uni0306" unicode="&#x306;" horiz-adv-x="0" 
d="M163 715q32 0 32 -24q0 -45 -47.5 -80.5t-111.5 -35.5q-60 0 -98 30.5t-38 72.5q0 37 39 37q17 0 31 -18q24 -31 76 -31q17 0 29.5 2t22.5 7.5t14 7.5t13 11l9 8q13 13 29 13z" />
    <glyph glyph-name="uni0307" unicode="&#x307;" horiz-adv-x="0" 
d="M44 702q57 0 57 -32l-7 -60q-5 -32 -63 -32q-57 0 -57 32l7 60q3 32 63 32z" />
    <glyph glyph-name="uni0308" unicode="&#x308;" horiz-adv-x="0" 
d="M-33 702q57 0 57 -32l-7 -60q-5 -32 -63 -32q-57 0 -57 32l7 60q3 32 63 32zM147 702q57 0 57 -32l-7 -60q-5 -32 -63 -32q-57 0 -57 32l7 60q3 32 63 32z" />
    <glyph glyph-name="hookabovecomb" unicode="&#x309;" horiz-adv-x="0" 
d="M-229 668q0 22 -32 22q-13 0 -27 -6t-17 -6q-6 0 -15.5 15.5t-9.5 26.5q0 10 28.5 20.5t54.5 10.5q49 0 77 -21.5t28 -55.5t-42 -69t-60 -35q-27 0 -42 6.5t-15 14.5q0 9 18 21t36 27t18 29z" />
    <glyph glyph-name="uni030A" unicode="&#x30a;" horiz-adv-x="0" 
d="M51 749q39 0 64 -25.5t25 -63.5q0 -47 -29.5 -78.5t-80.5 -31.5q-40 0 -65 25t-25 64q0 47 30.5 78.5t80.5 31.5zM44 685q-16 0 -28 -12.5t-12 -28.5q0 -14 9.5 -23t23.5 -9q16 0 28 11.5t12 27.5q0 14 -9.5 24t-23.5 10z" />
    <glyph glyph-name="uni030B" unicode="&#x30b;" horiz-adv-x="0" 
d="M35 734q58 0 58 -13q0 -7 -4.5 -12.5t-35.5 -34.5q-41 -40 -76 -74q-25 -25 -78 -25q-29 0 -29 13q0 3 2 7.5t8.5 14t14 20.5t22.5 32.5t30 44.5q18 27 88 27zM217 734q58 0 58 -13q0 -7 -4.5 -12.5t-35.5 -34.5q-41 -40 -76 -74q-25 -25 -78 -25q-29 0 -29 13q0 3 2 7.5
t8.5 14t14 20.5t22.5 32.5t30 44.5q18 27 88 27z" />
    <glyph glyph-name="uni030C" unicode="&#x30c;" horiz-adv-x="0" 
d="M166 718q19 0 19 -10q0 -7 -7 -15l-76 -102q-14 -19 -63 -19h-11q-48 0 -59 19l-54 102q-3 7 -3 12q0 13 19 13h22q48 0 64 -24l25 -40l31 39q18 23 69 25h24z" />
    <glyph glyph-name="dotbelowcomb" unicode="&#x323;" horiz-adv-x="0" 
d="M-38 -80q57 0 57 -32l-7 -60q-5 -32 -63 -32q-57 0 -57 32l7 60q3 32 63 32z" />
    <glyph glyph-name="uni0326" unicode="&#x326;" horiz-adv-x="0" 
d="M-182 -51q45 0 45 -44q0 -46 -46.5 -95.5t-76.5 -49.5q-16 0 -30 5.5t-13 16.5q1 5 10.5 20t18 41.5t8.5 61.5q0 44 65 44h19z" />
    <glyph glyph-name="uni0327" unicode="&#x327;" horiz-adv-x="0" 
d="M-6 -35q28 -5 49 -24t21 -51q0 -50 -34 -76t-95 -26q-14 0 -28.5 1.5t-33 6.5t-30 16.5t-11.5 27.5q0 48 14 48q2 0 32 -13.5t57 -13.5q23 0 25 17q0 12 -24 24t-24 24q0 8 34 84h66z" />
    <glyph glyph-name="Delta" unicode="&#x394;" horiz-adv-x="708" 
d="M445 710q29 0 38 -27l185 -553q5 -17 5 -29q0 -10 -6 -66q-3 -35 -39 -35h-577q-31 0 -31 27q0 11 5 59q3 23 14 44l301 553q14 27 44 27h61zM398 513h-10l-206 -383h342z" />
    <glyph glyph-name="Omega" unicode="&#x3a9;" horiz-adv-x="731" 
d="M403 708q139 0 213 -73.5t74 -212.5q0 -200 -122 -309q69 18 84 18q26 0 26 -36q0 -95 -40 -95h-247q-25 0 -25 33q0 71 21 77q63 18 103.5 93t40.5 199q0 174 -142 174q-90 0 -140.5 -74.5t-50.5 -211.5q0 -150 95 -180q11 -4 11 -20q0 -90 -39 -90h-247q-24 0 -24 33
q0 34 9 66t29 32q23 0 80 -18q-70 79 -70 201q0 186 99 290t262 104z" />
    <glyph glyph-name="mu" unicode="&#x3bc;" horiz-adv-x="566" 
d="M546 115q8 0 8 -11q0 -19 -7 -60q-4 -25 -31 -38.5t-57 -13.5q-97 0 -116 80q-29 -34 -72 -57t-88 -23l-18 -166q-3 -32 -63 -32h-28q-28 0 -42.5 9t-14.5 22l71 668q3 32 63 32h28q28 0 42.5 -9t14.5 -22q-34 -318 -34 -331q0 -49 54 -49q47 0 86 54l34 325q3 32 63 32
h28q28 0 42.5 -9t14.5 -22q-37 -342 -37 -352q0 -33 30 -33q8 0 18 3t11 3z" />
    <glyph glyph-name="pi" unicode="&#x3c0;" horiz-adv-x="616" 
d="M594 523q31 0 31 -30q0 -32 -12 -59.5t-38 -27.5h-47q-32 -295 -32 -338v-26l1 -12q0 -32 -64 -32h-27q-56 0 -56 82q0 3 3 39l30 287h-93q-15 -95 -47 -205.5t-64 -173.5q-15 -29 -73 -29h-13q-28 0 -44.5 6.5t-16.5 15.5q0 1 0.5 3t1.5 4.5t1 3.5q34 74 65 179t45 196
q-25 0 -45.5 -3t-31.5 -6t-13 -3q-29 0 -29 62q0 39 39.5 53t123.5 14h405z" />
    <glyph glyph-name="uni1E0C" unicode="&#x1e0c;" horiz-adv-x="695" 
d="M373 700q140 0 213.5 -74.5t73.5 -214.5q0 -196 -96.5 -303.5t-263.5 -107.5h-224q-20 0 -28 7.5t-8 25.5q0 9 65 627q4 40 44 40h224zM360 569h-109l-47 -438h109q87 0 137.5 69.5t50.5 196.5q0 172 -141 172zM280 -80q57 0 57 -32l-7 -60q-5 -32 -63 -32q-57 0 -57 32
l7 60q3 32 63 32z" />
    <glyph glyph-name="uni1E0D" unicode="&#x1e0d;" horiz-adv-x="565" 
d="M536 115q8 0 8 -11q0 -19 -7 -60q-4 -25 -31 -38.5t-57 -13.5q-95 0 -115 77q-48 -77 -136 -77q-79 0 -125.5 56.5t-46.5 160.5q0 144 64.5 233t167.5 89q57 0 107 -41l25 232q3 32 63 32h28q28 0 42.5 -9t14.5 -22q-61 -571 -61 -581q0 -33 30 -33q8 0 18 3t11 3z
M333 172l22 218q-30 24 -63 24q-55 0 -85.5 -50.5t-30.5 -145.5q0 -105 78 -105q42 0 79 59zM240 -80q57 0 57 -32l-7 -60q-5 -32 -63 -32q-57 0 -57 32l7 60q3 32 63 32z" />
    <glyph glyph-name="uni1E24" unicode="&#x1e24;" horiz-adv-x="733" 
d="M632 702q57 0 57 -31l-67 -641q-3 -32 -63 -32h-35q-57 0 -57 31l27 262h-270l-27 -261q-3 -32 -63 -32h-35q-57 0 -57 31l67 641q3 32 63 32h35q57 0 57 -31l-26 -248h270l26 247q3 32 63 32h35zM330 -80q57 0 57 -32l-7 -60q-5 -32 -63 -32q-57 0 -57 32l7 60
q3 32 63 32z" />
    <glyph glyph-name="uni1E25" unicode="&#x1e25;" horiz-adv-x="565" 
d="M186 754q28 0 42.5 -9t14.5 -22l-27 -260q27 29 67 48.5t80 19.5q132 0 132 -127q0 -12 -12.5 -133t-12.5 -129q0 -33 30 -33q8 0 18 3t11 3q8 0 8 -11q0 -19 -7 -60q-4 -25 -31 -38.5t-57 -13.5q-121 0 -121 127q0 13 11.5 123.5t11.5 116.5q0 50 -54 50q-46 0 -86 -57
l-34 -322q-3 -32 -63 -32h-28q-28 0 -42.5 9t-14.5 22l73 693q3 32 63 32h28zM250 -80q57 0 57 -32l-7 -60q-5 -32 -63 -32q-57 0 -57 32l7 60q3 32 63 32z" />
    <glyph glyph-name="uni1E44" unicode="&#x1e44;" horiz-adv-x="719" 
d="M402 879q57 0 57 -32l-7 -60q-5 -32 -63 -32q-57 0 -57 32l7 60q3 32 63 32zM626 702q57 0 57 -32l-67 -640q-3 -32 -63 -32h-38q-49 0 -64 27l-212 387l-13 23l-42 -405q-3 -32 -63 -32h-29q-57 0 -57 32l67 640q3 32 63 32h43q49 0 64 -27l204 -375l16 -30l42 400
q3 32 63 32h29z" />
    <glyph glyph-name="uni1E45" unicode="&#x1e45;" 
d="M287 578q-57 0 -57 32l7 60q3 32 63 32q57 0 57 -32l-7 -60q-5 -32 -63 -32zM529 115q8 0 8 -11q0 -19 -7 -60q-4 -25 -31 -38.5t-57 -13.5q-121 0 -121 127q0 13 11.5 123.5t11.5 116.5q0 50 -54 50q-49 0 -88 -61l-32 -318q-3 -32 -63 -32h-28q-28 0 -42.5 9t-14.5 22
q38 371 38 399q0 13 -1 31.5t-1 24.5q0 16 33 26t83 10q31 0 33 -67q26 32 69 55t87 23q132 0 132 -127q0 -12 -12.5 -133t-12.5 -129q0 -33 30 -33q8 0 18 3t11 3z" />
    <glyph glyph-name="uni1E5A" unicode="&#x1e5a;" horiz-adv-x="610" 
d="M340 700q231 0 231 -163q0 -66 -36.5 -114t-98.5 -70v-4q17 -7 34.5 -33.5t27.5 -58.5l65 -220q3 -12 3 -19q-3 -20 -62 -20h-41q-49 0 -56 21l-59 195q-12 33 -30 46.5t-64 13.5h-39l-26 -244q-3 -32 -63 -32h-34q-57 0 -57 32l66 630q4 40 44 40h195zM334 569h-88
l-17 -162h95q33 0 59.5 28t26.5 66q0 32 -20 50t-56 18zM265 -80q57 0 57 -32l-7 -60q-5 -32 -63 -32q-57 0 -57 32l7 60q3 32 63 32z" />
    <glyph glyph-name="uni1E5B" unicode="&#x1e5b;" horiz-adv-x="366" 
d="M328 531q47 0 47 -46q0 -25 -14.5 -59t-25.5 -34q-3 0 -15 4.5t-26 4.5q-49 0 -87 -51l-32 -320q-3 -32 -63 -32h-28q-28 0 -42.5 9t-14.5 22l34 328q4 39 4 71q0 13 -1 31.5t-1 24.5q0 16 33 26t83 10q29 0 33 -63q51 74 116 74zM101 -80q57 0 57 -32l-7 -60
q-5 -32 -63 -32q-57 0 -57 32l7 60q3 32 63 32z" />
    <glyph glyph-name="uni1E62" unicode="&#x1e62;" horiz-adv-x="500" 
d="M311 708q73 0 122 -21t49 -47q0 -20 -23.5 -54.5t-39.5 -34.5q-3 0 -19 6q-46 19 -91 19q-99 0 -99 -65q0 -22 15 -40t31.5 -27.5t49.5 -25.5q37 -18 57.5 -30.5t49 -37.5t42 -60.5t13.5 -81.5q0 -58 -23 -102t-60.5 -67.5t-79 -35t-85.5 -11.5q-28 0 -59 4t-62.5 13
t-52 25t-20.5 36q0 111 24 111q7 0 29 -15q66 -43 125 -43q42 0 72.5 17t30.5 58q0 20 -7.5 36t-25 30t-32 22.5t-41.5 22.5q-36 19 -55 31.5t-46 36.5t-39 55t-12 72q0 69 39.5 117t96.5 67.5t126 19.5zM222 -80q57 0 57 -32l-7 -60q-5 -32 -63 -32q-57 0 -57 32l7 60
q3 32 63 32z" />
    <glyph glyph-name="uni1E63" unicode="&#x1e63;" horiz-adv-x="413" 
d="M241 531q52 0 98.5 -14.5t46.5 -46.5q0 -16 -19.5 -45.5t-33.5 -29.5q-7 0 -20 6q-40 14 -65 14q-27 0 -40.5 -12t-13.5 -32q0 -12 10 -22.5t19.5 -16t31.5 -16.5q26 -12 41 -21t35.5 -26.5t30.5 -43.5t10 -60q0 -81 -56.5 -127t-144.5 -46q-19 0 -40 2t-48 8t-44 19
t-17 32q0 90 22 90q3 0 19 -9q50 -25 91 -25q66 0 66 44q0 15 -10.5 27t-21 18t-33.5 17q-26 13 -40 21.5t-34 26t-29.5 42t-9.5 57.5q0 79 55.5 124t143.5 45zM176 -80q57 0 57 -32l-7 -60q-5 -32 -63 -32q-57 0 -57 32l7 60q3 32 63 32z" />
    <glyph glyph-name="uni1E6C" unicode="&#x1e6c;" horiz-adv-x="549" 
d="M546 700q26 0 26 -40q0 -91 -38 -91h-160l-57 -539q-3 -32 -63 -32h-35q-57 0 -57 31l57 540h-159q-26 0 -26 40q0 91 38 91h474zM223 -80q57 0 57 -32l-7 -60q-5 -32 -63 -32q-57 0 -57 32l7 60q3 32 63 32z" />
    <glyph glyph-name="uni1E6D" unicode="&#x1e6d;" horiz-adv-x="342" 
d="M198 650q28 0 42.5 -9t14.5 -22l-10 -96h59q10 0 13 -4.5t3 -15.5q0 -33 -15.5 -65t-42.5 -32h-29q-28 -261 -28 -264q0 -33 30 -33q11 0 24 3t14 3q8 0 8 -11q0 -19 -7 -60q-4 -25 -31 -38.5t-57 -13.5q-130 0 -130 133l29 281h-20q-26 0 -26 36q0 81 38 81h20l10 95
q3 32 63 32h28zM150 -80q57 0 57 -32l-7 -60q-5 -32 -63 -32q-57 0 -57 32l7 60q3 32 63 32z" />
    <glyph glyph-name="Wgrave" unicode="&#x1e80;" horiz-adv-x="882" 
d="M413 911q69 0 82 -27q10 -21 19.5 -41t15 -31t10 -21t6.5 -15t2 -8q0 -16 -33 -16q-51 0 -72 25q-23 29 -54 65q-26 31 -32 39.5t-6 13.5q0 16 62 16zM860 702q60 0 60 -25q0 -4 -234 -658q-8 -21 -57 -21h-73q-50 0 -53 21l-43 327l-12 87l-32 -90l-113 -324
q-9 -21 -57 -21h-72q-52 0 -53 21l-92 650q0 33 65 33h26q60 0 64 -31l41 -322q3 -24 8.5 -72t7.5 -72l49 144l117 332q8 21 57 21h38q50 0 53 -21l44 -332l19 -151l49 151l112 322q10 31 70 31h11z" />
    <glyph glyph-name="wgrave" unicode="&#x1e81;" horiz-adv-x="747" 
d="M334 734q69 0 82 -27q10 -21 19.5 -41t15 -31t10 -21t6.5 -15t2 -8q0 -16 -33 -16q-51 0 -72 25q-23 29 -54 65q-26 31 -32 39.5t-6 13.5q0 16 62 16zM685 525q59 0 59 -24q0 -7 -3 -17l-167 -465q-8 -21 -57 -21h-49q-48 0 -53 21l-42 281l-98 -281q-7 -21 -57 -21h-49
q-50 0 -53 21q-78 469 -78 480q3 26 65 26h24q50 0 53 -21l47 -308l108 308q7 21 57 21h24q50 0 53 -21l42 -308l113 308q8 21 61 21z" />
    <glyph glyph-name="Wacute" unicode="&#x1e82;" horiz-adv-x="882" 
d="M591 911q58 0 58 -13q0 -7 -4.5 -12.5t-35.5 -34.5q-12 -12 -20 -19.5t-24 -23t-32 -31.5q-25 -25 -78 -25q-29 0 -29 13q0 3 2 7.5t8.5 14t14 20.5t22.5 32.5t30 44.5q18 27 88 27zM860 702q60 0 60 -25q0 -4 -234 -658q-8 -21 -57 -21h-73q-50 0 -53 21l-43 327l-12 87
l-32 -90l-113 -324q-9 -21 -57 -21h-72q-52 0 -53 21l-92 650q0 33 65 33h26q60 0 64 -31l41 -322q3 -24 8.5 -72t7.5 -72l49 144l117 332q8 21 57 21h38q50 0 53 -21l44 -332l19 -151l49 151l112 322q10 31 70 31h11z" />
    <glyph glyph-name="wacute" unicode="&#x1e83;" horiz-adv-x="747" 
d="M512 734q58 0 58 -13q0 -7 -4.5 -12.5t-35.5 -34.5q-41 -40 -76 -74q-25 -25 -78 -25q-29 0 -29 13q0 3 2 7.5t8.5 14t14 20.5t22.5 32.5t30 44.5q18 27 88 27zM685 525q59 0 59 -24q0 -7 -3 -17l-167 -465q-8 -21 -57 -21h-49q-48 0 -53 21l-42 281l-98 -281
q-7 -21 -57 -21h-49q-50 0 -53 21q-78 469 -78 480q3 26 65 26h24q50 0 53 -21l47 -308l108 308q7 21 57 21h24q50 0 53 -21l42 -308l113 308q8 21 61 21z" />
    <glyph glyph-name="Wdieresis" unicode="&#x1e84;" horiz-adv-x="882" 
d="M413 879q57 0 57 -32l-7 -60q-5 -32 -63 -32q-57 0 -57 32l7 60q3 32 63 32zM593 879q57 0 57 -32l-7 -60q-5 -32 -63 -32q-57 0 -57 32l7 60q3 32 63 32zM860 702q60 0 60 -25q0 -4 -234 -658q-8 -21 -57 -21h-73q-50 0 -53 21l-43 327l-12 87l-32 -90l-113 -324
q-9 -21 -57 -21h-72q-52 0 -53 21l-92 650q0 33 65 33h26q60 0 64 -31l41 -322q3 -24 8.5 -72t7.5 -72l49 144l117 332q8 21 57 21h38q50 0 53 -21l44 -332l19 -151l49 151l112 322q10 31 70 31h11z" />
    <glyph glyph-name="wdieresis" unicode="&#x1e85;" horiz-adv-x="747" 
d="M334 702q57 0 57 -32l-7 -60q-5 -32 -63 -32q-57 0 -57 32l7 60q3 32 63 32zM514 702q57 0 57 -32l-7 -60q-5 -32 -63 -32q-57 0 -57 32l7 60q3 32 63 32zM685 525q59 0 59 -24q0 -7 -3 -17l-167 -465q-8 -21 -57 -21h-49q-48 0 -53 21l-42 281l-98 -281q-7 -21 -57 -21
h-49q-50 0 -53 21q-78 469 -78 480q3 26 65 26h24q50 0 53 -21l47 -308l108 308q7 21 57 21h24q50 0 53 -21l42 -308l113 308q8 21 61 21z" />
    <glyph glyph-name="uni1E92" unicode="&#x1e92;" horiz-adv-x="616" 
d="M572 700q13 0 22.5 -31t9.5 -56q0 -12 -3 -15l-382 -467h305q26 0 26 -40q0 -91 -38 -91h-479q-13 0 -22.5 31t-9.5 56q0 12 3 15l381 467h-278q-26 0 -26 40q0 91 38 91h453zM262 -80q57 0 57 -32l-7 -60q-5 -32 -63 -32q-57 0 -57 32l7 60q3 32 63 32z" />
    <glyph glyph-name="uni1E93" unicode="&#x1e93;" horiz-adv-x="489" 
d="M448 523q9 0 16.5 -25.5t7.5 -47.5q0 -15 -4 -19l-261 -314h207q26 0 26 -36q0 -81 -38 -81h-371q-9 0 -16.5 25.5t-7.5 47.5q0 15 4 19l261 314h-188q-26 0 -26 36q0 81 38 81h352zM200 -80q57 0 57 -32l-7 -60q-5 -32 -63 -32q-57 0 -57 32l7 60q3 32 63 32z" />
    <glyph glyph-name="uni1E9E" unicode="&#x1e9e;" horiz-adv-x="700" 
d="M398 708q128 0 231 -25q13 -3 22.5 -33t9.5 -54q0 -12 -3 -15l-131 -184q78 -27 111 -68t33 -98q0 -109 -73.5 -174t-185.5 -65q-21 0 -41.5 2t-46 8t-41 19.5t-15.5 33.5q0 94 24 94q3 0 16.5 -10t38.5 -20t54 -10q54 0 87 30.5t33 84.5q0 76 -93 84h-39q-13 0 -22.5 31
t-9.5 56q0 12 3 15l114 160q-50 6 -93 6q-131 0 -142 -149l-42 -397q-3 -32 -63 -32h-35q-57 0 -57 31l41 393q12 131 86.5 208.5t228.5 77.5z" />
    <glyph glyph-name="uni1EA0" unicode="&#x1ea0;" horiz-adv-x="613" 
d="M371 702q50 0 55 -21l158 -643q3 -9 3 -17q0 -23 -54 -23h-44q-49 0 -54 21l-29 122h-242l-55 -122q-10 -21 -48 -21h-40q-58 0 -58 20q0 8 6 20l291 643q9 21 59 21h52zM327 515h-4q-12 -41 -22 -64l-80 -178h154l-40 178q-6 26 -8 64zM290 -80q57 0 57 -32l-7 -60
q-5 -32 -63 -32q-57 0 -57 32l7 60q3 32 63 32z" />
    <glyph glyph-name="uni1EA1" unicode="&#x1ea1;" horiz-adv-x="545" 
d="M524 115q8 0 8 -11q0 -19 -7 -60q-4 -25 -31 -38.5t-57 -13.5q-95 0 -115 76q-22 -34 -58 -55.5t-78 -21.5q-74 0 -118 56.5t-44 160.5q0 144 62 233t160 89q65 0 121 -53q9 30 19 38t46 9h12q58 0 58 -25l-18 -174q-19 -174 -19 -184q0 -32 30 -32q8 0 18 3t11 3z
M336 335q1 7 4.5 24t5.5 27q-31 27 -66 27q-51 0 -78.5 -50.5t-27.5 -145.5q0 -105 68 -105q41 0 78 58q2 18 5.5 56.5t6 68.5t4.5 40zM220 -80q57 0 57 -32l-7 -60q-5 -32 -63 -32q-57 0 -57 32l7 60q3 32 63 32z" />
    <glyph glyph-name="uni1EA2" unicode="&#x1ea2;" horiz-adv-x="613" 
d="M388 845q0 22 -32 22q-13 0 -27 -6t-17 -6q-6 0 -15.5 15.5t-9.5 26.5q0 10 28.5 20.5t54.5 10.5q49 0 77 -21.5t28 -55.5t-42 -69t-60 -35q-27 0 -42 6.5t-15 14.5q0 10 36 34t36 43zM371 702q50 0 55 -21l158 -643q3 -9 3 -17q0 -23 -54 -23h-44q-49 0 -54 21l-29 122
h-242l-55 -122q-10 -21 -48 -21h-40q-58 0 -58 20q0 8 6 20l291 643q9 21 59 21h52zM327 515h-4q-12 -41 -22 -64l-80 -178h154l-40 178q-6 26 -8 64z" />
    <glyph glyph-name="uni1EA3" unicode="&#x1ea3;" horiz-adv-x="545" 
d="M262 678q-6 0 -15.5 15.5t-9.5 26.5q0 10 28.5 20.5t54.5 10.5q49 0 77 -21.5t28 -55.5t-42 -69t-60 -35q-27 0 -42 6.5t-15 14.5q0 9 18 21t36 27t18 29q0 22 -32 22q-13 0 -27 -6t-17 -6zM524 115q8 0 8 -11q0 -19 -7 -60q-4 -25 -31 -38.5t-57 -13.5q-95 0 -115 76
q-22 -34 -58 -55.5t-78 -21.5q-74 0 -118 56.5t-44 160.5q0 144 62 233t160 89q65 0 121 -53q9 30 19 38t46 9h12q58 0 58 -25l-18 -174q-19 -174 -19 -184q0 -32 30 -32q8 0 18 3t11 3zM336 335q1 7 4.5 24t5.5 27q-31 27 -66 27q-51 0 -78.5 -50.5t-27.5 -145.5
q0 -105 68 -105q41 0 78 58q2 18 5.5 56.5t6 68.5t4.5 40z" />
    <glyph glyph-name="uni1EA4" unicode="&#x1ea4;" horiz-adv-x="613" 
d="M571 963q38 0 38 -23q0 -16 -86 -101q-17 -15 -58 -15q-19 0 -19 13q0 6 47 99q14 27 78 27zM363 895q40 0 49 -19l49 -102q3 -8 3 -12q0 -13 -19 -13h-22q-59 0 -64 24l-10 40l-31 -39q-19 -25 -69 -25h-24q-19 0 -19 10q0 7 7 15l76 102q14 19 63 19h11zM371 702
q50 0 55 -21l158 -643q3 -9 3 -17q0 -23 -54 -23h-44q-49 0 -54 21l-29 122h-242l-55 -122q-10 -21 -48 -21h-40q-58 0 -58 20q0 8 6 20l291 643q9 21 59 21h52zM327 515h-4q-12 -41 -22 -64l-80 -178h154l-40 178q-6 26 -8 64z" />
    <glyph glyph-name="uni1EA5" unicode="&#x1ea5;" horiz-adv-x="545" 
d="M550 863q58 0 58 -13q0 -7 -4.5 -12.5t-35.5 -34.5q-12 -12 -20 -19.5t-24 -23t-32 -31.5q-25 -25 -78 -25q-29 0 -29 13q0 3 2 7.5t8.5 14t14 20.5t22.5 32.5t30 44.5q18 27 88 27zM175 572q-19 0 -19 10q0 7 7 15l76 102q14 19 63 19h11q40 0 49 -19l49 -102
q3 -8 3 -12q0 -13 -19 -13h-22q-59 0 -64 24l-10 40l-31 -39q-19 -25 -69 -25h-24zM524 115q8 0 8 -11q0 -19 -7 -60q-4 -25 -31 -38.5t-57 -13.5q-95 0 -115 76q-22 -34 -58 -55.5t-78 -21.5q-74 0 -118 56.5t-44 160.5q0 144 62 233t160 89q65 0 121 -53q9 30 19 38t46 9
h12q58 0 58 -25l-18 -174q-19 -174 -19 -184q0 -32 30 -32q8 0 18 3t11 3zM336 335q1 7 4.5 24t5.5 27q-31 27 -66 27q-51 0 -78.5 -50.5t-27.5 -145.5q0 -105 68 -105q41 0 78 58q2 18 5.5 56.5t6 68.5t4.5 40z" />
    <glyph glyph-name="uni1EA6" unicode="&#x1ea6;" horiz-adv-x="613" 
d="M425 964q73 0 82 -27q28 -91 28 -96q0 -16 -33 -16q-40 0 -59 25q-15 20 -35 48q-32 44 -32 50q0 16 49 16zM363 895q40 0 49 -19l49 -102q3 -8 3 -12q0 -13 -19 -13h-22q-59 0 -64 24l-10 40l-31 -39q-19 -25 -69 -25h-24q-19 0 -19 10q0 7 7 15l76 102q14 19 63 19h11z
M371 702q50 0 55 -21l158 -643q3 -9 3 -17q0 -23 -54 -23h-44q-49 0 -54 21l-29 122h-242l-55 -122q-10 -21 -48 -21h-40q-58 0 -58 20q0 8 6 20l291 643q9 21 59 21h52zM327 515h-4q-12 -41 -22 -64l-80 -178h154l-40 178q-6 26 -8 64z" />
    <glyph glyph-name="uni1EA7" unicode="&#x1ea7;" horiz-adv-x="545" 
d="M474 704q-51 0 -72 25q-23 29 -54 65q-26 31 -32 39.5t-6 13.5q0 16 62 16q69 0 82 -27q10 -21 19.5 -41t15 -31t10 -21t6.5 -15t2 -8q0 -16 -33 -16zM175 572q-19 0 -19 10q0 7 7 15l76 102q14 19 63 19h11q40 0 49 -19l49 -102q3 -8 3 -12q0 -13 -19 -13h-22
q-59 0 -64 24l-10 40l-31 -39q-19 -25 -69 -25h-24zM524 115q8 0 8 -11q0 -19 -7 -60q-4 -25 -31 -38.5t-57 -13.5q-95 0 -115 76q-22 -34 -58 -55.5t-78 -21.5q-74 0 -118 56.5t-44 160.5q0 144 62 233t160 89q65 0 121 -53q9 30 19 38t46 9h12q58 0 58 -25l-18 -174
q-19 -174 -19 -184q0 -32 30 -32q8 0 18 3t11 3zM336 335q1 7 4.5 24t5.5 27q-31 27 -66 27q-51 0 -78.5 -50.5t-27.5 -145.5q0 -105 68 -105q41 0 78 58q2 18 5.5 56.5t6 68.5t4.5 40z" />
    <glyph glyph-name="uni1EA8" unicode="&#x1ea8;" horiz-adv-x="613" 
d="M506 896q0 17 -21 17q-18 0 -34 -8.5t-18 -8.5q-6 0 -15.5 15.5t-9.5 26.5q0 10 28 19t55 9q85 0 85 -66q0 -28 -40 -53q-34 -21 -44 -21q-41 0 -41 21q0 12 21 20q14 6 19.5 9t10 8t4.5 12zM363 895q40 0 49 -19l49 -102q3 -8 3 -12q0 -13 -19 -13h-22q-59 0 -64 24
l-10 40l-31 -39q-19 -25 -69 -25h-24q-19 0 -19 10q0 7 7 15l76 102q14 19 63 19h11zM371 702q50 0 55 -21l158 -643q3 -9 3 -17q0 -23 -54 -23h-44q-49 0 -54 21l-29 122h-242l-55 -122q-10 -21 -48 -21h-40q-58 0 -58 20q0 8 6 20l291 643q9 21 59 21h52zM327 515h-4
q-12 -41 -22 -64l-80 -178h154l-40 178q-6 26 -8 64z" />
    <glyph glyph-name="uni1EA9" unicode="&#x1ea9;" horiz-adv-x="545" 
d="M467 880q49 0 77 -21.5t28 -55.5t-42 -69t-60 -35q-27 0 -42 6.5t-15 14.5q0 10 36 34t36 43q0 22 -32 22q-13 0 -27 -6t-17 -6q-6 0 -15.5 15.5t-9.5 26.5q0 10 28.5 20.5t54.5 10.5zM175 572q-19 0 -19 10q0 7 7 15l76 102q14 19 63 19h11q40 0 49 -19l49 -102
q3 -8 3 -12q0 -13 -19 -13h-22q-59 0 -64 24l-10 40l-31 -39q-19 -25 -69 -25h-24zM524 115q8 0 8 -11q0 -19 -7 -60q-4 -25 -31 -38.5t-57 -13.5q-95 0 -115 76q-22 -34 -58 -55.5t-78 -21.5q-74 0 -118 56.5t-44 160.5q0 144 62 233t160 89q65 0 121 -53q9 30 19 38t46 9
h12q58 0 58 -25l-18 -174q-19 -174 -19 -184q0 -32 30 -32q8 0 18 3t11 3zM336 335q1 7 4.5 24t5.5 27q-31 27 -66 27q-51 0 -78.5 -50.5t-27.5 -145.5q0 -105 68 -105q41 0 78 58q2 18 5.5 56.5t6 68.5t4.5 40z" />
    <glyph glyph-name="uni1EAA" unicode="&#x1eaa;" horiz-adv-x="613" 
d="M308 1016q16 0 65 -14t63 -15q17 0 30 16q16 22 37 15l10 -3q29 -9 18 -41q-10 -29 -36 -49.5t-63 -20.5q-16 0 -65 14t-63 15q-17 0 -30 -16q-16 -22 -37 -15l-10 3q-29 9 -18 41q10 29 36 49.5t63 20.5zM370 871q44 0 59 -19l54 -78q3 -8 3 -12q0 -13 -19 -13h-22
q-27 0 -64 24l-25 26l-31 -25q-7 -3 -17.5 -8.5t-16.5 -8.5t-15.5 -5.5t-19.5 -2.5h-24q-19 0 -19 10q0 7 7 15l76 78q20 19 63 19h11zM371 702q50 0 55 -21l158 -643q3 -9 3 -17q0 -23 -54 -23h-44q-49 0 -54 21l-29 122h-242l-55 -122q-10 -21 -48 -21h-40q-58 0 -58 20
q0 8 6 20l291 643q9 21 59 21h52zM327 515h-4q-12 -41 -22 -64l-80 -178h154l-40 178q-6 26 -8 64z" />
    <glyph glyph-name="uni1EAB" unicode="&#x1eab;" horiz-adv-x="545" 
d="M183 765q-29 9 -18 41q10 29 36 49.5t63 20.5q16 0 65 -14t63 -15q17 0 30 16q16 22 37 15l10 -3q29 -9 18 -41q-10 -29 -36 -49.5t-63 -20.5q-16 0 -65 14t-63 15q-17 0 -30 -16q-16 -22 -37 -15zM178 572q-19 0 -19 10q0 7 7 15l76 102q14 19 63 19h11q48 0 59 -19
l54 -102q3 -8 3 -12q0 -13 -19 -13h-22q-49 0 -64 24l-25 40l-31 -39q-19 -25 -69 -25h-24zM524 115q8 0 8 -11q0 -19 -7 -60q-4 -25 -31 -38.5t-57 -13.5q-95 0 -115 76q-22 -34 -58 -55.5t-78 -21.5q-74 0 -118 56.5t-44 160.5q0 144 62 233t160 89q65 0 121 -53
q9 30 19 38t46 9h12q58 0 58 -25l-18 -174q-19 -174 -19 -184q0 -32 30 -32q8 0 18 3t11 3zM336 335q1 7 4.5 24t5.5 27q-31 27 -66 27q-51 0 -78.5 -50.5t-27.5 -145.5q0 -105 68 -105q41 0 78 58q2 18 5.5 56.5t6 68.5t4.5 40z" />
    <glyph glyph-name="uni1EAC" unicode="&#x1eac;" horiz-adv-x="613" 
d="M366 895q48 0 59 -19l54 -102q3 -8 3 -12q0 -13 -19 -13h-22q-49 0 -64 24l-25 40l-31 -39q-19 -25 -69 -25h-24q-19 0 -19 10q0 7 7 15l76 102q14 19 63 19h11zM371 702q50 0 55 -21l158 -643q3 -9 3 -17q0 -23 -54 -23h-44q-49 0 -54 21l-29 122h-242l-55 -122
q-10 -21 -48 -21h-40q-58 0 -58 20q0 8 6 20l291 643q9 21 59 21h52zM327 515h-4q-12 -41 -22 -64l-80 -178h154l-40 178q-6 26 -8 64zM290 -80q57 0 57 -32l-7 -60q-5 -32 -63 -32q-57 0 -57 32l7 60q3 32 63 32z" />
    <glyph glyph-name="uni1EAD" unicode="&#x1ead;" horiz-adv-x="545" 
d="M178 572q-19 0 -19 10q0 7 7 15l76 102q14 19 63 19h11q48 0 59 -19l54 -102q3 -8 3 -12q0 -13 -19 -13h-22q-49 0 -64 24l-25 40l-31 -39q-19 -25 -69 -25h-24zM524 115q8 0 8 -11q0 -19 -7 -60q-4 -25 -31 -38.5t-57 -13.5q-95 0 -115 76q-22 -34 -58 -55.5t-78 -21.5
q-74 0 -118 56.5t-44 160.5q0 144 62 233t160 89q65 0 121 -53q9 30 19 38t46 9h12q58 0 58 -25l-18 -174q-19 -174 -19 -184q0 -32 30 -32q8 0 18 3t11 3zM336 335q1 7 4.5 24t5.5 27q-31 27 -66 27q-51 0 -78.5 -50.5t-27.5 -145.5q0 -105 68 -105q41 0 78 58
q2 18 5.5 56.5t6 68.5t4.5 40zM220 -80q57 0 57 -32l-7 -60q-5 -32 -63 -32q-57 0 -57 32l7 60q3 32 63 32z" />
    <glyph glyph-name="uni1EAE" unicode="&#x1eae;" horiz-adv-x="613" 
d="M444 1006q38 0 38 -23q0 -16 -86 -101q-17 -15 -58 -15q-19 0 -19 13q0 6 47 99q14 27 78 27zM477 883q32 0 32 -24q0 -41 -48 -74.5t-111 -33.5q-60 0 -98 29t-38 66t39 37q17 0 31 -18q23 -31 76 -31q27 0 45.5 6t25 11.5t17.5 18.5q13 13 29 13zM371 702q50 0 55 -21
l158 -643q3 -9 3 -17q0 -23 -54 -23h-44q-49 0 -54 21l-29 122h-242l-55 -122q-10 -21 -48 -21h-40q-58 0 -58 20q0 8 6 20l291 643q9 21 59 21h52zM327 515h-4q-12 -41 -22 -64l-80 -178h154l-40 178q-6 26 -8 64z" />
    <glyph glyph-name="uni1EAF" unicode="&#x1eaf;" horiz-adv-x="545" 
d="M286 738q-29 0 -29 13q0 3 2 7.5t8.5 14t14 20.5t22.5 32.5t30 44.5q18 27 88 27q58 0 58 -13q0 -7 -4.5 -12.5t-35.5 -34.5q-41 -40 -76 -74q-25 -25 -78 -25zM298 575q-60 0 -98 30.5t-38 72.5q0 37 39 37q17 0 31 -18q24 -31 76 -31q17 0 29.5 2t22.5 7.5t14 7.5
t13 11l9 8q13 13 29 13q32 0 32 -24q0 -45 -47.5 -80.5t-111.5 -35.5zM524 115q8 0 8 -11q0 -19 -7 -60q-4 -25 -31 -38.5t-57 -13.5q-95 0 -115 76q-22 -34 -58 -55.5t-78 -21.5q-74 0 -118 56.5t-44 160.5q0 144 62 233t160 89q65 0 121 -53q9 30 19 38t46 9h12
q58 0 58 -25l-18 -174q-19 -174 -19 -184q0 -32 30 -32q8 0 18 3t11 3zM336 335q1 7 4.5 24t5.5 27q-31 27 -66 27q-51 0 -78.5 -50.5t-27.5 -145.5q0 -105 68 -105q41 0 78 58q2 18 5.5 56.5t6 68.5t4.5 40z" />
    <glyph glyph-name="uni1EB0" unicode="&#x1eb0;" horiz-adv-x="613" 
d="M298 1007q73 0 82 -27q28 -91 28 -96q0 -16 -33 -16q-40 0 -59 25q-15 20 -35 48q-32 44 -32 50q0 16 49 16zM477 883q32 0 32 -24q0 -41 -48 -74.5t-111 -33.5q-60 0 -98 29t-38 66t39 37q17 0 31 -18q23 -31 76 -31q27 0 45.5 6t25 11.5t17.5 18.5q13 13 29 13z
M371 702q50 0 55 -21l158 -643q3 -9 3 -17q0 -23 -54 -23h-44q-49 0 -54 21l-29 122h-242l-55 -122q-10 -21 -48 -21h-40q-58 0 -58 20q0 8 6 20l291 643q9 21 59 21h52zM327 515h-4q-12 -41 -22 -64l-80 -178h154l-40 178q-6 26 -8 64z" />
    <glyph glyph-name="uni1EB1" unicode="&#x1eb1;" horiz-adv-x="545" 
d="M346 738q-51 0 -72 25q-23 29 -54 65q-38 46 -38 53q0 16 62 16q69 0 82 -27q10 -21 19.5 -41t15 -31t10 -21t6.5 -15t2 -8q0 -16 -33 -16zM298 575q-60 0 -98 30.5t-38 72.5q0 37 39 37q17 0 31 -18q24 -31 76 -31q17 0 29.5 2t22.5 7.5t14 7.5t13 11l9 8q13 13 29 13
q32 0 32 -24q0 -45 -47.5 -80.5t-111.5 -35.5zM524 115q8 0 8 -11q0 -19 -7 -60q-4 -25 -31 -38.5t-57 -13.5q-95 0 -115 76q-22 -34 -58 -55.5t-78 -21.5q-74 0 -118 56.5t-44 160.5q0 144 62 233t160 89q65 0 121 -53q9 30 19 38t46 9h12q58 0 58 -25l-18 -174
q-19 -174 -19 -184q0 -32 30 -32q8 0 18 3t11 3zM336 335q1 7 4.5 24t5.5 27q-31 27 -66 27q-51 0 -78.5 -50.5t-27.5 -145.5q0 -105 68 -105q41 0 78 58q2 18 5.5 56.5t6 68.5t4.5 40z" />
    <glyph glyph-name="uni1EB2" unicode="&#x1eb2;" horiz-adv-x="613" 
d="M379 939q0 17 -21 17q-18 0 -34 -8.5t-18 -8.5q-6 0 -15.5 15.5t-9.5 26.5q0 10 28 19t55 9q85 0 85 -66q0 -28 -40 -53q-34 -21 -44 -21q-41 0 -41 21q0 12 21 20q14 6 19.5 9t10 8t4.5 12zM477 883q32 0 32 -24q0 -41 -48 -74.5t-111 -33.5q-60 0 -98 29t-38 66t39 37
q17 0 31 -18q23 -31 76 -31q27 0 45.5 6t25 11.5t17.5 18.5q13 13 29 13zM371 702q50 0 55 -21l158 -643q3 -9 3 -17q0 -23 -54 -23h-44q-49 0 -54 21l-29 122h-242l-55 -122q-10 -21 -48 -21h-40q-58 0 -58 20q0 8 6 20l291 643q9 21 59 21h52zM327 515h-4q-12 -41 -22 -64
l-80 -178h154l-40 178q-6 26 -8 64z" />
    <glyph glyph-name="uni1EB3" unicode="&#x1eb3;" horiz-adv-x="545" 
d="M281 841q-6 0 -15.5 15.5t-9.5 26.5q0 10 28.5 20.5t54.5 10.5q49 0 77 -21.5t28 -55.5t-42 -69t-60 -35q-27 0 -42 6.5t-15 14.5q0 10 36 34t36 43q0 22 -32 22q-13 0 -27 -6t-17 -6zM298 575q-60 0 -98 30.5t-38 72.5q0 37 39 37q17 0 31 -18q24 -31 76 -31
q17 0 29.5 2t22.5 7.5t14 7.5t13 11l9 8q13 13 29 13q32 0 32 -24q0 -45 -47.5 -80.5t-111.5 -35.5zM524 115q8 0 8 -11q0 -19 -7 -60q-4 -25 -31 -38.5t-57 -13.5q-95 0 -115 76q-22 -34 -58 -55.5t-78 -21.5q-74 0 -118 56.5t-44 160.5q0 144 62 233t160 89q65 0 121 -53
q9 30 19 38t46 9h12q58 0 58 -25l-18 -174q-19 -174 -19 -184q0 -32 30 -32q8 0 18 3t11 3zM336 335q1 7 4.5 24t5.5 27q-31 27 -66 27q-51 0 -78.5 -50.5t-27.5 -145.5q0 -105 68 -105q41 0 78 58q2 18 5.5 56.5t6 68.5t4.5 40z" />
    <glyph glyph-name="uni1EB4" unicode="&#x1eb4;" horiz-adv-x="613" 
d="M308 1016q16 0 65 -14t63 -15q17 0 30 16q16 22 37 15l10 -3q29 -9 18 -41q-10 -29 -36 -49.5t-63 -20.5q-16 0 -65 14t-63 15q-17 0 -30 -16q-16 -22 -37 -15l-10 3q-29 9 -18 41q10 29 36 49.5t63 20.5zM477 883q32 0 32 -24q0 -41 -48 -74.5t-111 -33.5q-60 0 -98 29
t-38 66t39 37q17 0 31 -18q23 -31 76 -31q27 0 45.5 6t25 11.5t17.5 18.5q13 13 29 13zM371 702q50 0 55 -21l158 -643q3 -9 3 -17q0 -23 -54 -23h-44q-49 0 -54 21l-29 122h-242l-55 -122q-10 -21 -48 -21h-40q-58 0 -58 20q0 8 6 20l291 643q9 21 59 21h52zM327 515h-4
q-12 -41 -22 -64l-80 -178h154l-40 178q-6 26 -8 64z" />
    <glyph glyph-name="uni1EB5" unicode="&#x1eb5;" horiz-adv-x="545" 
d="M177 759q-29 9 -18 41q10 29 36 49.5t63 20.5q16 0 65 -14t63 -15q17 0 30 16q16 22 37 15l10 -3q29 -9 18 -41q-10 -29 -36 -49.5t-63 -20.5q-16 0 -65 14t-63 15q-17 0 -30 -16q-16 -22 -37 -15zM425 715q32 0 32 -24q0 -45 -47.5 -80.5t-111.5 -35.5q-60 0 -98 30.5
t-38 72.5q0 37 39 37q17 0 31 -18q24 -31 76 -31q17 0 29.5 2t22.5 7.5t14 7.5t13 11l9 8q13 13 29 13zM524 115q8 0 8 -11q0 -19 -7 -60q-4 -25 -31 -38.5t-57 -13.5q-95 0 -115 76q-22 -34 -58 -55.5t-78 -21.5q-74 0 -118 56.5t-44 160.5q0 144 62 233t160 89
q65 0 121 -53q9 30 19 38t46 9h12q58 0 58 -25l-18 -174q-19 -174 -19 -184q0 -32 30 -32q8 0 18 3t11 3zM336 335q1 7 4.5 24t5.5 27q-31 27 -66 27q-51 0 -78.5 -50.5t-27.5 -145.5q0 -105 68 -105q41 0 78 58q2 18 5.5 56.5t6 68.5t4.5 40z" />
    <glyph glyph-name="uni1EB6" unicode="&#x1eb6;" horiz-adv-x="613" 
d="M475 892q32 0 32 -24q0 -45 -47.5 -80.5t-111.5 -35.5q-60 0 -98 30.5t-38 72.5q0 37 39 37q17 0 31 -18q24 -31 76 -31q17 0 29.5 2t22.5 7.5t14 7.5t13 10l9 9q13 13 29 13zM371 702q50 0 55 -21l158 -643q3 -9 3 -17q0 -23 -54 -23h-44q-49 0 -54 21l-29 122h-242
l-55 -122q-10 -21 -48 -21h-40q-58 0 -58 20q0 8 6 20l291 643q9 21 59 21h52zM327 515h-4q-12 -41 -22 -64l-80 -178h154l-40 178q-6 26 -8 64zM290 -80q57 0 57 -32l-7 -60q-5 -32 -63 -32q-57 0 -57 32l7 60q3 32 63 32z" />
    <glyph glyph-name="uni1EB7" unicode="&#x1eb7;" horiz-adv-x="545" 
d="M298 575q-60 0 -98 30.5t-38 72.5q0 37 39 37q17 0 31 -18q24 -31 76 -31q17 0 29.5 2t22.5 7.5t14 7.5t13 11l9 8q13 13 29 13q32 0 32 -24q0 -45 -47.5 -80.5t-111.5 -35.5zM524 115q8 0 8 -11q0 -19 -7 -60q-4 -25 -31 -38.5t-57 -13.5q-95 0 -115 76
q-22 -34 -58 -55.5t-78 -21.5q-74 0 -118 56.5t-44 160.5q0 144 62 233t160 89q65 0 121 -53q9 30 19 38t46 9h12q58 0 58 -25l-18 -174q-19 -174 -19 -184q0 -32 30 -32q8 0 18 3t11 3zM336 335q1 7 4.5 24t5.5 27q-31 27 -66 27q-51 0 -78.5 -50.5t-27.5 -145.5
q0 -105 68 -105q41 0 78 58q2 18 5.5 56.5t6 68.5t4.5 40zM220 -80q57 0 57 -32l-7 -60q-5 -32 -63 -32q-57 0 -57 32l7 60q3 32 63 32z" />
    <glyph glyph-name="uni1EB8" unicode="&#x1eb8;" horiz-adv-x="546" 
d="M515 700q26 0 26 -40q0 -91 -38 -91h-252l-16 -145h224q26 0 26 -40q0 -91 -38 -91h-225l-18 -162h252q26 0 26 -40q0 -91 -38 -91h-368q-20 0 -28 7t-8 25l65 628q4 40 44 40h366zM242 -80q57 0 57 -32l-7 -60q-5 -32 -63 -32q-57 0 -57 32l7 60q3 32 63 32z" />
    <glyph glyph-name="uni1EB9" unicode="&#x1eb9;" horiz-adv-x="539" 
d="M502 386q0 -92 -65 -137.5t-150 -45.5q-55 0 -104 7q4 -58 30 -79.5t75 -21.5q35 0 71 11t58.5 22t25.5 11q8 0 8 -14q0 -1 -1 -17t-3 -34.5t-4 -25.5q-11 -37 -65 -53.5t-109 -16.5q-119 0 -177.5 58t-58.5 162q0 163 77 241t198 78q57 0 98 -15t60.5 -39t27.5 -46
t8 -45zM190 302h48q64 0 92 19.5t28 45.5q0 47 -60 47q-83 0 -108 -112zM259 -80q57 0 57 -32l-7 -60q-5 -32 -63 -32q-57 0 -57 32l7 60q3 32 63 32z" />
    <glyph glyph-name="uni1EBA" unicode="&#x1eba;" horiz-adv-x="546" 
d="M371 845q0 22 -32 22q-13 0 -27 -6t-17 -6q-6 0 -15.5 15.5t-9.5 26.5q0 10 28.5 20.5t54.5 10.5q49 0 77 -21.5t28 -55.5t-42 -69t-60 -35q-27 0 -42 6.5t-15 14.5q0 10 36 34t36 43zM515 700q26 0 26 -40q0 -91 -38 -91h-252l-16 -145h224q26 0 26 -40q0 -91 -38 -91
h-225l-18 -162h252q26 0 26 -40q0 -91 -38 -91h-368q-20 0 -28 7t-8 25l65 628q4 40 44 40h366z" />
    <glyph glyph-name="uni1EBB" unicode="&#x1ebb;" horiz-adv-x="539" 
d="M271 678q-6 0 -15.5 15.5t-9.5 26.5q0 10 28.5 20.5t54.5 10.5q49 0 77 -21.5t28 -55.5t-42 -69t-60 -35q-27 0 -42 6.5t-15 14.5q0 9 18 21t36 27t18 29q0 22 -32 22q-13 0 -27 -6t-17 -6zM502 386q0 -92 -65 -137.5t-150 -45.5q-55 0 -104 7q4 -58 30 -79.5t75 -21.5
q35 0 71 11t58.5 22t25.5 11q8 0 8 -14q0 -1 -1 -17t-3 -34.5t-4 -25.5q-11 -37 -65 -53.5t-109 -16.5q-119 0 -177.5 58t-58.5 162q0 163 77 241t198 78q57 0 98 -15t60.5 -39t27.5 -46t8 -45zM190 302h48q64 0 92 19.5t28 45.5q0 47 -60 47q-83 0 -108 -112z" />
    <glyph glyph-name="uni1EBC" unicode="&#x1ebc;" horiz-adv-x="546" 
d="M263 871q18 0 72 -14t69 -15q19 0 33 16q17 22 40 15l11 -3q17 -5 21.5 -18t-1.5 -23q-11 -29 -39.5 -49.5t-69.5 -20.5q-18 0 -71.5 14t-68.5 15q-19 0 -33 -16q-18 -22 -41 -15l-11 3q-31 9 -20 41q11 29 40 49.5t69 20.5zM515 700q26 0 26 -40q0 -91 -38 -91h-252
l-16 -145h224q26 0 26 -40q0 -91 -38 -91h-225l-18 -162h252q26 0 26 -40q0 -91 -38 -91h-368q-20 0 -28 7t-8 25l65 628q4 40 44 40h366z" />
    <glyph glyph-name="uni1EBD" unicode="&#x1ebd;" horiz-adv-x="539" 
d="M150 583q-31 9 -20 41q11 29 40 49.5t69 20.5q18 0 72 -14t69 -15q19 0 33 16q17 22 40 15l11 -3q17 -5 21.5 -18t-1.5 -23q-11 -29 -39.5 -49.5t-69.5 -20.5q-18 0 -71.5 14t-68.5 15q-19 0 -33 -16q-18 -22 -41 -15zM502 386q0 -92 -65 -137.5t-150 -45.5q-55 0 -104 7
q4 -58 30 -79.5t75 -21.5q35 0 71 11t58.5 22t25.5 11q8 0 8 -14q0 -1 -1 -17t-3 -34.5t-4 -25.5q-11 -37 -65 -53.5t-109 -16.5q-119 0 -177.5 58t-58.5 162q0 163 77 241t198 78q57 0 98 -15t60.5 -39t27.5 -46t8 -45zM190 302h48q64 0 92 19.5t28 45.5q0 47 -60 47
q-83 0 -108 -112z" />
    <glyph glyph-name="uni1EBE" unicode="&#x1ebe;" horiz-adv-x="546" 
d="M554 963q38 0 38 -23q0 -16 -86 -101q-17 -15 -58 -15q-19 0 -19 13q0 6 47 99q14 27 78 27zM346 895q40 0 49 -19l49 -102q3 -8 3 -12q0 -13 -19 -13h-22q-59 0 -64 24l-10 40l-31 -39q-19 -25 -69 -25h-24q-19 0 -19 10q0 7 7 15l76 102q14 19 63 19h11zM515 700
q26 0 26 -40q0 -91 -38 -91h-252l-16 -145h224q26 0 26 -40q0 -91 -38 -91h-225l-18 -162h252q26 0 26 -40q0 -91 -38 -91h-368q-20 0 -28 7t-8 25l65 628q4 40 44 40h366z" />
    <glyph glyph-name="uni1EBF" unicode="&#x1ebf;" horiz-adv-x="539" 
d="M559 863q58 0 58 -13q0 -7 -4.5 -12.5t-35.5 -34.5q-12 -12 -20 -19.5t-24 -23t-32 -31.5q-25 -25 -78 -25q-29 0 -29 13q0 3 2 7.5t8.5 14t14 20.5t22.5 32.5t30 44.5q18 27 88 27zM184 572q-19 0 -19 10q0 7 7 15l76 102q14 19 63 19h11q40 0 49 -19l49 -102
q3 -8 3 -12q0 -13 -19 -13h-22q-59 0 -64 24l-10 40l-31 -39q-19 -25 -69 -25h-24zM308 531q57 0 98 -15t60.5 -39t27.5 -46t8 -45q0 -92 -65 -137.5t-150 -45.5q-55 0 -104 7q4 -58 30 -79.5t75 -21.5q35 0 71 11t58.5 22t25.5 11q8 0 8 -14q0 -1 -1 -17t-3 -34.5t-4 -25.5
q-11 -37 -65 -53.5t-109 -16.5q-119 0 -177.5 58t-58.5 162q0 163 77 241t198 78zM238 302q64 0 92 19.5t28 45.5q0 47 -60 47q-83 0 -108 -112h48z" />
    <glyph glyph-name="uni1EC0" unicode="&#x1ec0;" horiz-adv-x="546" 
d="M408 964q73 0 82 -27q28 -91 28 -96q0 -16 -33 -16q-40 0 -59 25q-15 20 -35 48q-32 44 -32 50q0 16 49 16zM346 895q40 0 49 -19l49 -102q3 -8 3 -12q0 -13 -19 -13h-22q-59 0 -64 24l-10 40l-31 -39q-19 -25 -69 -25h-24q-19 0 -19 10q0 7 7 15l76 102q14 19 63 19h11z
M515 700q26 0 26 -40q0 -91 -38 -91h-252l-16 -145h224q26 0 26 -40q0 -91 -38 -91h-225l-18 -162h252q26 0 26 -40q0 -91 -38 -91h-368q-20 0 -28 7t-8 25l65 628q4 40 44 40h366z" />
    <glyph glyph-name="uni1EC1" unicode="&#x1ec1;" horiz-adv-x="539" 
d="M463 836q10 -21 19.5 -41t15 -31t10 -21t6.5 -15t2 -8q0 -16 -33 -16q-51 0 -72 25q-23 29 -54 65q-26 31 -32 39.5t-6 13.5q0 16 62 16q69 0 82 -27zM184 572q-19 0 -19 10q0 7 7 15l76 102q14 19 63 19h11q40 0 49 -19l49 -102q3 -8 3 -12q0 -13 -19 -13h-22
q-59 0 -64 24l-10 40l-31 -39q-19 -25 -69 -25h-24zM308 531q57 0 98 -15t60.5 -39t27.5 -46t8 -45q0 -92 -65 -137.5t-150 -45.5q-55 0 -104 7q4 -58 30 -79.5t75 -21.5q35 0 71 11t58.5 22t25.5 11q8 0 8 -14q0 -1 -1 -17t-3 -34.5t-4 -25.5q-11 -37 -65 -53.5t-109 -16.5
q-119 0 -177.5 58t-58.5 162q0 163 77 241t198 78zM238 302q64 0 92 19.5t28 45.5q0 47 -60 47q-83 0 -108 -112h48z" />
    <glyph glyph-name="uni1EC2" unicode="&#x1ec2;" horiz-adv-x="546" 
d="M489 896q0 17 -21 17q-18 0 -34 -8.5t-18 -8.5q-6 0 -15.5 15.5t-9.5 26.5q0 10 28 19t55 9q85 0 85 -66q0 -28 -40 -53q-34 -21 -44 -21q-41 0 -41 21q0 12 21 20q14 6 19.5 9t10 8t4.5 12zM346 895q40 0 49 -19l49 -102q3 -8 3 -12q0 -13 -19 -13h-22q-59 0 -64 24
l-10 40l-31 -39q-19 -25 -69 -25h-24q-19 0 -19 10q0 7 7 15l76 102q14 19 63 19h11zM515 700q26 0 26 -40q0 -91 -38 -91h-252l-16 -145h224q26 0 26 -40q0 -91 -38 -91h-225l-18 -162h252q26 0 26 -40q0 -91 -38 -91h-368q-20 0 -28 7t-8 25l65 628q4 40 44 40h366z" />
    <glyph glyph-name="uni1EC3" unicode="&#x1ec3;" horiz-adv-x="539" 
d="M476 880q49 0 77 -21.5t28 -55.5t-42 -69t-60 -35q-27 0 -42 6.5t-15 14.5q0 10 36 34t36 43q0 22 -32 22q-13 0 -27 -6t-17 -6q-6 0 -15.5 15.5t-9.5 26.5q0 10 28.5 20.5t54.5 10.5zM184 572q-19 0 -19 10q0 7 7 15l76 102q14 19 63 19h11q40 0 49 -19l49 -102
q3 -8 3 -12q0 -13 -19 -13h-22q-59 0 -64 24l-10 40l-31 -39q-19 -25 -69 -25h-24zM308 531q57 0 98 -15t60.5 -39t27.5 -46t8 -45q0 -92 -65 -137.5t-150 -45.5q-55 0 -104 7q4 -58 30 -79.5t75 -21.5q35 0 71 11t58.5 22t25.5 11q8 0 8 -14q0 -1 -1 -17t-3 -34.5t-4 -25.5
q-11 -37 -65 -53.5t-109 -16.5q-119 0 -177.5 58t-58.5 162q0 163 77 241t198 78zM238 302q64 0 92 19.5t28 45.5q0 47 -60 47q-83 0 -108 -112h48z" />
    <glyph glyph-name="uni1EC4" unicode="&#x1ec4;" horiz-adv-x="546" 
d="M291 1016q16 0 65 -14t63 -15q17 0 30 16q16 22 37 15l10 -3q29 -9 18 -41q-10 -29 -36 -49.5t-63 -20.5q-16 0 -65 14t-63 15q-17 0 -30 -16q-16 -22 -37 -15l-10 3q-29 9 -18 41q10 29 36 49.5t63 20.5zM353 871q44 0 59 -19l54 -78q3 -8 3 -12q0 -13 -19 -13h-22
q-27 0 -64 24l-25 26l-31 -25q-7 -3 -17.5 -8.5t-16.5 -8.5t-15.5 -5.5t-19.5 -2.5h-24q-19 0 -19 10q0 7 7 15l76 78q20 19 63 19h11zM515 700q26 0 26 -40q0 -91 -38 -91h-252l-16 -145h224q26 0 26 -40q0 -91 -38 -91h-225l-18 -162h252q26 0 26 -40q0 -91 -38 -91h-368
q-20 0 -28 7t-8 25l65 628q4 40 44 40h366z" />
    <glyph glyph-name="uni1EC5" unicode="&#x1ec5;" horiz-adv-x="539" 
d="M192 765q-29 9 -18 41q10 29 36 49.5t63 20.5q16 0 65 -14t63 -15q17 0 30 16q16 22 37 15l10 -3q29 -9 18 -41q-10 -29 -36 -49.5t-63 -20.5q-16 0 -65 14t-63 15q-17 0 -30 -16q-16 -22 -37 -15zM187 572q-19 0 -19 10q0 7 7 15l76 102q14 19 63 19h11q48 0 59 -19
l54 -102q3 -8 3 -12q0 -13 -19 -13h-22q-49 0 -64 24l-25 40l-31 -39q-19 -25 -69 -25h-24zM502 386q0 -92 -65 -137.5t-150 -45.5q-55 0 -104 7q4 -58 30 -79.5t75 -21.5q35 0 71 11t58.5 22t25.5 11q8 0 8 -14q0 -1 -1 -17t-3 -34.5t-4 -25.5q-11 -37 -65 -53.5
t-109 -16.5q-119 0 -177.5 58t-58.5 162q0 163 77 241t198 78q57 0 98 -15t60.5 -39t27.5 -46t8 -45zM190 302h48q64 0 92 19.5t28 45.5q0 47 -60 47q-83 0 -108 -112z" />
    <glyph glyph-name="uni1EC6" unicode="&#x1ec6;" horiz-adv-x="546" 
d="M349 895q48 0 59 -19l54 -102q3 -8 3 -12q0 -13 -19 -13h-22q-49 0 -64 24l-25 40l-31 -39q-19 -25 -69 -25h-24q-19 0 -19 10q0 7 7 15l76 102q14 19 63 19h11zM515 700q26 0 26 -40q0 -91 -38 -91h-252l-16 -145h224q26 0 26 -40q0 -91 -38 -91h-225l-18 -162h252
q26 0 26 -40q0 -91 -38 -91h-368q-20 0 -28 7t-8 25l65 628q4 40 44 40h366zM242 -80q57 0 57 -32l-7 -60q-5 -32 -63 -32q-57 0 -57 32l7 60q3 32 63 32z" />
    <glyph glyph-name="uni1EC7" unicode="&#x1ec7;" horiz-adv-x="539" 
d="M187 572q-19 0 -19 10q0 7 7 15l76 102q14 19 63 19h11q48 0 59 -19l54 -102q3 -8 3 -12q0 -13 -19 -13h-22q-49 0 -64 24l-25 40l-31 -39q-19 -25 -69 -25h-24zM502 386q0 -92 -65 -137.5t-150 -45.5q-55 0 -104 7q4 -58 30 -79.5t75 -21.5q35 0 71 11t58.5 22t25.5 11
q8 0 8 -14q0 -1 -1 -17t-3 -34.5t-4 -25.5q-11 -37 -65 -53.5t-109 -16.5q-119 0 -177.5 58t-58.5 162q0 163 77 241t198 78q57 0 98 -15t60.5 -39t27.5 -46t8 -45zM190 302h48q64 0 92 19.5t28 45.5q0 47 -60 47q-83 0 -108 -112zM259 -80q57 0 57 -32l-7 -60
q-5 -32 -63 -32q-57 0 -57 32l7 60q3 32 63 32z" />
    <glyph glyph-name="uni1EC8" unicode="&#x1ec8;" horiz-adv-x="282" 
d="M224 845q0 22 -32 22q-13 0 -27 -6t-17 -6q-6 0 -15.5 15.5t-9.5 26.5q0 10 28.5 20.5t54.5 10.5q49 0 77 -21.5t28 -55.5t-42 -69t-60 -35q-27 0 -42 6.5t-15 14.5q0 10 36 34t36 43zM195 702q57 0 57 -31l-67 -641q-3 -32 -63 -32h-35q-57 0 -57 31l67 641q3 32 63 32
h35z" />
    <glyph glyph-name="uni1EC9" unicode="&#x1ec9;" horiz-adv-x="265" 
d="M187 668q0 22 -32 22q-13 0 -27 -6t-17 -6q-6 0 -15.5 15.5t-9.5 26.5q0 10 28.5 20.5t54.5 10.5q49 0 77 -21.5t28 -55.5t-42 -69t-60 -35q-27 0 -42 6.5t-15 14.5q0 9 18 21t36 27t18 29zM158 525q28 0 42.5 -9t14.5 -22q-37 -342 -37 -352q0 -33 30 -33q8 0 18 3t11 3
q8 0 8 -11q0 -19 -7 -60q-4 -25 -31 -38.5t-57 -13.5q-121 0 -121 127l38 374q3 32 63 32h28z" />
    <glyph glyph-name="uni1ECA" unicode="&#x1eca;" horiz-adv-x="282" 
d="M195 702q57 0 57 -31l-67 -641q-3 -32 -63 -32h-35q-57 0 -57 31l67 641q3 32 63 32h35zM92 -80q57 0 57 -32l-7 -60q-5 -32 -63 -32q-57 0 -57 32l7 60q3 32 63 32z" />
    <glyph glyph-name="uni1ECB" unicode="&#x1ecb;" horiz-adv-x="265" 
d="M182 754q28 0 42.5 -9t14.5 -22l-9 -82q-3 -32 -63 -32h-28q-28 0 -42.5 9t-14.5 22l9 82q3 32 63 32h28zM158 525q28 0 42.5 -9t14.5 -22q-37 -342 -37 -352q0 -33 30 -33q8 0 18 3t11 3q8 0 8 -11q0 -19 -7 -60q-4 -25 -31 -38.5t-57 -13.5q-121 0 -121 127l38 374
q3 32 63 32h28zM90 -80q57 0 57 -32l-7 -60q-5 -32 -63 -32q-57 0 -57 32l7 60q3 32 63 32z" />
    <glyph glyph-name="uni1ECC" unicode="&#x1ecc;" horiz-adv-x="731" 
d="M403 708q139 0 212.5 -75.5t73.5 -218.5q0 -204 -93 -313t-268 -109q-139 0 -213 75t-74 217q0 83 20 156.5t61.5 134.5t113.5 97t167 36zM389 576q-88 0 -138.5 -72.5t-50.5 -205.5q0 -175 142 -175q87 0 138 72.5t51 204.5q0 176 -142 176zM316 -80q57 0 57 -32l-7 -60
q-5 -32 -63 -32q-57 0 -57 32l7 60q3 32 63 32z" />
    <glyph glyph-name="uni1ECD" unicode="&#x1ecd;" horiz-adv-x="569" 
d="M307 531q107 0 162 -56t55 -164q0 -152 -73 -235.5t-201 -83.5q-107 0 -162 56t-55 163q0 65 14 119.5t44 101t85.5 73t130.5 26.5zM295 414q-53 0 -82.5 -50.5t-29.5 -145.5q0 -109 79 -109q52 0 81.5 50.5t29.5 144.5q0 110 -78 110zM240 -80q57 0 57 -32l-7 -60
q-5 -32 -63 -32q-57 0 -57 32l7 60q3 32 63 32z" />
    <glyph glyph-name="uni1ECE" unicode="&#x1ece;" horiz-adv-x="731" 
d="M439 845q0 22 -32 22q-13 0 -27 -6t-17 -6q-6 0 -15.5 15.5t-9.5 26.5q0 10 28.5 20.5t54.5 10.5q49 0 77 -21.5t28 -55.5t-42 -69t-60 -35q-27 0 -42 6.5t-15 14.5q0 10 36 34t36 43zM403 708q139 0 212.5 -75.5t73.5 -218.5q0 -204 -93 -313t-268 -109q-139 0 -213 75
t-74 217q0 83 20 156.5t61.5 134.5t113.5 97t167 36zM389 576q-88 0 -138.5 -72.5t-50.5 -205.5q0 -175 142 -175q87 0 138 72.5t51 204.5q0 176 -142 176z" />
    <glyph glyph-name="uni1ECF" unicode="&#x1ecf;" horiz-adv-x="569" 
d="M337 668q0 22 -32 22q-13 0 -27 -6t-17 -6q-6 0 -15.5 15.5t-9.5 26.5q0 10 28.5 20.5t54.5 10.5q49 0 77 -21.5t28 -55.5t-42 -69t-60 -35q-27 0 -42 6.5t-15 14.5q0 9 18 21t36 27t18 29zM307 531q107 0 162 -56t55 -164q0 -152 -73 -235.5t-201 -83.5q-107 0 -162 56
t-55 163q0 65 14 119.5t44 101t85.5 73t130.5 26.5zM295 414q-53 0 -82.5 -50.5t-29.5 -145.5q0 -109 79 -109q52 0 81.5 50.5t29.5 144.5q0 110 -78 110z" />
    <glyph glyph-name="uni1ED0" unicode="&#x1ed0;" horiz-adv-x="731" 
d="M622 963q38 0 38 -23q0 -16 -86 -101q-17 -15 -58 -15q-19 0 -19 13q0 6 47 99q14 27 78 27zM414 895q40 0 49 -19l49 -102q3 -8 3 -12q0 -13 -19 -13h-22q-59 0 -64 24l-10 40l-31 -39q-19 -25 -69 -25h-24q-19 0 -19 10q0 7 7 15l76 102q14 19 63 19h11zM403 708
q139 0 212.5 -75.5t73.5 -218.5q0 -204 -93 -313t-268 -109q-139 0 -213 75t-74 217q0 83 20 156.5t61.5 134.5t113.5 97t167 36zM389 576q-88 0 -138.5 -72.5t-50.5 -205.5q0 -175 142 -175q87 0 138 72.5t51 204.5q0 176 -142 176z" />
    <glyph glyph-name="uni1ED1" unicode="&#x1ed1;" horiz-adv-x="569" 
d="M549 863q58 0 58 -13q0 -7 -4.5 -12.5t-35.5 -34.5q-12 -12 -20 -19.5t-24 -23t-32 -31.5q-25 -25 -78 -25q-29 0 -29 13q0 3 2 7.5t8.5 14t14 20.5t22.5 32.5t30 44.5q18 27 88 27zM312 718q40 0 49 -19l49 -102q3 -8 3 -12q0 -13 -19 -13h-22q-59 0 -64 24l-10 40
l-31 -39q-19 -25 -69 -25h-24q-19 0 -19 10q0 7 7 15l76 102q14 19 63 19h11zM307 531q107 0 162 -56t55 -164q0 -152 -73 -235.5t-201 -83.5q-107 0 -162 56t-55 163q0 65 14 119.5t44 101t85.5 73t130.5 26.5zM295 414q-53 0 -82.5 -50.5t-29.5 -145.5q0 -109 79 -109
q52 0 81.5 50.5t29.5 144.5q0 110 -78 110z" />
    <glyph glyph-name="uni1ED2" unicode="&#x1ed2;" horiz-adv-x="731" 
d="M476 964q73 0 82 -27q28 -91 28 -96q0 -16 -33 -16q-40 0 -59 25q-15 20 -35 48q-32 44 -32 50q0 16 49 16zM414 895q40 0 49 -19l49 -102q3 -8 3 -12q0 -13 -19 -13h-22q-59 0 -64 24l-10 40l-31 -39q-19 -25 -69 -25h-24q-19 0 -19 10q0 7 7 15l76 102q14 19 63 19h11z
M403 708q139 0 212.5 -75.5t73.5 -218.5q0 -204 -93 -313t-268 -109q-139 0 -213 75t-74 217q0 83 20 156.5t61.5 134.5t113.5 97t167 36zM389 576q-88 0 -138.5 -72.5t-50.5 -205.5q0 -175 142 -175q87 0 138 72.5t51 204.5q0 176 -142 176z" />
    <glyph glyph-name="uni1ED3" unicode="&#x1ed3;" horiz-adv-x="569" 
d="M371 863q69 0 82 -27q10 -21 19.5 -41t15 -31t10 -21t6.5 -15t2 -8q0 -16 -33 -16q-51 0 -72 25q-23 29 -54 65q-26 31 -32 39.5t-6 13.5q0 16 62 16zM312 718q40 0 49 -19l49 -102q3 -8 3 -12q0 -13 -19 -13h-22q-59 0 -64 24l-10 40l-31 -39q-19 -25 -69 -25h-24
q-19 0 -19 10q0 7 7 15l76 102q14 19 63 19h11zM307 531q107 0 162 -56t55 -164q0 -152 -73 -235.5t-201 -83.5q-107 0 -162 56t-55 163q0 65 14 119.5t44 101t85.5 73t130.5 26.5zM295 414q-53 0 -82.5 -50.5t-29.5 -145.5q0 -109 79 -109q52 0 81.5 50.5t29.5 144.5
q0 110 -78 110z" />
    <glyph glyph-name="uni1ED4" unicode="&#x1ed4;" horiz-adv-x="731" 
d="M557 896q0 17 -21 17q-18 0 -34 -8.5t-18 -8.5q-6 0 -15.5 15.5t-9.5 26.5q0 10 28 19t55 9q85 0 85 -66q0 -28 -40 -53q-34 -21 -44 -21q-41 0 -41 21q0 12 21 20q14 6 19.5 9t10 8t4.5 12zM414 895q40 0 49 -19l49 -102q3 -8 3 -12q0 -13 -19 -13h-22q-59 0 -64 24
l-10 40l-31 -39q-19 -25 -69 -25h-24q-19 0 -19 10q0 7 7 15l76 102q14 19 63 19h11zM403 708q139 0 212.5 -75.5t73.5 -218.5q0 -204 -93 -313t-268 -109q-139 0 -213 75t-74 217q0 83 20 156.5t61.5 134.5t113.5 97t167 36zM389 576q-88 0 -138.5 -72.5t-50.5 -205.5
q0 -175 142 -175q87 0 138 72.5t51 204.5q0 176 -142 176z" />
    <glyph glyph-name="uni1ED5" unicode="&#x1ed5;" horiz-adv-x="569" 
d="M484 797q0 22 -32 22q-13 0 -27 -6t-17 -6q-6 0 -15.5 15.5t-9.5 26.5q0 10 28.5 20.5t54.5 10.5q49 0 77 -21.5t28 -55.5t-42 -69t-60 -35q-27 0 -42 6.5t-15 14.5q0 10 36 34t36 43zM312 718q40 0 49 -19l49 -102q3 -8 3 -12q0 -13 -19 -13h-22q-59 0 -64 24l-10 40
l-31 -39q-19 -25 -69 -25h-24q-19 0 -19 10q0 7 7 15l76 102q14 19 63 19h11zM307 531q107 0 162 -56t55 -164q0 -152 -73 -235.5t-201 -83.5q-107 0 -162 56t-55 163q0 65 14 119.5t44 101t85.5 73t130.5 26.5zM295 414q-53 0 -82.5 -50.5t-29.5 -145.5q0 -109 79 -109
q52 0 81.5 50.5t29.5 144.5q0 110 -78 110z" />
    <glyph glyph-name="uni1ED6" unicode="&#x1ed6;" horiz-adv-x="731" 
d="M359 1016q16 0 65 -14t63 -15q17 0 30 16q16 22 37 15l10 -3q29 -9 18 -41q-10 -29 -36 -49.5t-63 -20.5q-16 0 -65 14t-63 15q-17 0 -30 -16q-16 -22 -37 -15l-10 3q-29 9 -18 41q10 29 36 49.5t63 20.5zM421 871q44 0 59 -19l54 -78q3 -8 3 -12q0 -13 -19 -13h-22
q-27 0 -64 24l-25 26l-31 -25q-7 -3 -17.5 -8.5t-16.5 -8.5t-15.5 -5.5t-19.5 -2.5h-24q-19 0 -19 10q0 7 7 15l76 78q20 19 63 19h11zM403 708q139 0 212.5 -75.5t73.5 -218.5q0 -204 -93 -313t-268 -109q-139 0 -213 75t-74 217q0 83 20 156.5t61.5 134.5t113.5 97t167 36
zM389 576q-88 0 -138.5 -72.5t-50.5 -205.5q0 -175 142 -175q87 0 138 72.5t51 204.5q0 176 -142 176z" />
    <glyph glyph-name="uni1ED7" unicode="&#x1ed7;" horiz-adv-x="569" 
d="M263 876q16 0 65 -14t63 -15q17 0 30 16q16 22 37 15l10 -3q29 -9 18 -41q-10 -29 -36 -49.5t-63 -20.5q-16 0 -65 14t-63 15q-17 0 -30 -16q-16 -22 -37 -15l-10 3q-29 9 -18 41q10 29 36 49.5t63 20.5zM315 718q48 0 59 -19l54 -102q3 -8 3 -12q0 -13 -19 -13h-22
q-49 0 -64 24l-25 40l-31 -39q-19 -25 -69 -25h-24q-19 0 -19 10q0 7 7 15l76 102q14 19 63 19h11zM307 531q107 0 162 -56t55 -164q0 -152 -73 -235.5t-201 -83.5q-107 0 -162 56t-55 163q0 65 14 119.5t44 101t85.5 73t130.5 26.5zM295 414q-53 0 -82.5 -50.5
t-29.5 -145.5q0 -109 79 -109q52 0 81.5 50.5t29.5 144.5q0 110 -78 110z" />
    <glyph glyph-name="uni1ED8" unicode="&#x1ed8;" horiz-adv-x="731" 
d="M417 895q48 0 59 -19l54 -102q3 -8 3 -12q0 -13 -19 -13h-22q-49 0 -64 24l-25 40l-31 -39q-19 -25 -69 -25h-24q-19 0 -19 10q0 7 7 15l76 102q14 19 63 19h11zM403 708q139 0 212.5 -75.5t73.5 -218.5q0 -204 -93 -313t-268 -109q-139 0 -213 75t-74 217q0 83 20 156.5
t61.5 134.5t113.5 97t167 36zM389 576q-88 0 -138.5 -72.5t-50.5 -205.5q0 -175 142 -175q87 0 138 72.5t51 204.5q0 176 -142 176zM316 -80q57 0 57 -32l-7 -60q-5 -32 -63 -32q-57 0 -57 32l7 60q3 32 63 32z" />
    <glyph glyph-name="uni1ED9" unicode="&#x1ed9;" horiz-adv-x="569" 
d="M315 718q48 0 59 -19l54 -102q3 -8 3 -12q0 -13 -19 -13h-22q-49 0 -64 24l-25 40l-31 -39q-19 -25 -69 -25h-24q-19 0 -19 10q0 7 7 15l76 102q14 19 63 19h11zM307 531q107 0 162 -56t55 -164q0 -152 -73 -235.5t-201 -83.5q-107 0 -162 56t-55 163q0 65 14 119.5
t44 101t85.5 73t130.5 26.5zM295 414q-53 0 -82.5 -50.5t-29.5 -145.5q0 -109 79 -109q52 0 81.5 50.5t29.5 144.5q0 110 -78 110zM240 -80q57 0 57 -32l-7 -60q-5 -32 -63 -32q-57 0 -57 32l7 60q3 32 63 32z" />
    <glyph glyph-name="uni1EDA" unicode="&#x1eda;" horiz-adv-x="731" 
d="M394 754q-29 0 -29 13q0 3 2 7.5t8.5 14t14 20.5t22.5 32.5t30 44.5q18 27 88 27q58 0 58 -13q0 -7 -4.5 -12.5t-35.5 -34.5q-41 -40 -76 -74q-25 -25 -78 -25zM606 642q83 -75 83 -228q0 -204 -93 -313t-268 -109q-139 0 -213 75t-74 217q0 83 20 156.5t61.5 134.5
t113.5 97t167 36q80 0 140 -26h32q51 0 51 40q0 10 -10.5 26t-10.5 22q0 11 13 19l34 22q8 5 17 5q17 0 27.5 -27t10.5 -52q0 -37 -26 -62.5t-75 -32.5zM342 123q87 0 138 72.5t51 204.5q0 176 -142 176q-88 0 -138.5 -72.5t-50.5 -205.5q0 -175 142 -175z" />
    <glyph glyph-name="uni1EDB" unicode="&#x1edb;" horiz-adv-x="569" 
d="M279 577q-29 0 -29 13q0 3 2 7.5t8.5 14t14 20.5t22.5 32.5t30 44.5q18 27 88 27q58 0 58 -13q0 -7 -4.5 -12.5t-35.5 -34.5q-41 -40 -76 -74q-25 -25 -78 -25zM592 560q0 -39 -29.5 -65t-83.5 -32q45 -54 45 -152q0 -152 -73 -235.5t-201 -83.5q-107 0 -162 56t-55 163
q0 65 14 119.5t44 101t85.5 73t130.5 26.5q72 0 121 -26h32q51 0 51 40q0 10 -10.5 26t-10.5 22q0 11 13 19l34 22q7 5 17 5q17 0 27.5 -27t10.5 -52zM262 109q52 0 81.5 50.5t29.5 144.5q0 110 -78 110q-53 0 -82.5 -50.5t-29.5 -145.5q0 -109 79 -109z" />
    <glyph glyph-name="uni1EDC" unicode="&#x1edc;" horiz-adv-x="731" 
d="M454 754q-51 0 -72 25q-23 29 -54 65q-26 31 -32 39.5t-6 13.5q0 16 62 16q69 0 82 -27q10 -21 19.5 -41t15 -31t10 -21t6.5 -15t2 -8q0 -16 -33 -16zM606 642q83 -75 83 -228q0 -204 -93 -313t-268 -109q-139 0 -213 75t-74 217q0 83 20 156.5t61.5 134.5t113.5 97
t167 36q80 0 140 -26h32q51 0 51 40q0 10 -10.5 26t-10.5 22q0 11 13 19l34 22q8 5 17 5q17 0 27.5 -27t10.5 -52q0 -37 -26 -62.5t-75 -32.5zM342 123q87 0 138 72.5t51 204.5q0 176 -142 176q-88 0 -138.5 -72.5t-50.5 -205.5q0 -175 142 -175z" />
    <glyph glyph-name="uni1EDD" unicode="&#x1edd;" horiz-adv-x="569" 
d="M339 577q-51 0 -72 25q-23 29 -54 65q-38 46 -38 53q0 16 62 16q69 0 82 -27q10 -21 19.5 -41t15 -31t10 -21t6.5 -15t2 -8q0 -16 -33 -16zM592 560q0 -39 -29.5 -65t-83.5 -32q45 -54 45 -152q0 -152 -73 -235.5t-201 -83.5q-107 0 -162 56t-55 163q0 65 14 119.5
t44 101t85.5 73t130.5 26.5q72 0 121 -26h32q51 0 51 40q0 10 -10.5 26t-10.5 22q0 11 13 19l34 22q7 5 17 5q17 0 27.5 -27t10.5 -52zM262 109q52 0 81.5 50.5t29.5 144.5q0 110 -78 110q-53 0 -82.5 -50.5t-29.5 -145.5q0 -109 79 -109z" />
    <glyph glyph-name="uni1EDE" unicode="&#x1ede;" horiz-adv-x="731" 
d="M389 857q-6 0 -15.5 15.5t-9.5 26.5q0 10 28.5 20.5t54.5 10.5q49 0 77 -21.5t28 -55.5t-42 -69t-60 -35q-27 0 -42 6.5t-15 14.5q0 10 36 34t36 43q0 22 -32 22q-13 0 -27 -6t-17 -6zM606 642q83 -75 83 -228q0 -204 -93 -313t-268 -109q-139 0 -213 75t-74 217
q0 83 20 156.5t61.5 134.5t113.5 97t167 36q80 0 140 -26h32q51 0 51 40q0 10 -10.5 26t-10.5 22q0 11 13 19l34 22q8 5 17 5q17 0 27.5 -27t10.5 -52q0 -37 -26 -62.5t-75 -32.5zM342 123q87 0 138 72.5t51 204.5q0 176 -142 176q-88 0 -138.5 -72.5t-50.5 -205.5
q0 -175 142 -175z" />
    <glyph glyph-name="uni1EDF" unicode="&#x1edf;" horiz-adv-x="569" 
d="M274 680q-6 0 -15.5 15.5t-9.5 26.5q0 10 28.5 20.5t54.5 10.5q49 0 77 -21.5t28 -55.5t-42 -69t-60 -35q-27 0 -42 6.5t-15 14.5q0 9 18 21t36 27t18 29q0 22 -32 22q-13 0 -27 -6t-17 -6zM592 560q0 -39 -29.5 -65t-83.5 -32q45 -54 45 -152q0 -152 -73 -235.5
t-201 -83.5q-107 0 -162 56t-55 163q0 65 14 119.5t44 101t85.5 73t130.5 26.5q72 0 121 -26h32q51 0 51 40q0 10 -10.5 26t-10.5 22q0 11 13 19l34 22q7 5 17 5q17 0 27.5 -27t10.5 -52zM262 109q52 0 81.5 50.5t29.5 144.5q0 110 -78 110q-53 0 -82.5 -50.5t-29.5 -145.5
q0 -109 79 -109z" />
    <glyph glyph-name="uni1EE0" unicode="&#x1ee0;" horiz-adv-x="731" 
d="M283 762q-27 9 -18 41q10 29 36 49.5t63 20.5q16 0 64.5 -14t61.5 -15q17 0 30 16q16 22 36 15l10 -3q29 -9 18 -41q-10 -29 -35.5 -49.5t-62.5 -20.5q-16 0 -64 14t-62 15q-17 0 -30 -16q-16 -22 -37 -15zM606 642q83 -75 83 -228q0 -204 -93 -313t-268 -109
q-139 0 -213 75t-74 217q0 83 20 156.5t61.5 134.5t113.5 97t167 36q80 0 140 -26h32q51 0 51 40q0 10 -10.5 26t-10.5 22q0 11 13 19l34 22q8 5 17 5q17 0 27.5 -27t10.5 -52q0 -37 -26 -62.5t-75 -32.5zM342 123q87 0 138 72.5t51 204.5q0 176 -142 176
q-88 0 -138.5 -72.5t-50.5 -205.5q0 -175 142 -175z" />
    </font>
</defs>
</svg>
